<svg id="a26324cb-1020-41f4-9542-45ea9b88a012" data-name="Layer 1" xmlns="http://www.w3.org/2000/svg" viewBox="0 0 60.34796 16.94592">
  <g id="bad5d7e9-1eb6-44a0-ac1d-efe6961c4a83" data-name="Слой_1">
    <g>
      <path d="M60.32454,12.41223h-.03742V17.41h.03723C60.322,15.75488,60.32209,14.07171,60.32454,12.41223Z" transform="translate(0.02343 -0.46405)" style="fill: #7aa570"/>
      <polygon points="60.311 11.948 60.017 11.948 59.714 11.948 59.43 11.938 59.137 11.928 58.844 11.908 58.56 11.887 58.277 11.867 57.994 11.847 57.711 11.817 57.427 11.786 57.144 11.756 56.871 11.715 56.598 11.675 56.314 11.635 56.041 11.584 55.778 11.533 55.505 11.483 55.232 11.432 54.969 11.371 54.716 11.311 54.443 11.25 54.18 11.179 53.927 11.119 53.674 11.048 53.411 10.967 53.168 10.896 52.915 10.815 52.672 10.724 52.429 10.643 52.187 10.552 51.944 10.471 51.701 10.37 48.413 14.761 48.737 14.892 49.071 15.014 49.415 15.135 49.748 15.256 50.103 15.368 50.447 15.479 50.79 15.59 51.145 15.691 51.499 15.793 51.863 15.894 52.217 15.985 52.581 16.066 52.945 16.147 53.32 16.238 53.684 16.309 54.058 16.379 54.433 16.45 54.817 16.511 55.191 16.572 55.576 16.632 55.97 16.683 56.345 16.723 56.739 16.764 57.124 16.804 57.508 16.835 57.913 16.865 58.307 16.895 58.702 16.916 59.107 16.936 59.511 16.946 59.906 16.946 60.311 16.946 60.311 11.948 60.311 11.948" style="fill: #7aa570"/>
      <path d="M-.02343,12.41217q.00357,2.07944.00574,4.15869c.00012.27966-.00348.55945-.00348.83911H0v-4.9978Z" transform="translate(0.02343 -0.46405)" style="fill: #7aa570"/>
      <polygon points="45.378 5.929 45.54 6.131 45.55 6.131 45.378 5.929" style="fill: #7aa570"/>
      <polygon points="39.004 1.609 38.761 1.518 38.519 1.426 38.255 1.335 38.003 1.244 37.76 1.163 37.497 1.083 37.244 1.002 36.981 0.931 36.708 0.85 36.445 0.779 36.192 0.718 35.908 0.647 35.635 0.587 35.362 0.526 35.089 0.475 34.816 0.415 34.522 0.364 34.259 0.324 33.976 0.283 33.683 0.233 33.399 0.202 33.106 0.162 32.823 0.131 32.539 0.111 32.236 0.081 31.953 0.061 31.649 0.04 31.356 0.03 31.062 0.02 30.769 0.01 30.465 0 30.162 0 30.162 4.998 30.354 4.998 30.536 5.008 30.739 5.008 30.941 5.018 31.123 5.028 31.305 5.038 31.497 5.048 31.68 5.069 31.862 5.089 32.054 5.109 32.226 5.129 32.408 5.15 32.58 5.17 32.762 5.2 32.954 5.23 33.116 5.261 33.288 5.301 33.46 5.332 33.632 5.372 33.804 5.413 33.956 5.443 34.138 5.494 34.31 5.534 34.462 5.574 34.624 5.625 34.796 5.676 34.947 5.726 35.109 5.777 35.261 5.837 35.413 5.888 35.564 5.949 35.716 5.999 39.004 1.609 39.004 1.609" style="fill: #7aa570"/>
      <polygon points="8.38 10.471 8.147 10.552 7.894 10.643 7.662 10.724 7.409 10.815 7.156 10.896 6.913 10.967 6.66 11.038 6.397 11.119 6.144 11.179 5.881 11.25 5.618 11.311 5.355 11.371 5.092 11.432 4.819 11.483 4.556 11.533 4.283 11.584 4.01 11.635 3.736 11.675 3.453 11.715 3.18 11.756 2.907 11.786 2.623 11.817 2.33 11.847 2.047 11.867 1.764 11.887 1.48 11.908 1.187 11.928 0.904 11.938 0.61 11.948 0.317 11.948 0.023 11.948 0.023 16.946 0.428 16.946 0.823 16.946 1.227 16.936 1.622 16.916 2.016 16.895 2.421 16.865 2.816 16.835 3.2 16.804 3.595 16.764 3.979 16.723 4.364 16.683 4.748 16.632 5.133 16.572 5.517 16.511 5.891 16.45 6.266 16.379 6.64 16.309 7.004 16.238 7.378 16.147 7.753 16.066 8.107 15.985 8.461 15.894 8.825 15.793 9.179 15.691 9.533 15.59 9.888 15.479 10.232 15.368 10.575 15.256 10.919 15.135 11.253 15.014 11.587 14.892 11.921 14.761 8.623 10.37 8.38 10.471" style="fill: #7aa570"/>
      <polygon points="45.54 6.131 45.388 5.959 45.246 5.787 45.085 5.615 44.923 5.433 44.761 5.271 44.589 5.099 44.417 4.947 44.245 4.785 44.063 4.623 43.87 4.462 43.688 4.31 43.496 4.158 43.304 3.996 43.102 3.855 42.899 3.713 42.697 3.561 42.495 3.43 42.282 3.288 42.07 3.146 41.847 3.015 41.635 2.883 41.412 2.752 41.179 2.63 40.947 2.499 40.714 2.388 40.481 2.266 40.238 2.155 39.996 2.034 39.763 1.932 39.51 1.821 39.257 1.72 39.004 1.609 35.716 5.999 35.868 6.07 36.02 6.131 36.171 6.192 36.323 6.262 36.465 6.333 36.607 6.404 36.768 6.475 36.91 6.546 37.042 6.627 37.173 6.697 37.315 6.778 37.446 6.859 37.578 6.94 37.709 7.021 37.841 7.102 37.962 7.193 38.084 7.274 38.205 7.365 38.326 7.456 38.438 7.547 38.559 7.638 38.67 7.729 38.771 7.82 38.883 7.911 38.984 8.013 39.095 8.114 39.196 8.205 39.287 8.306 39.379 8.407 39.47 8.508 39.571 8.61 39.652 8.711 45.55 6.131 45.54 6.131" style="fill: #7aa570"/>
      <polygon points="29.858 0 29.555 0.01 29.261 0.02 28.978 0.03 28.675 0.04 28.371 0.061 28.088 0.081 27.784 0.111 27.501 0.132 27.218 0.162 26.924 0.202 26.641 0.233 26.348 0.283 26.075 0.324 25.802 0.364 25.508 0.415 25.235 0.475 24.962 0.526 24.689 0.587 24.415 0.647 24.132 0.718 23.879 0.779 23.616 0.85 23.343 0.931 23.08 1.002 22.827 1.083 22.574 1.163 22.321 1.244 22.068 1.335 21.815 1.426 21.573 1.518 21.32 1.609 24.618 5.999 24.618 5.999 24.618 5.999 24.759 5.949 24.921 5.888 25.063 5.837 25.215 5.777 25.387 5.726 25.538 5.676 25.7 5.625 25.862 5.574 26.014 5.534 26.196 5.494 26.368 5.443 26.52 5.413 26.692 5.372 26.864 5.332 27.036 5.301 27.208 5.261 27.38 5.23 27.562 5.2 27.744 5.17 27.916 5.15 28.098 5.129 28.28 5.109 28.462 5.089 28.654 5.069 28.826 5.048 29.019 5.038 29.201 5.028 29.393 5.018 29.585 5.008 29.788 5.008 29.97 4.998 30.162 4.998 30.162 4.998 30.162 0 29.858 0" style="fill: #7aa570"/>
      <polygon points="51.226 10.178 50.983 10.076 50.75 9.965 50.527 9.864 50.295 9.743 50.072 9.631 49.85 9.52 49.627 9.399 49.415 9.277 49.202 9.156 49 9.045 48.787 8.913 48.585 8.782 48.393 8.65 48.18 8.518 47.998 8.387 47.806 8.245 47.614 8.104 47.442 7.962 47.26 7.82 47.088 7.679 46.916 7.527 46.744 7.385 46.582 7.234 46.42 7.082 46.268 6.93 46.116 6.768 45.965 6.617 45.823 6.455 45.681 6.293 45.55 6.131 39.652 8.711 39.844 8.943 40.046 9.176 40.259 9.409 40.481 9.641 40.694 9.864 40.916 10.087 41.149 10.299 41.392 10.522 41.635 10.734 41.877 10.947 42.12 11.149 42.383 11.361 42.646 11.564 42.909 11.756 43.182 11.958 43.456 12.151 43.729 12.333 44.012 12.515 44.305 12.697 44.589 12.879 44.892 13.061 45.196 13.233 45.499 13.395 45.803 13.567 46.116 13.729 46.43 13.891 46.744 14.042 47.078 14.194 47.401 14.336 47.735 14.487 48.069 14.629 48.413 14.761 51.701 10.37 51.701 10.37 51.458 10.279 51.226 10.178" style="fill: #7aa570"/>
      <polygon points="14.784 6.131 14.643 6.293 14.501 6.455 14.359 6.617 14.207 6.778 14.066 6.92 13.904 7.082 13.742 7.234 13.58 7.385 13.408 7.527 13.246 7.679 13.064 7.82 12.892 7.962 12.71 8.104 12.518 8.245 12.326 8.387 12.133 8.518 11.941 8.65 11.739 8.782 11.537 8.913 11.334 9.034 11.122 9.166 10.909 9.287 10.697 9.399 10.484 9.52 10.262 9.631 10.029 9.753 9.796 9.864 9.574 9.965 9.341 10.076 9.098 10.178 8.866 10.279 8.623 10.37 11.921 14.761 12.255 14.629 12.599 14.487 12.923 14.336 13.246 14.194 13.58 14.042 13.894 13.88 14.207 13.729 14.521 13.567 14.835 13.395 15.138 13.233 15.442 13.061 15.735 12.879 16.029 12.697 16.312 12.515 16.595 12.333 16.878 12.14 17.151 11.948 17.425 11.756 17.688 11.554 17.941 11.351 18.194 11.149 18.446 10.947 18.699 10.734 18.942 10.522 19.175 10.299 19.397 10.087 19.63 9.864 19.853 9.631 20.065 9.409 20.278 9.176 20.48 8.943 20.682 8.711 20.672 8.711 20.672 8.711 14.784 6.131" style="fill: #7aa570"/>
      <polygon points="21.32 1.609 24.618 5.999 24.618 5.999 21.32 1.609" style="fill: #7aa570"/>
      <polygon points="21.067 1.72 20.814 1.821 20.571 1.932 20.328 2.034 20.085 2.145 19.843 2.266 19.61 2.388 19.377 2.499 19.155 2.63 18.922 2.752 18.689 2.883 18.477 3.015 18.254 3.146 18.042 3.288 17.829 3.43 17.627 3.561 17.425 3.713 17.222 3.855 17.03 3.996 16.828 4.158 16.636 4.31 16.443 4.462 16.271 4.613 16.089 4.775 15.907 4.947 15.735 5.109 15.563 5.271 15.401 5.433 15.239 5.605 15.078 5.787 14.926 5.959 14.784 6.131 20.672 8.711 20.763 8.61 20.854 8.508 20.945 8.407 21.036 8.306 21.138 8.205 21.239 8.104 21.34 8.013 21.441 7.922 21.542 7.82 21.664 7.729 21.765 7.638 21.886 7.547 21.998 7.456 22.119 7.365 22.24 7.274 22.362 7.193 22.493 7.102 22.615 7.021 22.746 6.94 22.878 6.859 23.009 6.778 23.151 6.697 23.282 6.627 23.424 6.546 23.566 6.475 23.707 6.404 23.859 6.333 24.001 6.262 24.152 6.192 24.304 6.131 24.456 6.07 24.608 5.999 24.618 5.999 21.32 1.609 21.067 1.72" style="fill: #7aa570"/>
    </g>
  </g>
</svg>
