<svg id="a53505bd-11e9-4070-b2c3-381a1097b6cc" data-name="Layer 1" xmlns="http://www.w3.org/2000/svg" viewBox="0 0 60.27706 17">
  <g id="af7965c0-30eb-40fe-b55b-6d1c458af92a" data-name="Слой_1">
    <g>
      <polygon points="29.532 0.037 28.651 0.068 28.348 0.088 28.065 0.108 27.761 0.138 27.478 0.159 27.195 0.189 26.901 0.229 26.618 0.26 26.324 0.31 26.041 0.351 25.778 0.391 25.485 0.442 25.212 0.503 24.928 0.553 24.665 0.614 24.392 0.674 24.109 0.745 23.856 0.806 23.593 0.877 23.32 0.958 23.057 1.029 22.804 1.11 22.541 1.19 22.298 1.271 22.035 1.362 21.782 1.453 21.539 1.545 21.296 1.636 24.584 6.026 24.736 5.976 24.888 5.915 25.04 5.865 25.191 5.804 25.353 5.753 25.505 5.703 25.677 5.652 25.839 5.602 25.991 5.561 26.163 5.521 26.345 5.47 26.496 5.44 26.668 5.399 26.84 5.359 27.012 5.328 27.184 5.288 27.346 5.258 27.538 5.227 27.721 5.197 27.893 5.177 28.075 5.156 28.247 5.136 28.439 5.116 28.621 5.096 28.803 5.075 28.995 5.065 29.177 5.055 29.36 5.045 29.562 5.035 29.754 5.035 29.946 5.025 30.139 5.025 30.139 0.027 29.835 0.027 29.532 0.037" style="fill: #ffb236;fill-opacity: 0.5019609928131104"/>
      <path d="M62.18979,11.90216l-.17261.01233-.28326.0202-.2934.02027-.28326.01013-.28327.01007H59.69028l-.2934-.01007-.28326-.01013-.2934-.02027-.28326-.0202-.28333-.02026-.28326-.02021-.2934-.03033-.28326-.0304-.27313-.03033-.2732-.04047-.28326-.04046-.27313-.04047-.2732-.0506-.27313-.0506-.26306-.05053-.27319-.0506-.263-.06073-.26306-.06067-.263-.06073-.26306-.0708-.25293-.06073-.25293-.0708-.263-.08093-.24286-.07081-.25293-.08093-.25287-.09106-.24285-.08094-.2428-.09106-.23267-.08093-.2428-.1012h-.00006l-.2428-.091-.23266-.1012-.2428-.10119-.23273-.11127-.46533-.22254-.21246-.10119-.23273-.1214-.22253-.1214-.20233-.11133-.2226-.13147-.21246-.1214-.20233-.12146-.20234-.13147-.19226-.13153-.20233-.13153-.1922-.13153-.18213-.1416-.1922-.14166-.18213-.14167-.18206-.1416-.172-.14166-.172-.15173-.16186-.14167-.16187-.15173-.16186-.15179-.1518-.15174-.16186-.16186-.1416-.15174-.14167-.16186L45.658,6.3299l-.1416-.172h-.00006l-.15174-.172L45.21286,5.814l-.16193-.18212-.15173-.172L44.56534,5.126l-.172-.16187-.17193-.15173-.18213-.16193-.1922-.16186L43.665,4.33685l-.18207-.15173-.20233-.15179-.20239-.15174-.20234-.15173-.20233-.14166-.20233-.13153-.21246-.14161-.21247-.14166-.22259-.13153-.22253-.13153-.2226-.13153-.23267-.1214-.23272-.13147-.22254-.11133-.23272-.1214-.2428-.1214-.2428-.11126-.2428-.1012-.25293-.11127-.2428-.10119-.25292-.11127h.00006l-.25293-.09106-.2428-.09107-.25293-.091-.25293-.09107-.75879-.24279-.263-.07087L36.6843.87683,36.4213.806,36.16837.7453,35.8851.6745,35.61191.61383,35.33878.5531l-.2732-.0506L34.79245.44183,34.499.39124,34.22586.35077,33.95273.3103l-.2934-.0506L33.37607.22937,33.08267.1889,32.79941.15851,32.506.13831,32.21262.108l-.2934-.02026L31.62582.0675,31.32236.05737,31.029.04724,30.7457.03711,30.44217.027h-.30353V5.02478h.19226l.18207.01013h.20233l.19226.01013.18207.01014.1922.01013.18213.01007.18207.02026.19226.0202.18207.02027.18212.0202.18207.02026.172.02021.18213.03039.18207.03034.16186.03033.18213.04047.172.03033.172.04053.17194.04047.1518.03033.17193.0506.18213.04047.15173.04046.16187.05054.16193.0506.15173.05059.172.0506.15173.06067.1416.0506.16193.06073.1416.05054.16186.07086.15174.06067.14166.06073.16186.0708.14167.0708.1416.07086.15179.0708.1416.0708.14167.08094.13153.07086.1416.08093.39459.2428.1214.08093.26306.18213.11127.08093.1214.091.11133.08093.1214.10119.11126.09107.1012.09106.11127.091.10119.10119.11127.1012.09106.091.10114.1012.09106.1012.09107.10113.09106.1012.091.10113H39.6182l.20233.23273.20233.23267.21246.23272.21247.23267.22253.22259.22259.22254.23267.21246.23273.2226.2428.21246.25293.21246.24279.20233.26306.20234.25293.20233.263.20233.2732.1922.27313.19226.28333.1922.28326.18213.28326.18207.2934.18212.2934.172.29333.172.31366.18207.3136.16192.30353.16187.32373.16186.32379.15174.3136.15173.32373.14166.344.15174.33386.14166.66773.26306.66772.2428.35407.1214.33386.11126.344.11133.35413.11127.35407.10113.35412.1012.3642.1012.35412.091.35407.08093.37433.081.37433.091.36419.07086.74866.1416.38446.06073.37433.06067.37433.06073.39453.0506.76892.08093.39459.04047.3844.03033.39459.03034.40467.03039.38446.02021.40466.02026.40466.01007h1.59852l.40466-.01007.40466-.02026.29822-.01526Q62.18615,14.41049,62.18979,11.90216Z" style="fill: #ffb236;fill-opacity: 0.5019609928131104"/>
      <path d="M21.2963,1.63562l-.25293.11127-.25293.10119-.25293.11127-.23273.1012-.2428.11126-.2428.1214-.23266.1214-.23273.11133-.23267.13147-.23266.12146-.21246.13147-.2226.13153-.22259.14166-.42493.26306-.20233.14161-.21247.15173-.20233.14166-.1922.15174-.20233.15179-.18213.15173-.1922.15174-.18213.16192-.18206.16187-.172.16186-.172.15174-.33386.33386-.16187.172-.16186.18212-.1518.17194-.1416.172h-.00006l-.14166.16186-.1416.16187-.14167.16192-.30346.30347-.1518.16187-.16186.15179-.16187.15173-.172.14167-.172.15173-.17194.14166-.18213.1416-.18206.14167-.18213.1416-.1922.14166L12.11,8.54553l-.1922.13153-.20233.13153-.20234.13147-.20233.1214-.21246.13153-.21246.1214-.21247.11133-.22259.1214-.2226.11127-.22253.1214L9.773,9.89111l-.22253.10114-.23273.11127-.2428.10119-.23266.1012-.2428.091-.24286.1012-.23267.08093L7.871,10.6701l-.23266.08094-.25293.09106-.25293.08093-.2428.07081-.26306.08093-.25293.0708-.25293.06073-.26306.0708-.27314.06073-.25292.06067-.26307.06073-.27313.0506-.26306.05053-.27313.0506-.2732.0506-.27313.04047-.28326.04046-.27313.04047-.28333.03033-.28326.0304-.28327.03033-.28326.02021-.28327.02026-.28326.0202-.2934.02027-.28332.01013-.2934.01007H-.59695l-.28327-.01007-.29339-.01013-.15241-.0105q.00138,2.50626.00342,5.01251l.11865.00592.40473.01007H.79923l.40472-.01007.39453-.02026.39459-.02021.40467-.03039.39453-.03034.38446-.03033.39459-.04047.3844-.04046L4.34018,16.71l.38446-.0506.3844-.06073.37439-.06067.3844-.06073.74866-.1416.36425-.07086.37433-.091.37433-.081.35407-.08093.35412-.091.3642-.1012.35406-.1012L9.51,15.61731l.35413-.11127.33386-.11133.34393-.11126.688-.2428.33386-.1214.33386-.13153.33381-.13153.33386-.14166.33386-.15174.32379-.14166.33386-.15173.3136-.16187.3136-.15173.31366-.16187.30353-.172.3136-.16187.29339-.172.30353-.18213.2934-.18212.28326-.18207.28327-.18213.27313-.1922.28332-.19226.263-.1922.26306-.20233.263-.20233.50585-.40467.2428-.21246.24286-.21246.2428-.2226.22259-.21246.44513-.44513.21247-.23273.42492-.46533.1922-.23273.09107-.10113.09106-.11133.08094-.091.10119-.1012.10114-.1012.09106-.091.11127-.1012.10119-.10113.11127-.09107.1012-.09106.11127-.09107.12139-.10113.11133-.081.1214-.091.11127-.09106.13153-.08094.1214-.08093.13153-.09106.13153-.08093.1214-.08094.1416-.08093.14166-.08093.13153-.07086.13153-.08094.15174-.0708.14166-.0708.1416-.07086.15174-.0708.15179-.0708.1416-.06073.16187-.06067.15179-.07086Z" style="fill: #ffb236;fill-opacity: 0.5019609928131104"/>
    </g>
  </g>
</svg>
