<svg id="a15dcf51-a4c1-46ad-8455-56a82bb6b8f4" data-name="Layer 1" xmlns="http://www.w3.org/2000/svg" viewBox="0 0 1920 41.33722">
  <g id="b1bd854f-3f7e-4210-9867-16cf84b525f3" data-name="Слой_1">
    <path d="M.00012,45.23227H1920V28.41263c-28.467-6.75934-59.874-12.98871-87.69116-16.82837-44.6156-6.14935-80.0022-6.14935-121.53809-2.29974-41.53589,3.8396-89.2312,11.52887-126.15747,16.91833-36.9165,5.38947-63.07373,8.45917-90.00122,9.999-26.91736,1.53986-54.6145,1.53986-94.6106-3.8496-40.0061-5.37952-92.31079-16.14844-128.46728-21.53791-36.14648-5.37945-56.15442-5.37945-94.6106-1.52984-38.46618,3.8396-95.39062,11.52887-140.76611,17.68823-45.38544,6.14941-79.23212,10.769-105.38953,12.30878s-44.6156,0-73.07281-5.38947c-28.46716-5.37946-66.9234-14.60852-100.77-20.76794-33.84662-6.14936-63.08374-9.22907-93.85071-9.22907s-63.07373,3.07971-98.4602,9.22907c-35.38654,6.15942-73.84272,15.38848-103.8498,20.76794-29.997,5.38947-51.53485,6.92932-74.61261,6.92932a560.488,560.488,0,0,1-76.15246-5.38946c-28.45715-3.8396-60.764-9.999-88.46124-15.37848-27.68726-5.38947-50.765-10.009-75.38251-12.30878a483.82043,483.82043,0,0,0-74.61267-.7699C50.715,8.31461,31.64685,10.83438,0,21.18332H.00012Z" transform="translate(0 -3.89505)" style="fill: #fff;fill-rule: evenodd"/>
  </g>
</svg>
