<?xml version="1.0" encoding="UTF-8"?>
<!DOCTYPE svg PUBLIC "-//W3C//DTD SVG 1.1//EN" "http://www.w3.org/Graphics/SVG/1.1/DTD/svg11.dtd">
<!-- Creator: CorelDRAW 2020 (64-Bit) -->
<svg xmlns="http://www.w3.org/2000/svg" xml:space="preserve" width="30px" height="30px" version="1.1" style="shape-rendering:geometricPrecision; text-rendering:geometricPrecision; image-rendering:optimizeQuality; fill-rule:evenodd; clip-rule:evenodd"
viewBox="0 0 1.01 1.01"
 xmlns:xlink="http://www.w3.org/1999/xlink"
 xmlns:xodm="http://www.corel.com/coreldraw/odm/2003">
 <defs>
  <style type="text/css">
   <![CDATA[
    .fil0 {fill:white}
   ]]>
  </style>
 </defs>
 <g id="Слой_x0020_1">
  <metadata id="CorelCorpID_0Corel-Layer"/>
  <path class="fil0" d="M0.16 0l0.7 0c0.08,0 0.15,0.07 0.15,0.16l0 0.7c0,0.08 -0.07,0.15 -0.15,0.15l-0.7 0c-0.09,0 -0.16,-0.07 -0.16,-0.15l0 -0.7c0,-0.09 0.07,-0.16 0.16,-0.16zm0.34 0.71l0.04 0c0,0 0.01,0 0.02,-0.01 0,-0.01 0,-0.02 0,-0.02 0,0 0,-0.05 0.03,-0.06 0.02,-0.01 0.06,0.05 0.09,0.08 0.03,0.01 0.05,0.01 0.05,0.01l0.09 0c0,0 0.05,0 0.03,-0.04 -0.01,0 -0.02,-0.03 -0.07,-0.08 -0.06,-0.06 -0.05,-0.05 0.02,-0.14 0.04,-0.06 0.06,-0.09 0.05,-0.11 0,-0.01 -0.03,-0.01 -0.03,-0.01l-0.11 0c0,0 -0.01,0 -0.01,0.01 -0.01,0 -0.01,0.01 -0.01,0.01 0,0 -0.02,0.04 -0.04,0.08 -0.05,0.08 -0.07,0.08 -0.07,0.08 -0.02,-0.01 -0.02,-0.05 -0.02,-0.07 0,-0.08 0.02,-0.11 -0.02,-0.12 -0.01,0 -0.02,0 -0.05,0 -0.03,0 -0.07,0 -0.08,0 -0.02,0.01 -0.03,0.02 -0.02,0.02 0.01,0 0.02,0.01 0.03,0.02 0.01,0.01 0.01,0.05 0.01,0.05 0,0 0.01,0.09 -0.01,0.1 -0.02,0.01 -0.04,-0.01 -0.08,-0.08 -0.02,-0.04 -0.03,-0.08 -0.03,-0.08 0,0 -0.01,-0.01 -0.01,-0.01 -0.01,-0.01 -0.02,-0.01 -0.02,-0.01l-0.1 0c0,0 -0.01,0 -0.02,0.01 0,0.01 0,0.02 0,0.02 0,0 0.08,0.18 0.17,0.27 0.08,0.09 0.17,0.08 0.17,0.08z"/>
 </g>
</svg>
