<?xml version="1.0" encoding="UTF-8"?>
<!DOCTYPE svg PUBLIC "-//W3C//DTD SVG 1.1//EN" "http://www.w3.org/Graphics/SVG/1.1/DTD/svg11.dtd">
<!-- Creator: CorelDRAW 2020 (64-Bit) -->
<svg xmlns="http://www.w3.org/2000/svg" xml:space="preserve" width="158px" height="512px" version="1.1" style="shape-rendering:geometricPrecision; text-rendering:geometricPrecision; image-rendering:optimizeQuality; fill-rule:evenodd; clip-rule:evenodd"
viewBox="0 0 17.22 55.92"
 xmlns:xlink="http://www.w3.org/1999/xlink"
 xmlns:xodm="http://www.corel.com/coreldraw/odm/2003">
 <defs>
  <style type="text/css">
   <![CDATA[
    .fil0 {fill:#FFD899}
   ]]>
  </style>
 </defs>
 <g id="Слой_x0020_1">
  <metadata id="CorelCorpID_0Corel-Layer"/>
  <path class="fil0" d="M2.64 46.97c-0.02,-0.01 -0.04,-0.01 -0.06,-0.02 -1.03,-2.72 -0.73,-2.73 0.16,-2.99 -0.02,-0.31 -0.08,-0.5 -0.05,-0.67 -0.11,-0.02 -0.08,-0.04 -0.15,-0.16 -0.84,-0.05 -1.96,-0.12 -2.53,-0.69 -0.1,-1.47 1.3,-1 1.57,-1.58 -0.39,-0.12 -0.72,-0.38 -0.82,-0.67 -0.17,-0.45 0.09,-0.93 0.61,-0.6 0.11,0.13 0.24,0.18 0.29,0.39 0.11,0.37 -0.08,1.07 0.55,0.66 -0.08,-0.61 -0.57,-2.03 -0.35,-2.31 0.06,0.06 0.01,0.02 0.1,0.05 -0.03,0.4 0.22,1.7 0.34,2.14 0.25,-0.12 0.97,-0.92 1.08,-1.25 -0.27,-0.3 -0.48,-0.55 -0.75,-0.85 -0.37,-0.19 -0.81,-0.14 -1.13,-0.36 -0.01,0 -0.01,-0.01 -0.01,-0.02 0.05,-0.06 0.09,-0.11 0.14,-0.16 0.27,0.07 0.46,0.1 0.73,0.17 0.38,-0.34 0.71,-0.62 1.33,-0.78 0.04,-0.01 0.69,-0.03 1.22,0.02 0.07,-0.52 -0.32,-1.78 -0.54,-1.86 -0.13,0.06 -0.34,0.15 -0.6,0.41 -0.37,0.35 -0.74,0.97 -0.93,1.08 0.22,-0.41 0.45,-0.82 0.67,-1.22 0.42,-0.37 0.91,-0.38 1.01,-0.95 -0.15,-0.31 -0.39,-0.5 -0.61,-0.74 0.06,-0.38 0.2,-0.65 0.66,-0.58 0.14,0.18 0.31,0.31 0.39,0.56 -0.12,0.16 -0.25,0.33 -0.37,0.49 0.16,0.46 0.25,0.46 0.43,0.64 0.41,0 0.63,0.13 0.84,0.22 0.35,0.14 0.56,0.32 0.77,0.69 -0.03,0.01 -0.06,0.02 -0.09,0.03 -0.3,-0.45 -0.98,-0.64 -1.6,-0.73 0.11,0.65 0.22,1.56 0.6,2.12 0.55,0.17 1.05,0.09 2.12,1.51 0.13,0.13 0.36,0.11 0.49,0.25 0,0.01 0,0.02 0,0.03 -0.01,0 -0.02,0 -0.03,0 -0.8,-0.17 -0.86,-0.67 -1.43,-1.04 -0.31,-0.21 -1.14,-0.38 -1.39,-0.41 -0.72,2.08 0.11,1.35 -0.17,3.72 -0.01,0 -0.02,0 -0.03,0 -0.05,-0.01 -0.11,-0.01 -0.17,-0.02 -0.04,-0.18 -0.58,-0.17 -1.16,-0.27 -0.61,-0.11 -1.28,-0.33 -1.39,-0.24 -0.05,0.04 -0.09,0.08 -0.14,0.12 0.06,0.28 0.26,0.38 0.37,0.59 0.19,0.39 0.18,0.84 0.4,1.17 0.52,0.09 1.54,0.21 1.54,0.59 0.15,0.22 0.05,0.04 -0.08,0.18 0.13,0.19 0.14,0.28 0.04,0.47 -0.05,-0.03 -0.09,-0.07 -0.13,-0.1 -0.16,-0.6 -0.55,-0.78 -1.28,-0.8 -0.01,0.01 -0.02,0.02 -0.03,0.03 0.02,0.22 0.03,0.43 0.05,0.64 0.33,-0.02 0.9,0.02 1.15,0.21 0.2,0.15 0.87,2.06 0.78,2.34 -0.06,-0.02 -0.02,0.03 -0.06,-0.03 -0.05,0.01 -0.01,0.04 -0.05,0.01 -0.11,-0.08 -0.74,-1.72 -1,-2.06 -0.13,-0.01 -0.75,-0.11 -0.82,-0.03 0.08,0.2 -0.08,0.15 -0.22,0.22 -0.01,-0.08 -0.03,-0.15 -0.04,-0.23 -0.01,0 -0.02,0 -0.03,0 -0.21,0.05 -0.51,0.15 -0.59,0.31 -0.14,0.18 0.49,1.98 0.4,2.36zm0.08 -8.79l2.1 1.9c0,0 -0.19,-0.54 -0.15,-0.87 0.05,-0.32 0.2,-1.25 0.28,-1.34l-0.63 0.7 -0.59 0.5c-0.46,-0.33 -0.32,0.24 1.15,-1.34 -0.01,-0.03 -0.01,-0.12 -0.01,-0.15 -0.04,0.1 -1.59,-0.45 -2.15,0.6zm-0.24 2.46c0.24,-0.15 0.78,-0.92 0.98,-1.09 0.02,0 0.04,0 0.06,0 0.45,0.35 0.9,0.71 1.36,1.07 0,0.02 0,0.05 0,0.08 -0.01,0 -0.03,0.01 -0.05,0.01 -0.76,0.16 -1.66,0.41 -2.35,-0.07zm-0.73 0.55c-0.3,0.16 -0.61,0.19 -0.95,0.34 -1.44,1.04 0.83,1.31 1.57,1.32 0.01,-0.01 0.02,-0.02 0.03,-0.03 -0.04,-0.63 -0.26,-1.2 -0.53,-1.6 -0.03,0 -0.09,-0.03 -0.12,-0.03z"/>
  <path class="fil0" d="M13.6 21.54c0,0.37 0.01,0.67 -0.22,0.94 -0.28,0.31 -0.34,0.4 -0.31,0.84 -0.21,0.09 -0.32,0.29 -0.73,0.11 -0.11,-0.04 -0.33,-0.11 -0.44,-0.11 -0.84,0.05 -1.83,1.4 -2.67,1.7 -0.39,0.13 -0.75,0.29 -1.08,0.48 -0.18,0.11 -0.23,0.32 -0.31,0.5l-0.33 0.85c-0.05,0.12 -0.1,0.28 -0.18,0.39 -0.04,0.07 -0.27,0.23 -0.25,0.25 0.03,0.05 0.09,0.1 0.14,0.13 0.1,-0.07 0.32,-0.35 0.41,-0.59 0.09,-0.26 0.23,-0.63 0.33,-0.93 0.08,-0.27 0.2,-0.15 0.22,0.07 0.01,0.23 0.1,0.28 0.22,0.42 -0.08,0.18 0.09,0.25 -0.08,0.38 -0.08,0.06 -0.1,-0.02 -0.09,0.12 0.01,0.09 -0.04,0.21 -0.12,0.23 -0.02,0.01 0.03,0.24 -0.01,0.37 -0.02,0.1 -0.17,0.38 -0.11,0.38 0.15,-0.01 0.13,0.15 0.24,-0.21 0.08,-0.27 0.06,-0.41 0.22,-0.66 0.05,-0.06 0.12,-0.19 0.18,-0.26 0.05,-0.06 0.19,-0.16 0.26,-0.21 0.06,0.11 0.02,0.17 0.03,0.3 0.01,0.18 0.06,0.36 0.15,0.46 0.05,0.07 0.11,0.1 0.13,0.19 0.01,0.04 0.02,0.25 0.05,0.24 0.05,-0.01 0.07,0 0.11,0 -0.05,-0.08 0.02,-0.26 -0.04,-0.36 -0.09,-0.13 -0.09,-0.21 -0.11,-0.43 -0.01,-0.15 0.05,-0.37 0.08,-0.5 0.09,0.15 0.25,-0.06 0.3,-0.03 0.07,0.03 0.11,0.03 0.16,0.1 0.04,0.06 0.01,0.15 0.11,0.14 0.04,-0.01 0.08,-0.03 0.08,-0.07 0,-0.09 -0.01,-0.1 -0.06,-0.18 -0.01,-0.01 -0.02,-0.01 -0.02,-0.03 -0.01,-0.02 -0.01,-0.02 -0.01,-0.04 0.31,-0.05 0.58,-0.02 0.86,-0.04 0.28,-0.02 1.02,-0.17 1.24,-0.06 0.07,0.03 0.17,0.22 0.21,0.41 0.06,0.25 0.06,0.5 0.17,0.44 0.05,-0.09 0.1,-0.21 0.09,-0.39 -0.02,-0.17 -0.16,-0.86 0.14,-0.88 0.1,0.02 0.5,0.14 0.63,0.19 0.1,0.04 0.18,0.11 0.28,0.14 0.07,0.02 0.19,0.07 0.24,0.08 0.04,-0.04 0.09,-0.09 0.1,-0.14 0,-0.02 0,0 0.01,-0.02 -0.22,0.01 -0.37,-0.12 -0.56,-0.23 -0.07,-0.04 -0.14,-0.07 -0.21,-0.13 -0.03,-0.02 -0.18,-0.06 -0.24,-0.11 0.02,-0.1 0.01,-0.22 0.07,-0.3 0.13,-0.19 0.36,-0.25 0.33,-0.42 -0.05,-0.21 0.24,-0.23 0.36,-0.39 0.04,-0.06 0.11,-0.03 0.18,-0.03 0.1,-0.01 0.21,-0.05 0.31,-0.1 0.32,-0.17 0.57,-0.18 0.73,-0.37 0.1,-0.13 0.17,-0.35 0.11,-0.72 -0.18,-0.08 -0.39,-0.05 -0.59,-0.08 -0.09,-0.02 -0.17,-0.06 -0.27,-0.09 -0.03,-0.01 -0.1,0.02 -0.15,0.01 -0.02,0 -0.13,0 -0.13,0 -0.19,-0.24 0.25,-0.58 0.38,-0.7 0.21,-0.19 0.28,-0.53 0.33,-0.82 -0.24,0.24 -0.15,0.57 -0.54,0.8 -0.26,0.15 -0.48,0.39 -0.46,0.71 -0.06,0 -0.05,0.03 -0.15,0.02 -0.1,-0.31 0.19,-0.67 0.3,-0.87 0.1,-0.2 0.03,-0.75 -0.02,-0.89zm0.28 1.87c-0.02,0 0,0.04 0.02,0.05 0.03,0.03 0.17,0.05 0.17,-0.01 0,-0.02 -0.01,-0.03 -0.02,-0.04 -0.07,-0.02 -0.11,0 -0.17,0zm-0.54 0.01c0,0.14 -0.01,0.25 0.04,0.39 0.04,0.11 0.23,0.55 0.35,0.55 0.2,-0.01 0.46,-0.05 0.69,-0.13 0.07,-0.03 0.17,-0.06 0.22,-0.1 0.09,-0.06 0.04,-0.09 -0.02,-0.08 -0.07,0.01 -0.18,0.08 -0.2,0.06 -0.09,-0.08 -0.43,0.14 -0.48,0.05 0.01,-0.25 0.27,-0.26 0.4,-0.22 0.1,0.03 0.12,0.07 0.22,0.01 0.05,-0.02 0.17,-0.01 0.18,-0.05l0.01 -0.13c0.01,-0.08 0.05,-0.16 0.04,-0.23 -0.05,-0.01 -0.12,0.01 -0.16,-0.02 -0.02,0 -0.11,-0.01 -0.13,-0.01 -0.06,0 -0.12,-0.01 -0.18,-0.01 -0.03,0 -0.12,0.02 -0.2,-0.02 0.01,0.07 -0.27,0.2 -0.32,0.12 -0.05,-0.07 -0.06,-0.11 0,-0.16 -0.09,-0.01 -0.2,0.03 -0.29,0 -0.06,-0.03 -0.12,-0.04 -0.17,-0.02zm-5.04 2.31c0.02,0.17 0.12,0.87 0.3,0.86l0.12 0.02c0.82,-0.22 2.07,-0.32 3.01,-0.43 0.65,-0.07 0.51,-0.59 0.9,-0.75 0.33,-0.14 0.23,-0.4 0.37,-0.5l0.57 -0.41c-0.15,-0.09 -0.2,-0.08 -0.24,-0.24 -0.02,-0.1 -0.06,-0.12 -0.12,-0.18 -0.07,-0.07 0.08,-0.13 0.02,-0.18 -0.07,-0.06 -0.12,-0.09 -0.06,-0.2 0.07,-0.14 -0.05,-0.11 -0.03,-0.22 -0.86,0.34 -0.94,-0.13 -1.39,0 -0.26,0.08 -0.58,0.34 -1.04,0.65 -0.26,0.17 -0.91,0.71 -1.17,0.85 -0.27,0.14 -1.2,0.53 -1.24,0.73z"/>
  <path class="fil0" d="M7.3 11.96c0.01,0.06 0.06,0.11 0.12,0.12 0.09,0.02 0.23,-0.11 0.14,-0.22 -0.05,-0.08 -0.26,-0.01 -0.26,0.1zm-0.32 0.26c0.12,0.17 0.17,0.21 0.47,0.25 0.24,0.03 0.57,-0.3 0.5,-0.7 -0.05,-0.24 -0.06,-0.12 -0.27,-0.27 -0.4,-0.29 -0.98,0.3 -0.7,0.72zm0.16 -0.44c0.1,-0.08 0.18,-0.2 0.46,-0.11 0.17,0.05 0.18,0.57 -0.07,0.63 -0.07,0.02 -0.1,-0.07 -0.21,-0.04 -0.04,0.02 -0.24,-0.23 -0.22,-0.26 0.04,-0.05 0.05,-0.21 0.04,-0.22zm0.83 -0.96c0.07,-0.01 0.08,0 0.12,-0.04 0.04,-0.04 0.09,-0.09 0.13,-0.13 0.02,-0.01 0.04,-0.04 0.08,-0.05 0,0 0.09,0 0.07,-0.01 0.05,0.12 -0.05,0.38 -0.05,0.34 0.08,0.15 0.27,0.45 0.3,0.81 0.03,0.26 0,0.45 -0.08,0.69 -0.05,0.18 0.22,0.51 0.21,0.52 0.01,0.07 -0.23,0.04 -0.27,0.01 -0.1,-0.09 -0.23,-0.05 -0.37,-0.01 -0.2,0.06 -0.43,0.15 -0.62,0.17 -0.15,0.01 -0.4,-0.06 -0.55,-0.11 -0.01,0 -0.02,0.06 -0.08,0.1 -0.03,0.02 -0.11,0 -0.15,0.01 -0.03,0.01 -0.03,0.05 -0.05,0.06 -0.07,0.05 -0.15,0.01 -0.14,0.01 -0.07,-0.15 0.12,-0.45 -0.01,-0.59 -0.21,-0.22 -0.2,-0.5 -0.23,-0.83 -0.01,-0.11 0.14,-0.35 0.05,-0.43 -0.06,-0.05 -0.18,-0.14 -0.23,-0.32 0.18,-0.12 0.34,0.04 0.47,0.03 0.08,-0.01 0.29,-0.11 0.37,-0.16 0.34,-0.23 0.79,-0.1 1.03,-0.07zm-1.45 1.25c0.04,0.54 0.27,0.72 0.73,0.86 0.1,0.03 0.38,-0.02 0.46,-0.06 0.28,-0.13 0.38,-0.08 0.56,-0.33 0.17,-0.26 0.28,-0.74 0.1,-1.13 -0.24,-0.51 -0.9,-0.56 -1.32,-0.4 -0.25,0.1 -0.46,0.26 -0.53,0.52 -0.05,0.15 -0.02,0.34 0,0.54z"/>
  <path class="fil0" d="M5.95 54.64c0.04,0.05 0.15,0.13 0.23,0.09 0.16,-0.08 0.19,-0.15 0.11,-0.31 -0.14,-0.26 -0.57,-0.06 -0.34,0.22zm0.48 -0.36c0.05,0.13 0.04,0.28 0.01,0.41 0.01,0 0.43,0.44 0.45,0.38 0.14,-0.13 0.22,-0.38 0.21,-0.63 -0.02,-0.15 -0.11,-0.55 -0.24,-0.6 -0.13,0.12 -0.32,0.33 -0.43,0.44zm-0.81 0.91c0.05,-0.06 0.13,-0.21 0.33,-0.38 0.16,0.07 0.31,0.01 0.42,0.01 0.05,0.08 0.38,0.33 0.37,0.43 -0.24,0.14 -0.96,0.19 -1.12,-0.06zm0.17 -0.88c-0.01,0.07 -0.11,0.25 0.02,0.42 -0.07,0.11 -0.22,0.27 -0.31,0.34 -0.12,0.09 -0.25,-0.34 -0.26,-0.46 -0.02,-0.22 -0.01,-0.49 0.14,-0.62 0.09,0.09 0.41,0.28 0.41,0.32zm-0.32 -0.48c0.05,0.07 0.36,0.36 0.43,0.37 0.25,-0.08 0.34,0.02 0.4,0.03 0.11,-0.1 0.33,-0.31 0.41,-0.46 0.01,-0.07 -0.05,-0.11 -0.24,-0.13 -0.29,-0.03 -0.61,-0.08 -1,0.19zm-0.06 -0.15c0.45,-0.25 0.86,-0.24 1.34,-0.14 0.14,-0.08 0.36,-0.28 0.54,-0.45 0.13,-0.13 0.28,-0.3 0.32,-0.25 -0.06,0.24 -0.47,0.5 -0.63,0.83 0,0.06 0.04,0.13 0.08,0.18 0.25,0.34 0.28,0.94 -0.01,1.29 0.05,0.1 0.26,0.28 0.41,0.39 0.09,0.06 0.14,0.11 0.21,0.19 0.02,0.03 0.03,0.07 0.07,0.09 0.06,0.04 0.02,0.09 0.01,0.11 -0.15,0 -0.83,-0.67 -0.96,-0.56 -0.27,0.17 -1.02,0.19 -1.33,-0.05 -0.11,0.05 -0.29,0.17 -0.37,0.27 -0.09,0.11 -0.23,0.28 -0.39,0.29 0.05,-0.11 0.22,-0.32 0.34,-0.39 0.07,-0.05 0.1,-0.12 0.17,-0.17 0.08,-0.06 0.09,-0.09 0.05,-0.18 -0.01,-0.11 -0.11,-0.19 -0.13,-0.3 -0.03,-0.16 -0.07,-0.28 -0.08,-0.44 -0.01,-0.15 0.19,-0.46 0.14,-0.53 -0.07,-0.08 -0.13,-0.12 -0.22,-0.18 -0.12,-0.07 -0.14,-0.2 -0.28,-0.26 -0.06,-0.03 -0.11,-0.09 -0.16,-0.13 -0.03,-0.03 -0.09,-0.05 -0.09,-0.07 0,-0.19 0.33,0.11 0.62,0.31 0.16,0.11 0.31,0.18 0.35,0.15z"/>
  <path class="fil0" d="M14.59 52.8c-0.01,0.07 0.06,0.42 0.07,0.52 0.01,0.2 0.04,0.24 0.05,0.38 0.02,0.26 0.14,0.71 0.08,0.95 0.01,-0.01 -0.29,0.06 -0.34,0.06 -0.08,0.01 -0.16,0.01 -0.24,0.03 -0.17,0.04 -0.31,0.04 -0.48,0.06 -0.13,0.01 -0.2,0.03 -0.27,0.04 -0.13,0.01 -0.5,0.06 -0.58,0.04 -0.06,-0.11 -0.05,-0.51 -0.06,-0.59 -0.01,-0.15 -0.01,-0.23 -0.07,-0.36 -0.09,-0.21 0,-0.71 -0.08,-0.91 0.16,-0.14 0.68,-0.1 0.91,-0.14 0.18,-0.03 0.86,-0.14 1.01,-0.08zm-2.29 -0.02c0.13,-0.08 0.33,0.06 0.66,0.02l0.99 -0.11c0.19,-0.02 0.47,-0.05 0.6,-0.1 0.12,-0.04 0.26,-0.17 0.36,-0.16 0.01,0.05 -0.04,0.2 -0.13,0.37 -0.01,0.21 0,0.57 0.07,0.8 0.09,0.25 0.08,0.53 0.12,0.74 0.04,0.19 0.12,0.36 0.22,0.49l-0.03 0.06c-0.09,0.01 -0.25,-0.02 -0.33,-0.06 -0.03,-0.01 -0.25,-0.02 -0.28,-0.02 -0.04,0 -0.07,0.05 -0.07,0.04 -0.02,0.03 -0.35,0.02 -0.44,0.04 -0.28,0.04 -0.5,0.08 -0.77,0.1 -0.13,0.01 -0.15,0.01 -0.23,0.07 -0.03,0.02 -0.38,0.21 -0.41,0.14 -0.02,-0.21 0.01,-0.25 0.07,-0.45 0.05,-0.13 -0.09,-0.51 -0.08,-0.66 0.01,-0.22 -0.05,-0.41 -0.07,-0.63 0,-0.08 -0.04,-0.34 -0.08,-0.42 -0.05,-0.1 -0.17,-0.17 -0.17,-0.26zm0.75 0.49c-0.04,0.18 0.08,1.1 0.16,1.22 0.11,0.04 1.02,-0.11 1.2,-0.12 0,-0.11 -0.05,-0.18 -0.05,-0.3 0.01,-0.13 0.03,-0.32 -0.03,-0.44 -0.06,-0.11 0.03,-0.37 -0.05,-0.46 -0.16,-0.09 -0.46,0.01 -0.65,0.02 -0.12,0.01 -0.52,0.02 -0.58,0.08zm-0.11 -0.12c-0.02,0.02 -0.05,0.04 -0.06,0.06 -0.03,0.1 0.07,0.19 -0.01,0.27 -0.04,0.04 0.07,0.12 0.04,0.22 -0.03,0.11 0.01,0.13 0.02,0.2 0.02,0.15 0.05,0.31 0.06,0.45 0,0.06 0.08,0.32 0.08,0.32 0.14,-0.02 0.57,-0.06 0.76,-0.08 0.11,0 0.3,0 0.4,-0.05 0.04,-0.02 0.16,-0.02 0.2,-0.02 0.1,-0.01 0.14,-0.06 0.13,-0.06 0.03,-0.07 -0.07,-0.87 -0.09,-0.92 -0.04,-0.08 -0.05,-0.47 -0.06,-0.56 -0.1,-0.04 -0.58,0.02 -0.7,0.04 -0.34,0.08 -0.63,0.05 -0.77,0.13zm0.71 0.73c0.08,0.06 0.18,-0.01 0.19,-0.06 0.01,-0.08 -0.04,-0.1 -0.08,-0.11 -0.02,-0.01 -0.04,-0.02 -0.06,-0.02 -0.08,0.01 -0.12,0.14 -0.05,0.19zm-0.12 -0.31c-0.07,0.06 -0.1,0.34 -0.01,0.41 0.05,0.05 0.17,0.09 0.26,0.07 0.09,-0.02 0.2,-0.03 0.19,-0.15 0,-0.06 0.01,-0.14 0,-0.2 -0.01,-0.07 -0.11,-0.16 -0.17,-0.17 -0.09,-0.02 -0.19,-0.02 -0.27,0.04zm-0.14 0.47c0.14,0.12 0.27,0.18 0.46,0.12 0.17,-0.05 0.2,-0.07 0.25,-0.23 0.03,-0.09 -0.01,-0.48 -0.11,-0.48 -0.1,-0.01 -0.03,-0.02 -0.1,-0.05 -0.27,-0.11 -0.56,0.1 -0.59,0.35 -0.01,0.09 -0.01,0.2 0.09,0.29z"/>
  <path class="fil0" d="M12.85 2.13c0.01,0.1 0.08,0.17 0.18,0.19 0.14,0.03 0.35,-0.18 0.22,-0.35 -0.08,-0.12 -0.41,-0.01 -0.4,0.16zm-0.51 0.4c0.18,0.28 0.26,0.34 0.73,0.39 0.38,0.05 0.9,-0.47 0.78,-1.08 -0.07,-0.38 -0.09,-0.2 -0.42,-0.43 -0.62,-0.45 -1.52,0.47 -1.09,1.12zm0.25 -0.68c0.15,-0.12 0.28,-0.31 0.73,-0.17 0.26,0.08 0.28,0.9 -0.11,0.99 -0.13,0.02 -0.17,-0.12 -0.33,-0.06 -0.07,0.02 -0.39,-0.36 -0.35,-0.41 0.06,-0.09 0.08,-0.34 0.06,-0.35zm1.29 -1.5c0.11,-0.01 0.13,0 0.19,-0.06 0.07,-0.06 0.14,-0.15 0.21,-0.2 0.03,-0.02 0.06,-0.06 0.12,-0.07 0,0 0.14,0 0.12,-0.02 0.08,0.19 -0.09,0.59 -0.08,0.53 0.12,0.23 0.42,0.7 0.47,1.26 0.04,0.41 -0.01,0.7 -0.12,1.08 -0.09,0.28 0.33,0.79 0.31,0.81 0.02,0.11 -0.36,0.07 -0.42,0.01 -0.16,-0.13 -0.35,-0.07 -0.57,-0.01 -0.32,0.09 -0.68,0.24 -0.97,0.26 -0.23,0.02 -0.63,-0.09 -0.86,-0.16 -0.01,0 -0.03,0.08 -0.12,0.14 -0.05,0.03 -0.17,0.01 -0.24,0.03 -0.05,0.02 -0.05,0.07 -0.08,0.09 -0.11,0.07 -0.22,0.02 -0.22,0.02 -0.1,-0.24 0.19,-0.71 -0.02,-0.93 -0.33,-0.35 -0.31,-0.78 -0.35,-1.3 -0.01,-0.17 0.22,-0.54 0.07,-0.67 -0.09,-0.08 -0.27,-0.21 -0.34,-0.49 0.27,-0.19 0.52,0.06 0.72,0.04 0.13,-0.01 0.46,-0.18 0.58,-0.25 0.53,-0.36 1.23,-0.16 1.6,-0.11zm-2.26 1.96c0.06,0.83 0.42,1.11 1.14,1.33 0.16,0.05 0.59,-0.02 0.73,-0.09 0.43,-0.2 0.59,-0.12 0.86,-0.52 0.28,-0.4 0.44,-1.15 0.16,-1.75 -0.38,-0.8 -1.4,-0.89 -2.05,-0.63 -0.4,0.15 -0.73,0.41 -0.84,0.81 -0.07,0.24 -0.02,0.54 0,0.85z"/>
  <path class="fil0" d="M9.65 19.2c0.01,0.07 0.06,0.11 0.12,0.13 0.1,0.02 0.24,-0.12 0.15,-0.23 -0.06,-0.08 -0.27,-0.01 -0.27,0.1zm-0.33 0.27c0.12,0.18 0.17,0.22 0.48,0.25 0.25,0.03 0.59,-0.3 0.51,-0.71 -0.05,-0.24 -0.06,-0.12 -0.27,-0.28 -0.41,-0.29 -1,0.31 -0.72,0.74zm0.17 -0.45c0.1,-0.08 0.18,-0.2 0.47,-0.11 0.17,0.05 0.19,0.58 -0.07,0.64 -0.08,0.02 -0.11,-0.07 -0.21,-0.04 -0.05,0.02 -0.26,-0.23 -0.23,-0.26 0.03,-0.06 0.05,-0.22 0.04,-0.23zm0.84 -0.98c0.07,-0.01 0.09,0 0.13,-0.04 0.04,-0.04 0.09,-0.1 0.13,-0.13 0.02,-0.02 0.04,-0.04 0.08,-0.05 0,0 0.09,0 0.08,-0.01 0.05,0.12 -0.06,0.38 -0.06,0.35 0.09,0.15 0.28,0.45 0.31,0.82 0.03,0.27 0,0.46 -0.08,0.71 -0.05,0.18 0.22,0.52 0.21,0.53 0.01,0.07 -0.24,0.04 -0.28,0.01 -0.1,-0.09 -0.23,-0.05 -0.37,-0.01 -0.21,0.06 -0.45,0.15 -0.63,0.17 -0.16,0.01 -0.42,-0.06 -0.57,-0.11 0,0 -0.01,0.06 -0.08,0.1 -0.03,0.02 -0.11,0 -0.15,0.01 -0.04,0.01 -0.03,0.05 -0.06,0.07 -0.07,0.04 -0.14,0.01 -0.14,0.01 -0.06,-0.16 0.12,-0.47 -0.01,-0.61 -0.22,-0.23 -0.21,-0.51 -0.23,-0.85 -0.01,-0.12 0.14,-0.36 0.05,-0.44 -0.06,-0.05 -0.18,-0.14 -0.23,-0.32 0.18,-0.12 0.34,0.04 0.47,0.03 0.09,-0.01 0.3,-0.12 0.38,-0.17 0.35,-0.23 0.81,-0.1 1.05,-0.07zm-1.48 1.28c0.04,0.55 0.28,0.73 0.75,0.87 0.1,0.03 0.39,-0.01 0.47,-0.05 0.28,-0.14 0.39,-0.09 0.57,-0.34 0.18,-0.27 0.29,-0.76 0.1,-1.15 -0.24,-0.52 -0.91,-0.58 -1.34,-0.42 -0.26,0.11 -0.47,0.27 -0.55,0.54 -0.04,0.15 -0.01,0.35 0,0.55z"/>
  <path class="fil0" d="M14.88 12.2l0.05 0.67c0.01,0.23 0,0.44 0.04,0.65 0.13,-0.03 0.42,-0.02 0.65,-0.07 0.09,-0.02 0.37,-0.05 0.46,-0.06 0.06,0 0.35,-0.05 0.34,-0.04 0.03,-0.21 -0.04,-0.47 -0.07,-0.7l-0.05 -0.39c-0.01,-0.06 -0.02,-0.14 -0.03,-0.2 0,-0.03 -0.03,-0.03 -0.05,-0.08 -0.36,0.01 -0.6,0.09 -0.74,0.1 -0.2,0.02 -0.43,0.06 -0.6,0.12zm-0.17 -0.17c0.16,0.02 0.77,-0.14 1.05,-0.18 0.15,-0.03 0.35,-0.01 0.49,-0.09 0.02,-0.02 0.01,-0.05 0.03,-0.07 0.01,-0.02 0.04,-0.02 0.05,-0.04 0.01,-0.04 -0.01,-0.07 -0.01,-0.12 -0.01,-0.07 0,-0.19 0,-0.25 0.02,-0.03 0.05,-0.04 0.1,-0.02 0.05,0.02 -0.01,0.22 0.05,0.27 0.06,0.05 0.26,-0.15 0.35,-0.1 0.02,0.02 0.04,0.06 0.03,0.08 -0.06,0.06 -0.3,0.18 -0.34,0.2 -0.19,0.1 0.02,1.01 0.03,1.17 0.02,0.24 0.02,0.42 0.2,0.54 0.07,0.05 0.35,0.05 0.46,0.06 0.02,0.03 0.03,0.07 0.02,0.1 -0.05,0.06 -0.47,-0.11 -0.35,0.18 0.03,0.06 0.04,0.12 0.04,0.16 -0.02,0.04 -0.08,0.05 -0.13,0.02 -0.02,-0.04 -0.06,-0.11 -0.08,-0.19 -0.02,-0.06 -0.07,-0.12 -0.13,-0.17 -0.03,-0.02 -0.05,-0.05 -0.08,-0.05 -0.39,0.01 -1.23,0.15 -1.56,0.18 -0.05,0.01 -0.05,0.07 -0.07,0.1 -0.02,0.03 -0.06,0.04 -0.07,0.08 -0.04,0.17 -0.05,0.32 -0.05,0.42 -0.05,0.05 -0.11,0.08 -0.14,0.02 -0.04,-0.1 0,-0.33 -0.08,-0.32 -0.18,0.01 -0.33,0.04 -0.37,0.02 -0.01,-0.01 -0.04,-0.09 0.01,-0.13 0.1,-0.03 0.28,-0.04 0.43,-0.09 0.09,-0.04 0.17,-0.15 0.2,-0.2 0.05,-0.1 -0.1,-1.35 -0.17,-1.46 -0.02,-0.03 -0.07,-0.07 -0.14,-0.08 -0.13,-0.01 -0.32,0.03 -0.37,0.03 -0.04,-0.02 -0.04,-0.1 -0.01,-0.11 0.11,-0.06 0.33,0 0.3,-0.15 -0.03,-0.12 -0.06,-0.16 -0.06,-0.22 0.02,-0.05 0.06,-0.09 0.1,-0.08 0.05,0.03 0.13,0.46 0.27,0.49zm0.64 0.51c-0.02,0.1 0.01,0.23 0.02,0.33 0,0.01 0.01,0.07 0.01,0.07 0.01,0.03 0.08,0.01 0.14,0 0.08,0 0.17,-0.02 0.26,-0.02 0.01,0 0.06,-0.01 0.06,0 -0.02,-0.05 -0.01,-0.12 -0.01,-0.18 -0.01,-0.05 -0.02,-0.1 -0.02,-0.15 0,-0.01 -0.02,-0.1 -0.02,-0.11 -0.08,0.03 -0.14,0.03 -0.23,0.03 -0.07,0.01 -0.13,0.02 -0.21,0.03zm-0.23 -0.23c0.12,0.01 0.08,0.06 0.18,0.09 0.06,0.02 0.17,0 0.26,-0.01 0.08,-0.01 0.2,-0.02 0.27,-0.05 0.04,-0.02 0.11,-0.13 0.16,-0.12 0.03,0.08 -0.04,0.13 -0.04,0.21 -0.01,0.11 0,0.23 0.01,0.34 0.01,0.12 0.01,0.13 0.09,0.19 0.07,0.05 0.1,0.17 0.08,0.2 -0.1,0.02 -0.14,-0.08 -0.26,-0.07l-0.44 0.03c-0.06,0 -0.18,0.17 -0.25,0.15 -0.02,-0.08 0.08,-0.24 0.07,-0.27 -0.04,-0.1 -0.03,-0.35 -0.05,-0.45 -0.03,-0.11 -0.08,-0.15 -0.08,-0.24z"/>
  <path class="fil0" d="M8.74 44.18c0.01,0.07 0.06,0.12 0.12,0.13 0.09,0.02 0.23,-0.11 0.15,-0.23 -0.06,-0.07 -0.28,-0.01 -0.27,0.1zm-0.33 0.27c0.12,0.18 0.17,0.22 0.48,0.26 0.25,0.03 0.59,-0.31 0.51,-0.71 -0.05,-0.25 -0.06,-0.13 -0.28,-0.29 -0.4,-0.29 -0.99,0.32 -0.71,0.74zm0.17 -0.45c0.09,-0.08 0.18,-0.2 0.47,-0.11 0.17,0.06 0.18,0.59 -0.07,0.65 -0.08,0.01 -0.11,-0.08 -0.22,-0.04 -0.04,0.01 -0.25,-0.24 -0.23,-0.27 0.04,-0.06 0.06,-0.22 0.05,-0.23zm0.84 -0.98c0.07,0 0.08,0 0.12,-0.03 0.05,-0.05 0.09,-0.1 0.14,-0.14 0.02,-0.01 0.04,-0.04 0.08,-0.05 0,0 0.09,0 0.07,-0.01 0.06,0.12 -0.05,0.39 -0.05,0.35 0.08,0.15 0.28,0.46 0.31,0.82 0.03,0.27 -0.01,0.46 -0.08,0.71 -0.06,0.18 0.22,0.52 0.21,0.53 0.01,0.07 -0.24,0.04 -0.28,0.01 -0.1,-0.09 -0.23,-0.05 -0.37,-0.01 -0.21,0.06 -0.45,0.16 -0.64,0.17 -0.15,0.01 -0.41,-0.06 -0.56,-0.11 -0.01,0 -0.02,0.06 -0.08,0.1 -0.03,0.02 -0.11,0 -0.15,0.02 -0.04,0.01 -0.04,0.04 -0.06,0.06 -0.07,0.04 -0.14,0.01 -0.14,0.01 -0.07,-0.16 0.12,-0.47 -0.01,-0.61 -0.22,-0.23 -0.21,-0.51 -0.23,-0.85 -0.01,-0.11 0.14,-0.35 0.05,-0.44 -0.06,-0.05 -0.19,-0.14 -0.23,-0.32 0.18,-0.12 0.34,0.04 0.47,0.03 0.09,-0.01 0.3,-0.12 0.38,-0.17 0.34,-0.23 0.81,-0.1 1.05,-0.07zm-1.48 1.28c0.04,0.55 0.27,0.73 0.74,0.87 0.11,0.04 0.39,-0.01 0.48,-0.05 0.28,-0.13 0.39,-0.09 0.56,-0.34 0.19,-0.27 0.29,-0.76 0.11,-1.15 -0.25,-0.52 -0.92,-0.58 -1.34,-0.41 -0.26,0.1 -0.48,0.27 -0.55,0.53 -0.05,0.15 -0.02,0.35 0,0.55z"/>
  <path class="fil0" d="M11.09 36.13c-0.05,0.07 -0.15,0.22 -0.36,0.23 -0.21,0.02 -0.42,-0.07 -0.46,-0.15 -0.04,-0.09 -0.18,-0.31 -0.05,-0.51 0.13,-0.2 0.27,-0.19 0.27,-0.19 0,-0.01 0.26,-0.04 0.34,0 0.08,0.03 0.24,0.11 0.29,0.28 0.04,0.17 0.02,0.28 -0.03,0.34zm-0.35 -0.88c-0.19,-0.03 -0.47,0.04 -0.47,0.04 -0.09,0.05 -0.32,0.22 -0.34,0.5 -0.02,0.28 0.09,0.59 0.35,0.73 0.27,0.15 0.58,0.1 0.8,0 0.22,-0.1 0.3,-0.36 0.33,-0.49 0.04,-0.13 -0.01,-0.34 -0.12,-0.48 -0.12,-0.14 -0.36,-0.28 -0.55,-0.3zm0.9 -0.29l-0.13 -0.1 0.14 -0.01 -0.01 0.11zm0.07 1.12c-0.02,0.12 -0.06,0.36 -0.32,0.53 -0.26,0.18 -0.66,0.3 -0.8,0.3 -0.14,0.01 -0.63,-0.12 -0.74,-0.22 -0.11,-0.1 -0.44,-0.54 -0.34,-0.94 0.09,-0.41 0.22,-0.55 0.35,-0.63 0.13,-0.08 0.35,-0.26 0.69,-0.3 0,0 0.42,0 0.61,0.11 0.19,0.11 0.43,0.33 0.49,0.54 0.05,0.2 0.08,0.49 0.06,0.61zm-1.91 1.02l0.02 -0.15 0.09 0.09 -0.11 0.06zm-0.14 -2.14l-0.11 0.13 -0.07 -0.11 0.18 -0.02zm2.39 0.15c-0.03,-0.02 -0.18,-0.01 -0.24,0 -0.06,0 -0.04,-0.1 -0.03,-0.14 0.02,-0.04 0.12,-0.07 0.28,-0.15 0.15,-0.09 0.03,-0.12 -0.01,-0.15 -0.04,-0.03 -0.21,0.02 -0.25,0.01 -0.03,-0.01 0,-0.09 0.02,-0.13 0.03,-0.03 0,-0.23 -0.1,-0.15 -0.11,0.08 -0.08,0.14 -0.09,0.21 -0.01,0.07 -0.16,0.11 -0.22,0.11 -0.06,0 -0.03,-0.12 -0.02,-0.19 0.01,-0.08 -0.11,-0.29 -0.2,-0.3 -0.09,-0.01 -0.11,0.08 -0.08,0.13 0.03,0.04 0.14,0.13 0.11,0.2 -0.02,0.06 -0.2,0.04 -0.28,0.02 -0.08,-0.03 -0.43,-0.03 -0.59,0.02 -0.17,0.06 -0.43,0.17 -0.43,0.17 -0.05,0.01 -0.05,-0.08 -0.08,-0.2 -0.02,-0.12 -0.12,-0.09 -0.15,-0.06 -0.03,0.04 -0.01,0.15 0.01,0.22 0.01,0.06 0.04,0.11 -0.07,0.04 -0.11,-0.08 -0.11,-0.25 -0.17,-0.18 -0.07,0.07 -0.03,0.26 -0.03,0.26 0,0 -0.12,0 -0.26,-0.02 -0.14,-0.03 -0.17,0.06 -0.13,0.07 0.03,0.02 0.19,0.12 0.22,0.12 0.02,0 0.16,0.16 0.14,0.19 -0.02,0.02 -0.08,0 -0.2,0.01 -0.11,0.01 -0.17,0.1 -0.17,0.16 0.01,0.06 0.16,0.05 0.2,0.04 0.04,-0.02 0.11,0.01 0.11,0.01 -0.08,0.11 -0.04,0.24 -0.08,0.47 -0.04,0.24 0.08,0.49 0.11,0.55 0.02,0.06 0.14,0.19 0.09,0.24 -0.04,0.04 -0.07,0.03 -0.21,0.07 -0.14,0.04 -0.04,0.17 0.05,0.17 0.08,-0.01 0.27,-0.02 0.27,-0.02 0,0 0.14,-0.08 0.06,0.06 -0.08,0.14 -0.01,0.14 -0.12,0.28 -0.1,0.13 0.08,0.09 0.08,0.06 0.01,-0.03 0.1,-0.05 0.08,-0.03 -0.02,0.01 -0.02,0.09 0,0.08 0.02,-0.01 0.1,-0.03 0.14,-0.06 0.03,-0.03 0.12,-0.1 0.15,-0.15 0.03,-0.05 0.16,-0.04 0.07,0.08 -0.08,0.11 0.06,0.15 0.09,0.11 0.02,-0.03 0.1,-0.13 0.13,-0.19 0.02,-0.05 0.11,-0.02 0.29,-0.02 0.18,0 0.48,-0.1 0.59,-0.1 0.11,-0.01 0.12,0.07 0.12,0.15 0.01,0.09 0.04,0.16 0.09,0.15 0.05,-0.02 0.08,-0.09 0.09,-0.14 0.02,-0.04 0.01,-0.19 -0.02,-0.22 -0.02,-0.03 -0.01,-0.07 0.05,-0.11 0.07,-0.03 0.13,-0.11 0.26,-0.2 0.12,-0.1 0.23,-0.39 0.26,-0.49 0.02,-0.11 -0.01,-0.45 -0.03,-0.55 -0.01,-0.09 -0.09,-0.28 -0.08,-0.32 0,-0.04 0.09,-0.02 0.15,-0.02 0.05,0.01 0.2,-0.01 0.19,-0.07 -0.02,-0.07 -0.13,-0.08 -0.16,-0.1z"/>
 </g>
</svg>
