<?xml version="1.0" encoding="UTF-8"?>
<!DOCTYPE svg PUBLIC "-//W3C//DTD SVG 1.1//EN" "http://www.w3.org/Graphics/SVG/1.1/DTD/svg11.dtd">
<!-- Creator: CorelDRAW 2020 (64-Bit) -->
<svg xmlns="http://www.w3.org/2000/svg" xml:space="preserve" width="168px" height="746px" version="1.1" style="shape-rendering:geometricPrecision; text-rendering:geometricPrecision; image-rendering:optimizeQuality; fill-rule:evenodd; clip-rule:evenodd"
viewBox="0 0 16.44 73.04"
 xmlns:xlink="http://www.w3.org/1999/xlink"
 xmlns:xodm="http://www.corel.com/coreldraw/odm/2003">
 <defs>
  <style type="text/css">
   <![CDATA[
    .str0 {stroke:#FFD899;stroke-width:0.09;stroke-miterlimit:22.9256}
    .fil0 {fill:#FFD899}
   ]]>
  </style>
 </defs>
 <g id="Слой_x0020_1">
  <metadata id="CorelCorpID_0Corel-Layer"/>
  <g id="_2270302583872">
   <g>
    <path class="fil0 str0" d="M14.6 64.49c0.04,0 0.07,0 0.11,0 0.05,0.29 0.26,0.46 0.34,0.71 0.16,-0.04 0.52,-0.13 0.67,-0.1 0.01,0.02 0.01,0.04 0.02,0.06 -0.22,0.07 -0.45,0.13 -0.67,0.2 0.01,0.25 0.03,0.5 0.04,0.75 0.04,0.01 0.08,0.02 0.12,0.02 0.78,-0.62 -0.17,0.48 0.75,-0.16 -0.13,-0.13 0.13,-0.07 0.22,-0.06 0,0.05 -0.01,0.09 -0.02,0.14 -0.18,0.05 -0.3,0.08 -0.38,0.22 -0.04,-0.02 -0.7,0.02 -0.75,0.07 0.04,0.33 0.05,0.21 -0.12,0.7 0,0.02 0.01,0.03 0.02,0.05 0.21,0.01 0.41,0.07 0.62,0.07 0.21,0 0.43,-0.06 0.7,-0.07 0.03,0.1 0.03,0.09 0.12,0.1 -0.06,0.58 -0.33,0.53 -0.87,0.69 0,0 0,0.01 0,0.02 0.52,1.57 0.25,1.9 -0.02,2.73 -0.06,0.4 0.68,1.76 0.4,1.87 -0.13,-0.33 -0.32,-0.74 -0.42,-1.1 -0.08,-0.23 -0.09,-0.53 -0.21,-0.71 -0.21,0.12 -0.42,0.19 -0.75,0.19 0.09,0.25 0.18,0.51 0.27,0.77 0.01,0.12 0.02,0.25 0.04,0.38 0,-0.03 0.01,-0.05 0.02,-0.08 0.04,0.22 0.29,0.85 0.2,0.97 -0.07,0.02 -0.14,0.04 -0.2,0.06 0,-0.01 0,-0.02 0,-0.04 -0.06,-0.27 -0.11,-0.54 -0.17,-0.81 -0.11,-0.39 -0.26,-0.78 -0.35,-1.2 -0.17,0.03 -1.12,0.16 -1.14,0.15 -0.26,-0.09 -1.04,-0.11 -1.24,-0.02 0.18,0.36 0.33,0.77 0.49,1.11 -0.06,0.07 -0.11,0.14 -0.17,0.2 -0.01,0 -0.02,-0.01 -0.04,-0.02 -0.36,-0.8 -0.58,-0.99 -0.4,-1.35 0.04,-0.07 0.05,-0.02 0.17,-0.1 0.21,-0.02 0.66,-0.05 1.12,-0.01 0.65,-0.03 1.67,-0.07 2.23,-0.48 0,-0.07 0.17,-0.29 0.18,-0.41 0.41,-0.81 0.06,-1.4 -0.26,-2.19 -0.31,0 0.25,-0.11 0.31,-0.11 0.41,-0.05 0.63,-0.13 0.67,-0.35 0.01,-0.04 -0.07,-0.07 -0.07,-0.12 -0.25,0.02 -0.5,0.04 -0.75,0.06 -0.19,-0.03 -0.39,-0.06 -0.58,-0.08 -0.02,0.01 -0.03,0.02 -0.04,0.04 -0.06,0.26 0.07,0.69 0.08,1.11 0,0.25 -0.05,0.49 -0.15,0.7 -0.13,0.23 -0.27,0.38 -0.44,0.49 -0.61,0.43 -1.35,0.38 -1.99,0.38 -0.53,0.01 -1.03,0.01 -1.37,0.34 0,0 -0.03,0.15 -0.01,0.3 0.04,0.25 0.09,0.43 0.18,0.71 0.09,0.27 0.27,0.62 0.23,0.73 -0.02,-0.01 -0.04,-0.01 -0.06,-0.02 -0.1,-0.19 -0.24,-0.42 -0.32,-0.63 -0.11,-0.23 -0.07,-0.7 -0.25,-0.87 -0.05,-0.01 -0.02,0 -0.08,-0.04 -0.05,0.03 -0.09,0.07 -0.14,0.1 0.03,-0.36 0.62,-0.56 0.81,-0.72 0.28,0.04 0.78,0.04 1.32,0.01 0.77,-0.05 1.6,-0.19 1.85,-0.64 0.23,-0.4 0.31,-1.34 0.19,-1.34 -0.33,0.12 0,-0.38 -0.04,-0.49 0,-0.01 -0.01,-0.01 -0.02,-0.02 -0.5,-0.03 -1.38,0.67 -2.12,0.53 0,-0.03 0,-0.06 0,-0.09 0,-0.01 0.01,-0.02 0.02,-0.04 0.3,0 1.81,-0.43 1.96,-0.58 -0.2,-0.16 -0.92,-0.76 -1.13,-0.79 -0.29,0.08 -0.43,0.26 -0.59,0.04 0,-0.01 0,-0.02 0,-0.02 0.18,-0.07 0.37,-0.11 0.45,-0.19 -0.12,0 -0.33,-0.23 -0.35,-0.34 0.04,0 0.08,0 0.12,0 -0.01,-0.26 0,-0.84 0.12,-0.89 0.05,0.09 0.05,0.1 0.06,0.14 0.06,0.54 -0.11,0.9 0.15,1.05 -0.02,-0.02 0.06,-0.17 0.06,-0.24 0.19,0.13 0.19,0.4 0.38,0.31 0.06,0.08 0.12,0.1 0.18,0.18 0.02,-0.14 0.17,-0.39 0.23,-0.55 0,0 -0.05,-0.2 -0.06,-0.22 0.13,-0.2 0.18,-0.32 0.2,-0.69 0.44,0.18 -0.29,1.58 -0.26,1.68 0.12,0.11 0.41,0.38 0.58,0.36 -0.02,0.03 -0.04,0.06 -0.06,0.09 0.04,0 0.07,0.01 0.1,0.02 0.03,-0.05 0.06,-0.09 0.09,-0.13 0.02,-0.42 -0.35,-1.35 0.1,-0.75 0,-0.01 0.01,-0.02 0.02,-0.04 0.29,-0.45 -0.11,-1.46 -0.25,-1.7z"/>
    <path class="fil0 str0" d="M9.34 66.92c0.03,0.48 -0.06,0.64 -0.11,0.93 -0.03,-0.01 -0.04,-0.01 -0.06,-0.03 -0.05,0.18 -0.19,0.35 -0.25,0.46 -0.06,0.29 0.22,0.6 0.31,0.81 0.13,0.23 0.18,0.45 0.24,0.71 0,0 -0.01,0.01 -0.02,0.02 -0.02,-0.02 -0.04,-0.03 -0.06,-0.04 -0.17,-0.38 -0.45,-0.9 -0.58,-1.4 -0.04,0.08 -0.17,0.21 -0.23,0.3 0.16,0.39 0.32,0.78 0.49,1.18 -0.03,0.02 -0.06,0.04 -0.08,0.06 -0.19,-0.37 -0.37,-0.71 -0.49,-1.16 -0.05,0.04 -0.04,0.03 -0.06,0.1 -0.37,0.08 -0.65,0.4 -1.1,0.41 -0.29,0.04 -0.68,-0.07 -0.95,-0.12 0,0.02 0.03,0.02 0.03,0.04 0.14,0.22 0.42,1.12 0.38,1.32 -0.04,-0.01 -0.08,-0.02 -0.12,-0.03 -0.03,-0.17 -0.45,-1.51 -0.33,-1.35 -0.11,-0.06 -0.23,-0.11 -0.34,-0.17 -0.01,0.03 -0.02,0.06 -0.02,0.09 0.05,0.04 0.5,1.5 0.48,1.64 0,0 -0.01,0 -0.02,0 -0.4,-0.37 -0.35,-1.53 -0.65,-1.89 -0.09,0.02 -0.13,0.06 -0.2,0 0.22,-0.01 0.49,-0.23 0.77,-0.34 0.16,-0.01 0.31,-0.02 0.47,-0.02 0.81,-0.31 1.51,-0.36 1.82,-1.28 0.07,-0.21 0.2,-0.36 0.16,-0.63 -0.13,-0.04 -0.22,-0.06 -0.26,-0.2 0.07,-0.05 0.15,-0.09 0.22,-0.14 0,-0.02 -0.01,-0.03 -0.02,-0.04 0.04,-0.28 -0.83,-1.02 -1.21,-0.85 -0.16,0.07 -0.25,0.16 -0.33,0.25 -0.22,0.26 -0.22,0.58 0.06,0.82 0.15,0.06 0.23,0.08 0.3,0 0.06,-0.05 0.09,-0.13 0.15,-0.18 -0.01,-0.06 -0.03,-0.11 -0.04,-0.16 -0.08,0.01 -0.15,0.02 -0.22,0.04 0,-0.04 0,-0.07 0,-0.1 0.15,-0.06 0.31,-0.23 -0.04,-0.21 0.04,-0.07 0.08,-0.15 0.12,-0.22 0.11,0.06 0.27,0.09 0.38,0.12 0.07,0.14 0.12,0.3 0.18,0.47 -0.06,0.38 -0.63,1.05 -0.95,0.79 -0.24,-0.11 -0.36,-0.36 -0.46,-0.61 -0.37,-0.91 0.36,-1.15 0.93,-1.48 0.36,0 0.71,0.1 0.92,0.16 0.28,0.14 0.57,0.73 0.62,1 0.21,-0.01 0.41,-0.04 0.57,0.04 0.01,0.04 0.02,0.08 0.04,0.12 -0.03,0.05 -0.06,0.1 -0.08,0.16 0,0 0,0 0,0.01 -0.08,0.1 -0.28,0.24 -0.39,0.31 0,0.2 -0.01,0.17 0.03,0.28l0 0.01zm-0.09 -0.02c-0.01,-0.12 -0.01,-0.23 -0.02,-0.35 0.14,-0.07 0.35,-0.13 0.42,-0.27 0,0 0,0 0.01,0 0.01,-0.11 0.05,-0.09 -0.03,-0.13 -0.13,-0.14 -0.51,-0.01 -0.64,-0.04 0.02,-0.01 0.04,-0.02 0.06,-0.02 0,-0.02 0.01,-0.04 0.02,-0.06 -0.15,-0.42 -0.31,-0.74 -0.67,-0.94 -0.69,-0.36 -1.68,0.27 -1.75,0.85 0.12,0.32 0.54,1.07 0.92,0.78 0.3,-0.15 0.51,-0.6 0.24,-0.92 -0.02,0 -0.04,0 -0.06,0 -0.01,0.02 -0.01,0.03 -0.02,0.04 0.13,0.33 -0.02,0.74 -0.39,0.71 -0.22,-0.15 -0.33,-0.38 -0.33,-0.61 0,-0.3 0.18,-0.6 0.5,-0.72 0.57,-0.21 1.42,0.48 1.35,0.97 -0.07,0.06 -0.14,0.14 -0.16,0.2 0.13,0.02 0.17,0.06 0.25,0.12 0.04,1.77 -1.62,1.83 -3,2.25 0.07,0.32 0.69,0.33 1.09,0.39 0.95,0.14 1.76,-0.66 2.11,-1.42 0.09,-0.2 0.06,-0.67 0.1,-0.83z"/>
   </g>
   <path class="fil0" d="M4.51 0.3c-0.01,0.05 0.05,0.33 0.05,0.42 0.01,0.16 0.04,0.19 0.04,0.3 0.02,0.21 0.12,0.58 0.07,0.77 0.01,0 -0.24,0.05 -0.27,0.05 -0.07,0.01 -0.14,0.01 -0.2,0.03 -0.13,0.03 -0.25,0.03 -0.39,0.04 -0.1,0.01 -0.16,0.03 -0.22,0.03 -0.1,0.01 -0.4,0.05 -0.46,0.03 -0.05,-0.08 -0.05,-0.4 -0.05,-0.47 -0.01,-0.12 -0.01,-0.19 -0.06,-0.29 -0.07,-0.17 0,-0.57 -0.06,-0.73 0.13,-0.12 0.55,-0.09 0.73,-0.12 0.15,-0.02 0.7,-0.11 0.82,-0.06zm-1.85 -0.02c0.1,-0.06 0.27,0.05 0.54,0.02l0.79 -0.09c0.16,-0.02 0.39,-0.04 0.49,-0.08 0.09,-0.03 0.21,-0.14 0.29,-0.13 0.01,0.03 -0.03,0.16 -0.1,0.3 -0.02,0.16 -0.01,0.46 0.05,0.64 0.07,0.2 0.07,0.43 0.1,0.6 0.03,0.16 0.09,0.29 0.18,0.4l-0.03 0.04c-0.07,0.01 -0.2,-0.01 -0.27,-0.04 -0.02,-0.01 -0.2,-0.02 -0.22,-0.02 -0.04,0 -0.06,0.04 -0.06,0.03 -0.01,0.03 -0.28,0.02 -0.36,0.03 -0.22,0.04 -0.4,0.07 -0.61,0.09 -0.11,0.01 -0.13,0 -0.2,0.05 -0.02,0.02 -0.3,0.17 -0.33,0.12 -0.01,-0.17 0.02,-0.21 0.07,-0.37 0.03,-0.1 -0.08,-0.41 -0.08,-0.53 0.01,-0.17 -0.03,-0.33 -0.05,-0.51 0,-0.06 -0.04,-0.28 -0.06,-0.34 -0.04,-0.08 -0.14,-0.14 -0.14,-0.21zm0.61 0.4c-0.04,0.14 0.06,0.89 0.13,0.98 0.08,0.04 0.82,-0.08 0.97,-0.1 0,-0.08 -0.05,-0.14 -0.04,-0.23 0,-0.11 0.02,-0.27 -0.03,-0.36 -0.05,-0.09 0.02,-0.3 -0.04,-0.38 -0.13,-0.06 -0.37,0.01 -0.52,0.02 -0.1,0.01 -0.43,0.02 -0.47,0.07zm-0.09 -0.1c-0.02,0.02 -0.05,0.03 -0.05,0.05 -0.02,0.08 0.06,0.16 -0.01,0.22 -0.03,0.03 0.06,0.09 0.03,0.18 -0.02,0.08 0.01,0.1 0.02,0.16 0.01,0.12 0.04,0.24 0.04,0.36 0.01,0.05 0.07,0.26 0.07,0.26 0.11,-0.01 0.46,-0.05 0.62,-0.06 0.08,-0.01 0.24,-0.01 0.32,-0.05 0.03,-0.01 0.13,-0.01 0.16,-0.01 0.08,-0.01 0.11,-0.05 0.11,-0.05 0.02,-0.05 -0.06,-0.71 -0.08,-0.74 -0.03,-0.07 -0.04,-0.39 -0.05,-0.46 -0.08,-0.03 -0.46,0.02 -0.56,0.04 -0.27,0.06 -0.51,0.04 -0.62,0.1zm0.57 0.59c0.07,0.05 0.14,0 0.15,-0.05 0.02,-0.07 -0.03,-0.08 -0.06,-0.09 -0.01,-0.01 -0.03,-0.01 -0.05,-0.01 -0.07,0 -0.1,0.11 -0.04,0.15zm-0.1 -0.25c-0.05,0.04 -0.07,0.27 -0.01,0.33 0.04,0.04 0.14,0.07 0.21,0.06 0.08,-0.02 0.17,-0.03 0.16,-0.12 0,-0.05 0.01,-0.12 0,-0.17 -0.01,-0.05 -0.09,-0.12 -0.14,-0.13 -0.07,-0.02 -0.15,-0.02 -0.22,0.03zm-0.11 0.38c0.11,0.1 0.22,0.14 0.37,0.1 0.14,-0.04 0.16,-0.06 0.2,-0.19 0.02,-0.07 -0.01,-0.39 -0.09,-0.39 -0.07,0 -0.02,-0.01 -0.08,-0.04 -0.21,-0.09 -0.45,0.08 -0.47,0.28 -0.01,0.08 -0.01,0.17 0.07,0.24z"/>
   <g>
    <path class="fil0" d="M5.32 13.69c0.05,-0.05 0.15,-0.13 0.25,-0.17 0.1,-0.03 0.24,-0.08 0.3,-0.06 0.07,0.02 0.19,0.11 0.22,0.17 0.04,0.06 0.18,0.24 0.23,0.26 0.04,0.02 0.09,0.1 0.08,0.13 -0.02,0.04 -0.08,0.06 -0.12,0.03 -0.05,-0.04 -0.15,-0.16 -0.19,-0.22 -0.03,-0.05 -0.11,-0.15 -0.12,-0.17 -0.02,-0.02 -0.06,-0.08 -0.09,-0.09 -0.02,0 -0.1,0.01 -0.12,0.02 -0.03,0.02 -0.12,0.07 -0.13,0.07 -0.02,0 -0.12,0.03 -0.14,0.06 -0.03,0.04 -0.05,0.13 -0.04,0.19 0.01,0.05 0.08,0.19 0.11,0.24 0.02,0.05 0.16,0.28 0.17,0.3 0.02,0.02 0.05,0.08 0.05,0.09 0,0.01 0.12,-0.01 0.14,0 0.03,0.01 0.15,-0.04 0.21,-0.07 0.06,-0.02 0.31,-0.11 0.34,-0.12 0.03,-0.01 0.29,-0.06 0.33,-0.1 0.03,-0.03 0.29,-0.06 0.31,-0.06 0.01,-0.01 0.12,-0.12 0.19,-0.16 0.07,-0.05 0.08,-0.07 0.08,-0.07l0.09 -0.02c0,0 0.02,-0.06 0.04,-0.1 0.02,-0.04 0.05,-0.09 0.08,-0.05 0.03,0.04 0.01,0.1 0.01,0.15 -0.01,0.04 -0.01,0.13 0.01,0.16 0.02,0.04 0.13,0.22 0.15,0.27 0.03,0.05 0.13,0.26 0.13,0.31 0.01,0.05 0.05,0.19 0.04,0.22 0,0.02 -0.03,0.05 -0.07,-0.01 -0.04,-0.05 -0.1,-0.21 -0.11,-0.25 0,-0.04 -0.08,-0.11 -0.1,-0.12 -0.02,-0.02 -0.04,-0.07 -0.04,-0.09 0,-0.03 -0.01,-0.1 -0.04,-0.13 -0.03,-0.04 -0.09,-0.1 -0.11,-0.09 -0.02,0.01 -0.11,0.03 -0.16,0.03 -0.05,0 -0.07,-0.01 -0.12,0.02 -0.05,0.04 -0.06,0.08 -0.15,0.07 -0.09,-0.01 -0.17,0.08 -0.17,0.08 0,0 -0.14,0.02 -0.19,0.03 -0.06,0.01 -0.17,0.02 -0.21,0.05 -0.05,0.03 -0.13,0.08 -0.18,0.09 -0.05,0 -0.18,0.05 -0.21,0.08 -0.03,0.03 -0.16,0.11 -0.19,0.15 -0.03,0.04 -0.07,0.02 -0.04,0.13 0.04,0.11 0.09,0.26 0.13,0.32 0.05,0.05 0.1,0.1 0.1,0.13 -0.01,0.03 -0.04,0.09 -0.11,0.08 -0.06,-0.01 -0.15,-0.21 -0.16,-0.26 -0.01,-0.05 -0.1,-0.3 -0.12,-0.33 -0.01,-0.04 -0.03,-0.21 -0.03,-0.25 0,-0.04 -0.1,-0.22 -0.15,-0.28 -0.06,-0.05 -0.13,-0.18 -0.14,-0.25 -0.01,-0.07 -0.02,-0.1 -0.02,-0.1 0,0 -0.06,0.05 -0.08,0.06 -0.03,0 -0.06,0.04 -0.09,0.01 -0.03,-0.03 -0.04,-0.05 0,-0.09 0.04,-0.05 0.1,-0.09 0.12,-0.1 0.02,-0.01 -0.02,-0.16 0.03,-0.19z"/>
    <path class="fil0" d="M0.22 17.45c0,0 -0.07,0.04 -0.03,0.08 0.04,0.05 0.05,0.1 0.06,0.13 0,0.03 0.01,0.06 -0.01,0.07 -0.01,0.01 -0.07,0 -0.07,-0.01 -0.01,-0.01 -0.08,-0.02 -0.09,-0.01 -0.01,0.01 -0.06,0.07 -0.02,0.11 0.03,0.04 0.1,0.06 0.13,0.07 0.04,0 0.12,-0.02 0.14,0.01 0.02,0.02 0.02,0.09 0.05,0.12 0.03,0.03 0.07,0.08 0.06,0.09 -0.01,0.02 -0.07,0.05 -0.1,0.06 -0.02,0.02 -0.07,0.05 -0.08,0.03 0,-0.01 -0.05,-0.07 -0.06,-0.09 -0.01,-0.02 -0.07,-0.04 -0.09,0 -0.02,0.03 -0.05,0.06 -0.02,0.08 0.04,0.03 0.1,0.08 0.1,0.1 0.01,0.03 0,0.11 0.01,0.13 0.02,0.02 0.06,0.04 0.08,0.04 0.02,0 0.07,0.02 0.07,0.05 0,0.02 -0.02,0.09 -0.01,0.11 0.01,0.01 0.05,0.06 0.07,0.03 0.03,-0.04 0.05,-0.06 0.04,-0.1 0,-0.04 -0.04,-0.12 -0.03,-0.15 0.02,-0.03 0.04,-0.07 0.04,-0.11 0,-0.03 0.01,-0.07 0.03,-0.05 0.02,0.02 0.1,0.08 0.1,0.12 0,0.03 -0.02,0.14 -0.03,0.16 -0.01,0.03 -0.02,0.19 -0.02,0.21 0,0.02 0,0.07 0.03,0.08 0.03,0.01 0.08,0.01 0.09,-0.01 0.01,-0.02 0.03,-0.13 0.03,-0.15 0.01,-0.02 0.02,-0.09 0.02,-0.1 -0.01,-0.02 -0.06,-0.11 -0.04,-0.11 0.03,0 0.05,0.04 0.08,0.04 0.02,0 0.04,0.03 0.04,0.04 0,0.01 -0.01,0.05 0.02,0.07 0.04,0.02 0.07,0.07 0.06,0.1 -0.01,0.02 0.03,0.08 0.06,0.08 0.04,0 0.08,-0.06 0.06,-0.13 -0.02,-0.07 -0.04,-0.12 -0.06,-0.15 -0.02,-0.03 -0.07,-0.1 -0.08,-0.11 -0.02,-0.02 -0.11,-0.06 -0.14,-0.08 -0.04,-0.01 -0.07,-0.1 -0.06,-0.11 0.01,-0.02 0.01,-0.06 0.07,-0.06 0.05,-0.01 0.08,-0.03 0.09,-0.03 0.02,-0.01 0.03,0 0.04,0.03 0.02,0.02 0.05,0.08 0.07,0.11 0.02,0.02 0.03,0.07 0.06,0.07 0.02,0 0.06,0.01 0.08,0 0.02,-0.01 0.04,-0.07 0.03,-0.09 -0.02,-0.03 -0.07,-0.05 -0.08,-0.07 -0.02,-0.01 -0.06,-0.08 -0.04,-0.08 0.01,0 0.07,0.01 0.09,0.01 0.02,0 0.05,-0.01 0.1,-0.03 0.04,-0.02 0.04,-0.05 0.03,-0.07 -0.01,-0.01 -0.04,-0.04 -0.07,-0.03 -0.02,0.01 -0.08,0.03 -0.11,0.03 -0.02,0.01 -0.1,0.02 -0.11,0 -0.01,-0.03 0.02,-0.05 0.04,-0.07 0.02,-0.01 0.05,-0.06 0.04,-0.08 -0.01,-0.02 -0.05,-0.08 -0.08,-0.07 -0.04,0.01 -0.09,0.02 -0.1,0.04 -0.01,0.01 -0.05,0.09 -0.03,0.12 0.02,0.03 0.02,0.05 0.01,0.06 -0.02,0.01 -0.1,0.02 -0.12,0.04 -0.03,0.02 -0.07,0.04 -0.09,0.02 -0.02,-0.02 -0.07,-0.1 -0.04,-0.16 0.03,-0.06 0.1,-0.2 0.12,-0.22 0.01,-0.01 0.03,-0.06 0.03,-0.09 0,-0.03 -0.05,-0.07 -0.08,-0.07 -0.04,0.01 -0.09,0.05 -0.1,0.09 0,0.03 -0.01,0.08 -0.02,0.1 -0.01,0.02 -0.07,0.03 -0.07,-0.01 0,-0.03 0,-0.15 -0.02,-0.19 -0.01,-0.03 -0.09,-0.07 -0.17,-0.04z"/>
    <path class="fil0" d="M4.49 16.86c-0.01,0.05 -0.04,0.08 -0.06,0.11 -0.02,0.04 -0.01,0.06 -0.05,0.14 -0.03,0.08 -0.06,0.11 -0.09,0.15 -0.03,0.03 -0.08,0.09 -0.1,0.15 -0.02,0.05 -0.07,0.15 -0.14,0.2 -0.07,0.06 -0.14,0.08 -0.16,0.12 -0.03,0.03 -0.13,0.12 -0.19,0.14 -0.06,0.02 -0.22,0.09 -0.27,0.11 -0.06,0.02 -0.19,0.05 -0.23,0.07 -0.03,0.02 -0.12,0.04 -0.12,0.08 0,0.04 0,0.11 -0.01,0.18 -0.02,0.08 -0.03,0.17 -0.05,0.2 -0.01,0.04 -0.03,0.14 -0.01,0.21 0.03,0.08 0.05,0.1 0.02,0.11 -0.03,0.01 -0.08,-0.03 -0.1,-0.08 -0.02,-0.04 -0.09,-0.08 -0.13,-0.16 -0.04,-0.08 -0.06,-0.15 -0.08,-0.21 -0.02,-0.06 -0.12,-0.17 -0.15,-0.18 -0.02,-0.02 -0.1,-0.08 -0.06,-0.15 0.03,-0.08 0.03,-0.05 0.05,-0.08 0.02,-0.04 0,-0.07 0.03,-0.11 0.03,-0.04 0.13,-0.15 0.17,-0.16 0.04,-0.01 0.08,-0.09 0.15,-0.14 0.07,-0.04 0.12,-0.11 0.15,-0.16 0.03,-0.06 0.12,-0.12 0.14,-0.13 0.02,0 0.15,-0.07 0.18,-0.11 0.03,-0.05 0.13,-0.08 0.16,-0.08 0.04,-0.01 0.17,-0.08 0.22,-0.12 0.05,-0.04 0.17,-0.12 0.21,-0.14 0.03,-0.01 0.16,-0.04 0.19,-0.03 0.03,0 0.14,-0.02 0.15,-0.03 0.03,-0.01 0.09,-0.05 0.12,-0.02 0.04,0.02 0.07,0.06 0.06,0.12zm-1.48 -1.02c-0.07,-0.02 -0.09,-0.09 -0.08,-0.14 0,-0.05 0.04,-0.16 0.06,-0.2 0.02,-0.05 0.08,-0.15 0.13,-0.19 0.01,-0.01 0.15,-0.06 0.18,-0.06 0.04,0 0.1,-0.02 0.11,-0.04 0.01,-0.02 0.11,-0.05 0.15,-0.07 0.04,-0.02 0.09,-0.06 0.13,-0.09 0.04,-0.04 0.14,-0.06 0.17,-0.07 0.03,0 0.14,-0.03 0.16,-0.05 0.03,-0.02 0.12,-0.05 0.14,-0.03 0.02,0.02 0.05,0.06 0.01,0.14 -0.04,0.08 -0.09,0.17 -0.12,0.22 -0.04,0.04 -0.11,0.14 -0.15,0.17 -0.05,0.03 -0.16,0.08 -0.27,0.13 -0.12,0.04 -0.19,0.1 -0.25,0.14 -0.05,0.03 -0.2,0.12 -0.23,0.13 -0.03,0.01 -0.07,0.03 -0.14,0.01zm2.29 0.82c-0.03,-0.03 -0.18,-0.16 -0.26,-0.2 -0.08,-0.04 -0.19,-0.19 -0.23,-0.22 -0.04,-0.02 -0.19,0.02 -0.2,0.03 -0.01,0.02 -0.16,0.1 -0.19,0.12 -0.04,0.03 -0.14,0.06 -0.19,0.05 -0.05,-0.01 -0.14,-0.13 -0.16,-0.17 -0.02,-0.03 -0.1,-0.05 -0.18,-0.09 -0.08,-0.03 -0.23,-0.01 -0.27,0 -0.05,0.01 -0.22,0.06 -0.26,0.08 -0.04,0.02 -0.16,0.09 -0.2,0.11 -0.04,0.02 -0.02,-0.07 -0.02,-0.11 0.01,-0.04 -0.02,-0.14 -0.02,-0.17 0.01,-0.04 0.04,-0.14 0.06,-0.15 0.01,-0.02 0.09,-0.07 0.12,-0.08 0.03,-0.01 0.17,-0.06 0.21,-0.08 0.04,-0.01 0.19,-0.09 0.22,-0.09 0.02,-0.01 0.1,-0.01 0.13,0.03 0.03,0.05 0.04,0.13 0.07,0.28 0.03,0.14 0.05,0.13 0.09,0.13 0.03,0.01 0.11,-0.01 0.1,-0.02 -0.01,-0.02 -0.01,-0.1 -0.07,-0.28 -0.07,-0.18 -0.05,-0.24 -0.05,-0.27 0,-0.03 0.11,-0.17 0.11,-0.2 0,-0.02 0.09,-0.15 0.11,-0.23 0.02,-0.08 0.15,-0.11 0.2,-0.15 0.04,-0.04 0.28,-0.12 0.32,-0.14 0.04,-0.02 0.15,0.02 0.18,0.01 0.03,-0.01 0.04,-0.04 0.02,-0.06 -0.01,-0.02 -0.05,-0.08 -0.06,-0.11 0,-0.02 -0.04,-0.1 -0.06,-0.11 -0.01,-0.02 -0.13,-0.09 -0.15,-0.12 -0.02,-0.03 -0.11,-0.06 -0.11,-0.05 0,0.01 -0.05,0.04 -0.1,0.04 -0.06,0.01 -0.06,-0.03 -0.06,-0.05 -0.01,-0.02 -0.08,-0.02 -0.08,-0.01 -0.01,0.01 -0.05,0.05 -0.06,0.05 -0.02,-0.01 -0.14,-0.1 -0.17,-0.11 -0.04,-0.02 -0.16,-0.04 -0.2,-0.03 -0.03,0 -0.28,0.07 -0.29,0.09 -0.01,0.02 -0.14,0.15 -0.16,0.2 -0.01,0.05 0.01,0.23 0.01,0.23 -0.01,0.05 0,0.07 0,0.11 0.01,0.04 0.07,0.06 0.09,0.05 0.03,-0.01 0.07,-0.06 0.06,-0.09 0,-0.03 -0.02,-0.18 -0.02,-0.2 0,-0.01 0.04,-0.1 0.07,-0.12 0.03,-0.03 0.15,-0.11 0.18,-0.13 0.04,-0.02 0.14,0.01 0.17,0.02 0.03,0.02 0.07,0.07 0.09,0.11 0.01,0.03 0.03,0.1 0.05,0.11 0.03,0.01 0.04,0.04 0.02,0.07 -0.01,0.03 -0.09,0.1 -0.12,0.11 -0.03,0.02 -0.17,0.04 -0.19,0.05 -0.03,0 -0.14,0.03 -0.19,0.05 -0.04,0.01 -0.22,0.12 -0.24,0.13 -0.02,0 -0.13,0.06 -0.23,0.09 -0.09,0.02 -0.24,0.13 -0.27,0.16 -0.03,0.02 -0.19,0.21 -0.25,0.26 -0.06,0.04 -0.18,0.13 -0.22,0.16 -0.04,0.02 -0.1,0.03 -0.08,0.07 0.02,0.04 0.06,0.05 0.07,0.04 0.01,-0.01 0.07,-0.05 0.08,-0.05 0,-0.01 0.04,-0.03 0.09,-0.05 0.05,-0.01 0.07,-0.01 0.12,-0.03 0.04,-0.01 0.08,0.07 0.09,0.11 0.02,0.03 0.08,0.1 0.09,0.13 0.02,0.02 0.06,0.16 0.1,0.21 0.03,0.05 0.03,0.16 0.03,0.22 0,0.06 -0.09,0.08 -0.12,0.11 -0.04,0.03 -0.14,0.07 -0.16,0.09 -0.02,0.03 -0.08,0.1 -0.12,0.14 -0.04,0.04 -0.07,0.12 -0.11,0.19 -0.04,0.08 -0.04,0.15 -0.04,0.19 0.01,0.03 0.08,0.17 0.08,0.23 0,0.07 0.05,0.1 0.07,0.1 0.03,0 0.03,-0.04 0.03,-0.05 0,-0.02 -0.02,-0.16 -0.02,-0.2 0,-0.03 -0.02,-0.23 -0.03,-0.25 0,-0.02 0.07,-0.11 0.08,-0.13 0.02,-0.02 0.12,-0.11 0.14,-0.14 0.03,-0.04 0.17,-0.14 0.24,-0.18 0.07,-0.04 0.24,-0.12 0.3,-0.15 0.06,-0.04 0.24,-0.07 0.26,-0.07 0.02,0.01 0.09,0.04 0.14,0.06 0.05,0.03 0.17,0.09 0.19,0.1 0.02,0.02 0.1,0.14 0.11,0.16 0.02,0.01 0.02,0.04 0,0.07 -0.02,0.03 -0.11,0.06 -0.16,0.08 -0.06,0.02 -0.25,0.09 -0.28,0.1 -0.02,0.02 -0.1,0.04 -0.16,0.03 -0.06,0 -0.11,0.03 -0.13,0.06 -0.01,0.03 -0.2,0.21 -0.21,0.24 0,0.03 -0.18,0.14 -0.23,0.17 -0.05,0.04 -0.22,0.16 -0.29,0.21 -0.07,0.06 -0.19,0.19 -0.2,0.23 -0.01,0.03 -0.07,0.17 -0.07,0.19 -0.01,0.03 -0.1,0.07 -0.24,0.12 -0.15,0.06 -0.17,0.07 -0.23,0.13 -0.06,0.07 0,0.07 0.04,0.1 0.04,0.02 0.07,-0.02 0.09,-0.04 0.02,-0.01 0.13,-0.07 0.15,-0.09 0.02,-0.02 0.1,-0.05 0.13,-0.05 0.03,0 0.09,0.06 0.1,0.08 0.01,0.03 0.07,0.15 0.1,0.19 0.03,0.04 0.15,0.17 0.19,0.18 0.05,0.02 0.12,0.14 0.15,0.21 0.04,0.07 0.15,0.24 0.17,0.29 0.02,0.06 0.07,0.18 0.12,0.17 0.05,-0.01 0.23,0.1 0.28,0.1 0.05,0 0.06,-0.07 0.05,-0.08 -0.02,-0.01 -0.07,-0.06 -0.1,-0.06 -0.04,0 -0.1,-0.03 -0.1,-0.05 0,-0.03 -0.09,-0.13 -0.1,-0.15 0,-0.02 0.01,-0.15 0.01,-0.19 0,-0.03 0.01,-0.18 0,-0.22 0,-0.05 0.03,-0.29 0.02,-0.3 0,-0.01 0.17,-0.18 0.19,-0.2 0.02,-0.02 0.15,-0.08 0.18,-0.08 0.03,0 0.28,-0.06 0.3,-0.06 0.02,0 0.05,0.04 0.13,0.06 0.09,0.03 0.19,0.11 0.23,0.13 0.04,0.02 0.15,0.14 0.22,0.24 0.07,0.11 0.12,0.09 0.14,0.08 0.02,-0.02 0.04,-0.07 0.04,-0.1 0,-0.02 -0.02,-0.07 -0.08,-0.11 -0.05,-0.05 -0.18,-0.25 -0.21,-0.28 -0.02,-0.03 -0.11,-0.15 -0.14,-0.16 -0.04,-0.01 -0.04,-0.05 -0.02,-0.08 0.01,-0.03 0.06,-0.12 0.1,-0.15 0.03,-0.04 0.08,-0.14 0.11,-0.19 0.04,-0.05 0.11,-0.22 0.14,-0.27 0.02,-0.06 0.12,-0.16 0.15,-0.18 0.04,-0.02 0.12,-0.11 0.12,-0.1 0,0.01 0.09,0.03 0.12,0.03 0.04,0.01 0.13,-0.02 0.17,-0.03 0.03,-0.02 0.07,-0.04 0.1,-0.02 0.03,0.02 0.1,0.04 0.13,0.03 0.02,-0.01 0.06,-0.09 0.07,-0.11 0.02,-0.02 -0.03,-0.08 -0.07,-0.11z"/>
    <path class="fil0" d="M7.41 6.92c0,0.02 -0.1,0.18 -0.12,0.2 -0.02,0.01 -0.14,0 -0.2,0.03 -0.06,0.03 -0.16,0.09 -0.21,0.12 -0.05,0.03 -0.11,0.09 -0.15,0.09 -0.04,0 -0.1,0.02 -0.11,0.04 -0.01,0.03 0.01,0.05 -0.06,0.07 -0.06,0.02 -0.13,0.04 -0.19,0.08 -0.07,0.04 -0.1,0.06 -0.16,0.08 -0.06,0.02 -0.16,0.08 -0.22,0.04 -0.06,-0.03 -0.14,-0.09 -0.16,-0.11 -0.01,-0.03 0,-0.11 0,-0.14 0.01,-0.03 0.06,-0.1 0.08,-0.12 0.03,-0.03 0.23,-0.25 0.29,-0.3 0.05,-0.05 0.18,-0.2 0.2,-0.21 0.03,-0.02 0.12,-0.13 0.14,-0.17 0.02,-0.04 0.12,-0.1 0.15,-0.12 0.03,-0.03 0.15,-0.1 0.16,-0.11 0.02,0 0.07,-0.04 0.08,-0.05 0.03,-0.02 0.06,-0.02 0.09,-0.02 0.04,0 0.09,-0.01 0.1,0 0.01,0.01 0.06,0.06 0.08,0.05 0.03,-0.01 0.09,0.07 0.1,0.09 0.02,0.02 0.04,0.11 0.06,0.14 0.02,0.04 0.04,0.08 0.04,0.12 0.01,0.05 0,0.18 0.01,0.2zm1.23 0.6c-0.02,-0.01 -0.09,-0.11 -0.1,-0.13 -0.01,-0.03 -0.02,-0.06 -0.06,-0.07 -0.03,0 -0.04,-0.01 -0.08,-0.06 -0.04,-0.05 -0.05,-0.04 -0.15,-0.14 -0.11,-0.1 -0.17,-0.08 -0.2,-0.11 -0.04,-0.02 -0.09,-0.08 -0.13,-0.07 -0.04,0.01 -0.2,0.01 -0.2,-0.02 0,-0.02 0,-0.13 -0.02,-0.15 -0.02,-0.02 -0.08,-0.11 -0.1,-0.19 -0.03,-0.08 -0.05,-0.08 -0.05,-0.12 0,-0.03 0.01,-0.07 -0.02,-0.17 -0.03,-0.09 -0.02,-0.13 -0.02,-0.13 0,0 -0.01,-0.01 0.03,-0.07 0.04,-0.06 0.03,-0.11 0.01,-0.18 -0.01,-0.08 0.02,-0.12 0.04,-0.18 0.01,-0.07 0.04,-0.12 0.04,-0.18 0.01,-0.06 0.03,-0.13 0.05,-0.21 0.02,-0.09 0.09,-0.15 0.12,-0.2 0.02,-0.04 0.13,-0.18 0.17,-0.21 0.04,-0.03 0.03,-0.1 0.01,-0.1 -0.01,-0.01 -0.04,-0.04 -0.06,-0.07 -0.02,-0.02 -0.05,0 -0.07,0.04 -0.02,0.04 -0.15,0.14 -0.2,0.17 -0.06,0.03 -0.13,0.12 -0.18,0.15 -0.05,0.03 -0.18,-0.09 -0.22,-0.12 -0.03,-0.04 -0.05,0 -0.05,0 -0.02,0.03 0.02,0.06 0.03,0.08 0.01,0.02 0.08,0.07 0.08,0.09 0.01,0.02 -0.01,0.03 -0.04,0.03 -0.03,0 -0.11,0.06 -0.14,0.08 -0.03,0.03 0.01,0.07 0.04,0.07 0.03,0 0.08,-0.03 0.1,-0.04 0.03,-0.02 0.09,-0.02 0.09,0 0.01,0.02 0.03,0.03 0.03,0.07 -0.01,0.03 -0.04,0.08 -0.05,0.13 -0.01,0.05 -0.13,0.26 -0.15,0.3 -0.01,0.05 -0.12,0.23 -0.14,0.24 -0.02,0.01 -0.16,0.01 -0.23,0.03 -0.07,0.03 -0.29,0.24 -0.34,0.33 -0.05,0.09 -0.31,0.27 -0.36,0.33 -0.04,0.07 -0.32,0.27 -0.38,0.31 -0.07,0.03 -0.16,0.15 -0.21,0.2 -0.05,0.04 -0.29,0.25 -0.3,0.28 0,0.02 -0.02,0.13 -0.04,0.16 -0.01,0.03 -0.06,0.14 -0.05,0.16 0.01,0.01 0.05,0.01 0.05,0 -0.01,-0.02 0.03,-0.07 0.03,-0.07 0,0 0.05,0.04 0.08,0.13 0.03,0.08 0.15,0.17 0.18,0.19 0.02,0.03 0,0.07 0.01,0.13 0,0.06 0.03,0.11 0.05,0.15 0.02,0.05 0,0.24 0.02,0.27 0.01,0.04 0.11,0.12 0.11,0.17 0.01,0.05 0.07,0.09 0.1,0.12 0.02,0.03 0.07,0.1 0.12,0.13 0.05,0.04 0.1,0 0.13,-0.02 0.02,-0.02 0.01,-0.05 -0.02,-0.08 -0.02,-0.02 -0.11,-0.09 -0.15,-0.13 -0.05,-0.04 -0.1,-0.14 -0.11,-0.19 -0.01,-0.05 0.01,-0.1 -0.01,-0.12 -0.02,-0.03 -0.03,-0.09 -0.02,-0.12 0,-0.03 0.04,-0.08 0.04,-0.13 0,-0.05 0.02,-0.11 0.03,-0.16 0.01,-0.06 0.06,-0.05 0.08,-0.06 0.02,0 0.12,-0.06 0.13,-0.09 0.01,-0.03 0.08,-0.05 0.13,-0.06 0.04,-0.01 0.08,-0.02 0.11,-0.05 0.04,-0.04 0.13,-0.04 0.19,-0.07 0.06,-0.02 0.09,-0.04 0.16,-0.05 0.06,0 0.09,-0.03 0.13,-0.07 0.03,-0.03 0.11,-0.05 0.13,-0.07 0.02,-0.02 0.09,-0.03 0.13,-0.06 0.03,-0.02 0.09,-0.03 0.18,-0.07 0.09,-0.03 0.12,-0.07 0.14,-0.1 0.02,-0.03 0.09,-0.04 0.12,-0.06 0.03,-0.01 0.09,-0.02 0.14,-0.05 0.06,-0.02 0.11,-0.11 0.11,-0.12 0,-0.01 0.01,-0.03 0.03,-0.03 0.02,0.01 0.05,0.03 0.11,0.04 0.05,0.02 0.1,0.03 0.2,0.01 0.1,-0.01 0.15,0.02 0.18,0.03 0.02,0.01 0.12,0.11 0.15,0.16 0.02,0.04 0.03,0.04 0.04,0.04 0.01,0 0.04,-0.03 0.06,0.03 0.03,0.05 0.08,0.08 0.11,0.1 0.04,0.02 0.08,0.07 0.11,0.07 0.03,-0.01 0.02,-0.06 -0.01,-0.07z"/>
    <path class="fil0" d="M0.69 12.06l0.03 0.46c0.01,0.17 0,0.31 0.03,0.46 0.09,-0.02 0.3,-0.01 0.46,-0.05 0.06,-0.01 0.26,-0.03 0.32,-0.04 0.05,0 0.25,-0.03 0.24,-0.03 0.02,-0.14 -0.03,-0.33 -0.05,-0.49l-0.03 -0.28c-0.01,-0.04 -0.02,-0.09 -0.02,-0.13 -0.01,-0.03 -0.03,-0.03 -0.04,-0.06 -0.25,0.01 -0.42,0.06 -0.52,0.07 -0.14,0.01 -0.31,0.04 -0.42,0.09zm-0.12 -0.13c0.11,0.02 0.54,-0.09 0.74,-0.13 0.1,-0.01 0.24,0 0.34,-0.06 0.02,-0.01 0.01,-0.03 0.02,-0.05 0.01,-0.01 0.03,-0.01 0.04,-0.02 0,-0.03 -0.01,-0.06 -0.01,-0.09 -0.01,-0.05 0,-0.13 0,-0.17 0.01,-0.02 0.03,-0.03 0.07,-0.02 0.03,0.02 -0.01,0.16 0.04,0.19 0.04,0.04 0.18,-0.1 0.24,-0.06 0.01,0.01 0.03,0.04 0.02,0.05 -0.04,0.04 -0.21,0.13 -0.24,0.14 -0.13,0.07 0.02,0.71 0.03,0.82 0.01,0.17 0.01,0.3 0.13,0.38 0.05,0.04 0.25,0.04 0.32,0.04 0.02,0.02 0.03,0.05 0.02,0.07 -0.04,0.04 -0.33,-0.08 -0.24,0.13 0.02,0.04 0.02,0.09 0.02,0.11 -0.01,0.03 -0.05,0.04 -0.08,0.02 -0.02,-0.03 -0.05,-0.08 -0.06,-0.14 -0.01,-0.04 -0.05,-0.08 -0.09,-0.11 -0.02,-0.02 -0.04,-0.04 -0.06,-0.04 -0.28,0.01 -0.86,0.1 -1.1,0.13 -0.03,0 -0.03,0.04 -0.04,0.06 -0.02,0.03 -0.05,0.03 -0.06,0.06 -0.02,0.12 -0.03,0.23 -0.03,0.3 -0.03,0.03 -0.08,0.05 -0.1,0.01 -0.02,-0.07 0,-0.23 -0.06,-0.23 -0.12,0.01 -0.23,0.03 -0.25,0.02 -0.01,-0.01 -0.03,-0.06 0,-0.09 0.07,-0.02 0.2,-0.03 0.3,-0.07 0.07,-0.02 0.13,-0.1 0.14,-0.14 0.04,-0.06 -0.07,-0.95 -0.12,-1.02 -0.01,-0.02 -0.04,-0.05 -0.1,-0.06 -0.08,0 -0.22,0.02 -0.26,0.02 -0.02,-0.01 -0.02,-0.06 0,-0.08 0.07,-0.04 0.23,0 0.21,-0.1 -0.02,-0.08 -0.05,-0.12 -0.05,-0.16 0.02,-0.03 0.05,-0.06 0.08,-0.05 0.03,0.02 0.09,0.32 0.19,0.34zm0.45 0.36c-0.02,0.07 0.01,0.16 0.01,0.24 0,0 0.01,0.04 0.01,0.04 0.01,0.03 0.06,0.01 0.1,0.01 0.06,-0.01 0.12,-0.02 0.18,-0.02 0.01,0 0.04,-0.01 0.04,0 -0.02,-0.04 0,-0.08 -0.01,-0.13 0,-0.03 -0.01,-0.07 -0.01,-0.1 0,-0.01 -0.01,-0.07 -0.01,-0.08 -0.06,0.02 -0.1,0.02 -0.17,0.02 -0.04,0.01 -0.09,0.01 -0.14,0.02zm-0.16 -0.16c0.08,0.01 0.05,0.05 0.12,0.06 0.05,0.02 0.12,0 0.18,0 0.06,-0.01 0.15,-0.02 0.19,-0.04 0.04,-0.01 0.08,-0.09 0.12,-0.08 0.02,0.05 -0.03,0.09 -0.03,0.14 -0.01,0.08 0,0.17 0.01,0.24 0,0.09 0,0.1 0.06,0.14 0.05,0.03 0.07,0.12 0.06,0.14 -0.07,0.01 -0.1,-0.06 -0.19,-0.05l-0.3 0.02c-0.05,0 -0.13,0.12 -0.18,0.1 -0.02,-0.05 0.05,-0.16 0.05,-0.18 -0.03,-0.08 -0.02,-0.25 -0.04,-0.32 -0.02,-0.08 -0.05,-0.1 -0.05,-0.17z"/>
    <path class="fil0 str0" d="M3.21 58.4c0.08,0.39 0.48,0.84 0.54,1.1 0,0 0.06,-0.07 0.07,-0.06 0.19,-0.19 0.29,-0.37 0.47,-0.54 0.81,-0.75 1.6,-1.2 2.64,-0.42 0.95,0.72 0.91,2 -0.16,2.61 -0.2,-0.1 -0.29,-0.06 -0.43,-0.14 0.5,-0.18 0.79,-0.28 1.03,-0.82 0.01,-0.57 0.08,-0.88 -0.37,-1.31 -0.94,-0.91 -2.55,-0.18 -3.04,1.03 0,0.28 0.03,0.91 0.03,1.04 -0.2,0.18 -0.41,0.17 -0.63,0.02 0.05,-0.29 0.27,-1.01 0.19,-1.09 -0.11,-0.38 -0.39,-0.68 -0.53,-1.11 -0.29,-0.84 -0.25,-1.5 -1.31,-2.21 -0.67,-0.02 -1.39,0.42 -1.4,1.08 -0.06,0.33 0.16,1.07 0.64,1.26 0.14,0.05 0.6,0.15 0.79,-0.3 0.08,-0.02 0.17,-0.05 0.26,-0.08 -0.02,0.01 -0.03,0.03 -0.05,0.04 -0.04,0.78 -0.95,0.63 -1.2,0.45 -0.26,-0.16 -0.43,-0.51 -0.53,-0.68 -0.34,-0.59 -0.12,-1.03 0.14,-1.4 1.36,-1.89 2.42,0.55 2.85,1.53z"/>
    <path class="fil0 str0" d="M0.77 44.29c-0.01,-0.01 -0.02,-0.02 -0.03,-0.04 0.4,-2.01 0.59,-1.91 1.22,-1.73 0.1,-0.2 0.14,-0.33 0.22,-0.42 -0.06,-0.05 -0.03,-0.05 -0.03,-0.16 -0.48,-0.34 -1.13,-0.81 -1.26,-1.36 0.5,-0.92 1.16,-0.11 1.54,-0.36 -0.19,-0.22 -0.29,-0.49 -0.24,-0.71 0.07,-0.33 0.41,-0.52 0.59,-0.13 0.02,0.12 0.07,0.2 0.03,0.35 -0.08,0.26 -0.45,0.61 0.08,0.6 0.18,-0.4 0.42,-1.44 0.66,-1.52 0.02,0.06 0,0.01 0.04,0.07 -0.17,0.23 -0.5,1.1 -0.6,1.41 0.2,0.02 0.93,-0.19 1.12,-0.35 -0.05,-0.28 -0.09,-0.51 -0.13,-0.79 -0.15,-0.25 -0.43,-0.39 -0.55,-0.64 0,0 0.01,-0.01 0.01,-0.02 0.05,-0.01 0.09,-0.02 0.14,-0.04 0.14,0.14 0.24,0.24 0.38,0.38 0.35,-0.07 0.65,-0.1 1.09,0.03 0.02,0.01 0.42,0.24 0.72,0.47 0.24,-0.28 0.48,-1.18 0.38,-1.32 -0.1,-0.01 -0.26,-0.03 -0.52,0.02 -0.35,0.07 -0.8,0.31 -0.96,0.3 0.29,-0.16 0.57,-0.32 0.86,-0.48 0.39,-0.06 0.69,0.12 0.97,-0.19 0.02,-0.24 -0.05,-0.45 -0.09,-0.67 0.18,-0.21 0.36,-0.32 0.61,-0.1 0.02,0.16 0.07,0.3 0.03,0.48 -0.14,0.05 -0.28,0.1 -0.41,0.16 -0.08,0.34 -0.02,0.37 0.01,0.54 0.25,0.15 0.34,0.32 0.43,0.45 0.16,0.22 0.21,0.4 0.2,0.7 -0.02,0 -0.04,-0.01 -0.06,-0.01 -0.02,-0.38 -0.35,-0.76 -0.69,-1.04 -0.18,0.43 -0.46,1.02 -0.44,1.49 0.26,0.31 0.6,0.46 0.71,1.71 0.02,0.12 0.17,0.2 0.19,0.33 0,0.01 0,0.02 -0.01,0.02 0,0 -0.01,0 -0.02,-0.01 -0.41,-0.41 -0.26,-0.72 -0.46,-1.16 -0.11,-0.24 -0.54,-0.66 -0.68,-0.77 -1.22,0.98 -0.45,0.85 -1.5,2.17 -0.01,-0.01 -0.01,-0.01 -0.02,-0.01 -0.03,-0.03 -0.07,-0.05 -0.1,-0.08 0.05,-0.12 -0.28,-0.32 -0.59,-0.6 -0.33,-0.29 -0.64,-0.67 -0.74,-0.67 -0.05,0.01 -0.09,0.02 -0.13,0.03 -0.07,0.19 0.01,0.33 -0.01,0.49 -0.03,0.31 -0.2,0.57 -0.19,0.85 0.28,0.25 0.84,0.7 0.7,0.93 0.01,0.2 0.01,0.05 -0.12,0.08 0.01,0.17 -0.02,0.22 -0.15,0.3 -0.02,-0.03 -0.03,-0.08 -0.04,-0.11 0.13,-0.42 -0.04,-0.67 -0.47,-0.96 -0.01,0 -0.02,0 -0.03,0.01 -0.07,0.13 -0.14,0.26 -0.21,0.4 0.2,0.11 0.54,0.35 0.61,0.56 0.06,0.16 -0.25,1.56 -0.41,1.69 -0.03,-0.03 -0.02,0.01 -0.02,-0.03 -0.04,-0.02 -0.02,0.02 -0.04,-0.02 -0.03,-0.09 0.2,-1.31 0.18,-1.61 -0.08,-0.06 -0.41,-0.35 -0.48,-0.33 -0.03,0.15 -0.11,0.06 -0.22,0.05 0.02,-0.05 0.04,-0.1 0.06,-0.15 0,-0.01 -0.01,-0.01 -0.02,-0.01 -0.14,-0.05 -0.36,-0.1 -0.47,-0.04 -0.15,0.05 -0.45,1.37 -0.64,1.57zm3.35 -5.25l0.55 1.93c0,0 0.09,-0.4 0.24,-0.57 0.15,-0.18 0.59,-0.68 0.67,-0.7l-0.65 0.18 -0.54 0.08c-0.15,-0.37 -0.28,0.02 1.2,-0.37 0,-0.02 0.04,-0.08 0.05,-0.1 -0.06,0.05 -0.79,-0.86 -1.52,-0.45zm-1.06 1.39c0.19,0 0.81,-0.26 0.99,-0.29 0.01,0.01 0.02,0.02 0.04,0.02 0.13,0.39 0.27,0.77 0.41,1.16 -0.01,0.01 -0.02,0.03 -0.03,0.05 -0.01,-0.01 -0.02,-0.01 -0.03,-0.02 -0.52,-0.18 -1.15,-0.37 -1.38,-0.92zm-0.66 0.05c-0.23,-0.01 -0.43,-0.11 -0.69,-0.15 -1.26,0.08 0,1.1 0.45,1.38 0.01,0 0.02,0 0.02,-0.01 0.22,-0.38 0.3,-0.81 0.29,-1.15 -0.02,-0.01 -0.05,-0.06 -0.07,-0.07z"/>
    <g>
     <path class="fil0" d="M7.12 28.57c-0.57,0.15 -1.26,0.8 -1.15,1.27 0.02,-0.01 0.05,-0.02 0.08,-0.02 0.04,-0.13 0.05,-0.14 0.16,-0.2 -0.09,-0.03 -0.04,0.02 -0.08,-0.06 0.14,-0.11 0.16,-0.28 0.27,-0.39 0.24,-0.15 0.48,-0.3 0.71,-0.45 0.02,0.01 0.04,0.02 0.05,0.03 -0.03,0.38 0.13,0.95 0.35,1.23 -0.05,-0.02 -0.07,-0.05 -0.12,-0.08 0.1,0.34 0.25,0.45 0.3,0.73 -0.07,0.09 -0.11,0.16 -0.23,0.17 0.11,0.29 -0.26,0.57 -0.45,0.69 -0.02,-0.09 0.03,-0.06 -0.07,-0.08 -0.03,0.04 -0.06,0.08 -0.09,0.13 0.02,0.02 0.04,0.04 0.06,0.07 -0.01,0.14 -0.02,0.28 -0.03,0.43 0.01,0.13 0.14,0.34 0.14,0.43 0.01,0 0.03,0.01 0.04,0.01 0.01,0 0.01,0 0.02,-0.01 -0.01,-0.23 -0.03,-0.47 -0.04,-0.71 0.06,-0.26 0.41,-0.38 0.56,-0.6 0.06,-0.13 0.13,-0.26 0.19,-0.39 0.02,0 0.03,0 0.04,-0.01 0.03,0.02 0.06,0.04 0.08,0.06 0.01,0.06 0.17,0.46 0.28,0.46 -0.05,0.53 -0.47,0.92 -0.44,1.38 0.12,-0.18 0.57,-0.89 0.58,-1.08 0.02,-0.41 -0.35,-0.78 -0.5,-0.97 -0.19,-0.24 -0.18,-0.67 -0.19,-0.86 0,0 -0.01,0 -0.02,0 -0.01,0.04 -0.02,0.08 -0.03,0.12 -0.09,-0.32 -0.25,-0.78 -0.27,-1.16 0.16,0.01 0.02,-0.07 0.18,-0.07 0.1,0 0.03,0.09 0.17,0.08 -0.02,-0.02 -0.03,-0.03 -0.04,-0.05 0.11,0.06 0.08,0.09 0.23,0.06 0,0 0,-0.01 0,-0.02 -0.02,-0.04 -0.04,-0.03 0.02,-0.07 0.08,0.11 0.71,0.32 0.86,0.26 -0.01,0 -0.01,-0.01 -0.01,-0.02 -0.11,-0.06 -0.22,-0.18 -0.28,-0.33 0.21,-0.15 0.27,-0.36 0.57,-0.49 0.04,0.03 0,0.01 0.05,0.03 0.03,0.16 -0.01,0.28 0.09,0.4 0.04,-0.04 0.09,-0.08 0.13,-0.12 0.1,-0.15 -0.04,-0.28 0.13,-0.4 0.07,0.16 0.33,0.12 0.5,0.19 0.05,0.02 0.48,0.48 0.56,0.66 -0.1,0.12 -0.1,0.3 -0.13,0.46 0.01,0.03 0.03,0.06 0.04,0.09 0.06,-0.01 0.11,-0.03 0.16,-0.04 0.18,-0.15 0.19,-0.47 0.07,-0.7 0.02,0.01 0.05,0.02 0.07,0.02 -0.09,-0.25 -0.31,-0.36 -0.47,-0.49 0.19,-0.09 -0.14,-0.88 -0.27,-1.07 -0.31,0 -0.68,0.14 -0.94,0.08 -0.08,-0.19 -0.16,-0.23 -0.18,-0.44 0.16,-0.18 0.22,-0.46 0.15,-0.81 -0.17,-0.02 -0.49,-0.23 -0.49,-0.23 -0.11,-0.07 -0.25,-0.03 -0.34,-0.14 -0.04,0.04 -0.04,0.12 -0.09,0.07 -0.13,-0.02 -0.22,-0.04 -0.39,-0.05 -0.07,-0.27 -0.04,-0.51 -0.04,-0.69 0.01,-0.32 -0.3,-0.74 -0.33,-1.01 -0.06,-0.41 -0.07,-0.78 -0.1,-1.21 0.19,-0.1 0.48,-0.11 0.67,-0.06 0.25,0.46 0.23,0.67 0.5,1.06 0.01,0 0.02,0 0.04,-0.01 -0.02,-0.07 -0.04,-0.14 -0.06,-0.22 0.02,0.01 0.05,0.02 0.07,0.03 -0.12,-0.49 -0.2,-0.7 -0.3,-1.11 -0.13,-0.05 -0.19,-0.15 -0.31,-0.2 -0.06,0.08 -0.43,0.04 -0.69,0.1 0,-0.02 0,-0.04 0,-0.06 -0.18,-0.43 0.13,-0.74 0,-1.19 -0.07,-0.05 -0.14,-0.09 -0.21,-0.14 0.07,-0.03 0.04,-0.01 0.07,-0.06 -0.06,0.02 -0.04,0.06 -0.08,0 -0.01,0.04 -0.02,0.08 -0.04,0.12 -0.01,-0.01 -0.03,-0.02 -0.05,-0.03 0,-0.06 0,-0.11 0,-0.17 -0.01,0.02 -0.03,0.04 -0.05,0.06 -0.01,0.06 -0.02,0.12 -0.03,0.18 -0.01,0 -0.02,0 -0.02,0 -0.01,-0.03 -0.01,-0.07 -0.01,-0.1 -0.17,0.1 -0.17,0.32 -0.27,0.5 0.11,0.17 0.21,0.26 0.35,0.37 0.04,0.27 0.08,0.38 0.04,0.6 -0.43,0.11 -0.71,0.14 -1.03,0.3 -0.12,0.34 -0.05,0.99 -0.19,1.18 0.02,0.06 0.05,0.12 0.07,0.17 0.04,-0.01 0.02,0 0.07,-0.04 -0.02,-0.02 -0.04,-0.04 -0.06,-0.07 0.03,0 0.05,-0.01 0.08,-0.02 0.09,0.1 0.09,0.04 0.19,0.14 -0.01,0.03 -0.02,0.05 -0.03,0.07 0.06,-0.03 0.11,-0.07 0.17,-0.1 -0.01,-0.09 -0.02,-0.17 -0.03,-0.25 -0.07,0 -0.04,0.01 -0.09,-0.02 0.09,-0.1 0,-0.44 -0.02,-0.63 0.03,-0.02 0.06,-0.05 0.09,-0.07 0.11,0.01 0.22,0.03 0.33,0.04 0,0.04 -0.01,0.09 -0.01,0.13 0.03,0.01 0.06,0.01 0.09,0.02 0,-0.06 0,-0.13 -0.01,-0.19 0.17,-0.08 0.24,-0.15 0.41,-0.22 0.16,0.37 0.12,0.82 0.15,1.33 0.05,0.18 0.1,0.37 0.15,0.55 0.03,0.4 0.29,0.72 0.2,0.92 -0.23,0.02 -0.63,0.12 -0.73,0.31 0.01,0.26 -0.35,0.82 -0.1,1.13 0.21,-0.2 0.24,-0.73 0.29,-1.01 0.22,-0.08 0.39,-0.14 0.61,-0.17 0.01,0.05 0.01,0.1 0.02,0.15 0.05,-0.01 0.09,-0.02 0.14,-0.02 0,-0.04 0,-0.07 0,-0.11 0.05,0.05 0,0.06 0.07,0.03 0.37,-0.19 0.48,0.05 0.81,0.01 0.07,0.17 0.18,0.21 0.19,0.4 -0.2,0.09 -0.26,0.24 -0.34,0.41 0.11,0.16 0.22,0.32 0.33,0.48 -0.01,0.02 -0.01,0.04 -0.01,0.05 -0.43,0.11 -0.58,0.1 -0.68,0.4 0.14,0.26 0.44,0.75 0.34,0.88 0.04,0.05 0.08,0.09 0.12,0.14 -0.36,0.03 -0.8,-0.07 -1.08,-0.16 -0.01,-0.15 -0.03,-0.3 -0.04,-0.45 -0.08,0.12 -0.04,0.18 -0.16,0.25 -0.1,-0.18 -0.19,-0.37 -0.28,-0.56 0.11,-0.16 0.26,-0.22 0.28,-0.44 -0.09,-0.13 -0.19,-0.21 -0.33,-0.27 -0.27,0.06 -0.4,0.17 -0.44,0.39 0.1,0.25 0.28,0.2 0.41,0.34 0.16,0.18 0.29,0.61 0.35,0.82z"/>
     <path class="fil0" d="M7.12 28.57c-0.57,0.15 -1.26,0.8 -1.15,1.27 0.02,-0.01 0.05,-0.02 0.08,-0.02 0.04,-0.13 0.05,-0.14 0.16,-0.2 -0.09,-0.03 -0.04,0.02 -0.08,-0.06 0.14,-0.11 0.16,-0.28 0.27,-0.39 0.24,-0.15 0.48,-0.3 0.71,-0.45 0.02,0.01 0.04,0.02 0.05,0.03 -0.03,0.38 0.13,0.95 0.35,1.23 -0.05,-0.02 -0.07,-0.05 -0.12,-0.08 0.1,0.34 0.25,0.45 0.3,0.73 -0.07,0.09 -0.11,0.16 -0.23,0.17 0.11,0.29 -0.26,0.57 -0.45,0.69 -0.02,-0.09 0.03,-0.06 -0.07,-0.08 -0.03,0.04 -0.06,0.08 -0.09,0.13 0.02,0.02 0.04,0.04 0.06,0.07 -0.01,0.14 -0.02,0.28 -0.03,0.43 0.01,0.13 0.14,0.34 0.14,0.43 0.01,0 0.03,0.01 0.04,0.01 0.01,0 0.01,0 0.02,-0.01 -0.01,-0.23 -0.03,-0.47 -0.04,-0.71 0.06,-0.26 0.41,-0.38 0.56,-0.6 0.06,-0.13 0.13,-0.26 0.19,-0.39 0.02,0 0.03,0 0.04,-0.01 0.03,0.02 0.06,0.04 0.08,0.06 0.01,0.06 0.17,0.46 0.28,0.46 -0.05,0.53 -0.47,0.92 -0.44,1.38 0.12,-0.18 0.57,-0.89 0.58,-1.08 0.02,-0.41 -0.35,-0.78 -0.5,-0.97 -0.19,-0.24 -0.18,-0.67 -0.19,-0.86 0,0 -0.01,0 -0.02,0 -0.01,0.04 -0.02,0.08 -0.03,0.12 -0.09,-0.32 -0.25,-0.78 -0.27,-1.16 0.16,0.01 0.02,-0.07 0.18,-0.07 0.1,0 0.03,0.09 0.17,0.08 -0.02,-0.02 -0.03,-0.03 -0.04,-0.05 0.11,0.06 0.08,0.09 0.23,0.06 0,0 0,-0.01 0,-0.02 -0.02,-0.04 -0.04,-0.03 0.02,-0.07 0.08,0.11 0.71,0.32 0.86,0.26 -0.01,0 -0.01,-0.01 -0.01,-0.02 -0.11,-0.06 -0.22,-0.18 -0.28,-0.33 0.21,-0.15 0.27,-0.36 0.57,-0.49 0.04,0.03 0,0.01 0.05,0.03 0.03,0.16 -0.01,0.28 0.09,0.4 0.04,-0.04 0.09,-0.08 0.13,-0.12 0.1,-0.15 -0.04,-0.28 0.13,-0.4 0.07,0.16 0.33,0.12 0.5,0.19 0.05,0.02 0.48,0.48 0.56,0.66 -0.1,0.12 -0.1,0.3 -0.13,0.46 0.01,0.03 0.03,0.06 0.04,0.09 0.06,-0.01 0.11,-0.03 0.16,-0.04 0.18,-0.15 0.19,-0.47 0.07,-0.7 0.02,0.01 0.05,0.02 0.07,0.02 -0.09,-0.25 -0.31,-0.36 -0.47,-0.49 0.19,-0.09 -0.14,-0.88 -0.27,-1.07 -0.31,0 -0.68,0.14 -0.94,0.08 -0.08,-0.19 -0.16,-0.23 -0.18,-0.44 0.16,-0.18 0.22,-0.46 0.15,-0.81 -0.17,-0.02 -0.49,-0.23 -0.49,-0.23 -0.11,-0.07 -0.25,-0.03 -0.34,-0.14 -0.04,0.04 -0.04,0.12 -0.09,0.07 -0.13,-0.02 -0.22,-0.04 -0.39,-0.05 -0.07,-0.27 -0.04,-0.51 -0.04,-0.69 0.01,-0.32 -0.3,-0.74 -0.33,-1.01 -0.06,-0.41 -0.07,-0.78 -0.1,-1.21 0.19,-0.1 0.48,-0.11 0.67,-0.06 0.25,0.46 0.23,0.67 0.5,1.06 0.01,0 0.02,0 0.04,-0.01 -0.02,-0.07 -0.04,-0.14 -0.06,-0.22 0.02,0.01 0.05,0.02 0.07,0.03 -0.12,-0.49 -0.2,-0.7 -0.3,-1.11 -0.13,-0.05 -0.19,-0.15 -0.31,-0.2 -0.06,0.08 -0.43,0.04 -0.69,0.1 0,-0.02 0,-0.04 0,-0.06 -0.18,-0.43 0.13,-0.74 0,-1.19 -0.07,-0.05 -0.14,-0.09 -0.21,-0.14 0.07,-0.03 0.04,-0.01 0.07,-0.06 -0.06,0.02 -0.04,0.06 -0.08,0 -0.01,0.04 -0.02,0.08 -0.04,0.12 -0.01,-0.01 -0.03,-0.02 -0.05,-0.03 0,-0.06 0,-0.11 0,-0.17 -0.01,0.02 -0.03,0.04 -0.05,0.06 -0.01,0.06 -0.02,0.12 -0.03,0.18 -0.01,0 -0.02,0 -0.02,0 -0.01,-0.03 -0.01,-0.07 -0.01,-0.1 -0.17,0.1 -0.17,0.32 -0.27,0.5 0.11,0.17 0.21,0.26 0.35,0.37 0.04,0.27 0.08,0.38 0.04,0.6 -0.43,0.11 -0.71,0.14 -1.03,0.3 -0.12,0.34 -0.05,0.99 -0.19,1.18 0.02,0.06 0.05,0.12 0.07,0.17 0.04,-0.01 0.02,0 0.07,-0.04 -0.02,-0.02 -0.04,-0.04 -0.06,-0.07 0.03,0 0.05,-0.01 0.08,-0.02 0.09,0.1 0.09,0.04 0.19,0.14 -0.01,0.03 -0.02,0.05 -0.03,0.07 0.06,-0.03 0.11,-0.07 0.17,-0.1 -0.01,-0.09 -0.02,-0.17 -0.03,-0.25 -0.07,0 -0.04,0.01 -0.09,-0.02 0.09,-0.1 0,-0.44 -0.02,-0.63 0.03,-0.02 0.06,-0.05 0.09,-0.07 0.11,0.01 0.22,0.03 0.33,0.04 0,0.04 -0.01,0.09 -0.01,0.13 0.03,0.01 0.06,0.01 0.09,0.02 0,-0.06 0,-0.13 -0.01,-0.19 0.17,-0.08 0.24,-0.15 0.41,-0.22 0.16,0.37 0.12,0.82 0.15,1.33 0.05,0.18 0.1,0.37 0.15,0.55 0.03,0.4 0.29,0.72 0.2,0.92 -0.23,0.02 -0.63,0.12 -0.73,0.31 0.01,0.26 -0.35,0.82 -0.1,1.13 0.21,-0.2 0.24,-0.73 0.29,-1.01 0.22,-0.08 0.39,-0.14 0.61,-0.17 0.01,0.05 0.01,0.1 0.02,0.15 0.05,-0.01 0.09,-0.02 0.14,-0.02 0,-0.04 0,-0.07 0,-0.11 0.05,0.05 0,0.06 0.07,0.03 0.37,-0.19 0.48,0.05 0.81,0.01 0.07,0.17 0.18,0.21 0.19,0.4 -0.2,0.09 -0.26,0.24 -0.34,0.41 0.11,0.16 0.22,0.32 0.33,0.48 -0.01,0.02 -0.01,0.04 -0.01,0.05 -0.43,0.11 -0.58,0.1 -0.68,0.4 0.14,0.26 0.44,0.75 0.34,0.88 0.04,0.05 0.08,0.09 0.12,0.14 -0.36,0.03 -0.8,-0.07 -1.08,-0.16 -0.01,-0.15 -0.03,-0.3 -0.04,-0.45 -0.08,0.12 -0.04,0.18 -0.16,0.25 -0.1,-0.18 -0.19,-0.37 -0.28,-0.56 0.11,-0.16 0.26,-0.22 0.28,-0.44 -0.09,-0.13 -0.19,-0.21 -0.33,-0.27 -0.27,0.06 -0.4,0.17 -0.44,0.39 0.1,0.25 0.28,0.2 0.41,0.34 0.16,0.18 0.29,0.61 0.35,0.82z"/>
     <path class="fil0" d="M11.74 29.5c-0.01,0 -0.02,0 -0.04,0.01 -0.07,0.1 0,0.13 -0.02,0.24 -0.09,0.05 -0.18,0.1 -0.26,0.15 -0.03,0.23 -0.09,0.4 0.03,0.61 -0.02,0 -0.04,0 -0.06,0 0.14,0.55 0.13,0.74 0.04,1.17 -0.12,0.05 -0.24,0.09 -0.36,0.13 -0.14,-0.01 -0.22,-0.15 -0.33,-0.19 -0.37,-0.14 -0.62,-0.28 -1.09,-0.22 -0.13,0.01 -0.28,0.01 -0.4,0.1 -0.17,0.14 -0.23,0.29 -0.35,0.44 -0.13,-0.01 -0.16,-0.06 -0.16,-0.21 0.09,-0.16 0.43,-0.65 0.27,-0.79 -0.04,-0.1 -0.07,-0.2 -0.1,-0.29 -0.19,0.05 -0.25,0.09 -0.42,0.11 0.01,0.02 0.01,0.05 0.02,0.07 0.06,0.07 0.1,0.12 0.17,0.17 -0.01,0.16 0.04,0.27 0.01,0.4 -0.12,0.08 -0.24,0.35 -0.2,0.53 0.03,0.04 0.06,0.07 0.09,0.1 0.09,0.01 0.18,0.02 0.28,0.03 -0.01,0.06 -0.01,0.11 -0.02,0.17 0.07,0.1 0.14,0.17 0.2,0.22 0.08,0.06 0.1,0.11 0.2,0.15 -0.04,0.07 0.01,0.26 0,0.38 -0.01,0.15 -0.1,0.31 -0.11,0.44 -0.01,0.09 0.48,0.71 0.48,0.71 -0.01,-0.02 -0.01,-0.05 -0.02,-0.07 0.02,-0.01 0.05,-0.01 0.07,-0.02 -0.08,-0.06 -0.3,-0.36 -0.36,-0.6 0.15,-0.18 0.38,-0.57 0.2,-0.88 0.03,0 0.05,0 0.08,0 0.06,0.08 0.04,0.1 0.09,0.17 0.44,0.13 -0.07,0.83 0.16,1.16 0.04,-0.03 0.05,-0.04 0.11,-0.04 -0.12,-0.37 0.21,-0.5 0.25,-0.78 0.04,-0.26 -0.17,-0.42 -0.26,-0.64 0.04,-0.04 0.04,-0.07 0.09,-0.11 0.53,0.23 1.08,0.14 1.37,0.2 0.22,0.09 0.36,0.26 0.58,0.27 0.07,0 0.43,0.09 0.46,-0.02 0.13,0.08 0.32,0.15 0.5,0.09 0.01,0.15 0.4,0.62 0.52,0.61 0,0 0.01,0 0.01,0 0.02,-0.05 0.04,-0.09 0.05,-0.14 -0.26,-0.31 -0.56,-0.57 -0.9,-0.66 -0.01,0.05 0.01,0.03 -0.04,0.06 -0.07,-0.2 -0.38,-0.11 -0.4,-0.37 0.22,-0.07 0.46,0 0.73,-0.12 0.13,-0.06 0.32,-0.22 0.48,-0.31 0.18,-0.11 0.44,0.06 0.65,-0.04 0,-0.02 0,-0.04 0,-0.06 -0.03,-0.03 -0.06,-0.07 -0.09,-0.1 -0.22,0.01 -0.5,0.05 -0.68,0.17 -0.02,-0.07 0,-0.04 -0.07,-0.06 -0.19,0.12 -0.35,0.13 -0.56,0.15 -0.04,-0.06 -0.01,-0.05 -0.07,-0.07 -0.01,0.02 -0.03,0.03 -0.05,0.04 0.03,-0.13 -0.12,-0.46 -0.26,-0.57 -0.03,0 -0.06,-0.01 -0.09,-0.01 -0.14,-0.13 -0.48,-1.04 -0.33,-1.25 0.23,0.02 0.33,0.12 0.55,-0.01 0,-0.03 -0.01,-0.06 -0.01,-0.09 -0.1,-0.11 -0.19,-0.23 -0.29,-0.34 -0.13,-0.11 -0.23,-0.05 -0.34,-0.19z"/>
    </g>
    <path class="fil0 str0" d="M9.62 49.01c0.11,0.07 0.93,-0.29 1.06,-0.52 0.06,-0.1 0.04,-0.32 0.12,-0.56 0.28,-0.08 0.23,-0.27 0.38,-0.53 -0.46,-0.39 -0.18,-0.37 -0.05,-0.48 0.04,0.08 0.08,0.13 0.17,0.17 0.02,-0.02 0.04,-0.05 0.06,-0.07 0.02,0.1 0.02,0.13 0.09,0.23 0.15,-0.14 0.2,-0.18 0.21,-0.36 -0.13,-0.11 -0.22,-0.18 -0.23,-0.32 0.11,0.05 0.28,0.28 0.42,0.32 0.44,0.13 1.23,0.41 1.6,0.64 0,0.16 0,0.31 0.01,0.47 -0.67,0.32 0.35,0.35 -0.9,0.29 0,-0.03 0.01,-0.05 0.01,-0.08 0.01,0.01 0.01,0.03 0.02,0.05 0,-0.03 0.01,-0.06 0.01,-0.09 -0.02,0 -0.03,-0.01 -0.05,-0.01 -0.06,0.01 -0.11,0.03 -0.17,0.05 -0.04,0.14 -0.07,0.29 -0.11,0.44 0.01,0.01 0.02,0.02 0.04,0.03 0.01,-0.05 0.02,-0.09 0.04,-0.13 0.07,0.1 0.05,0.07 0.05,0.17 -0.27,0.09 -0.35,0.67 -0.46,0.78 0.16,0.13 0.21,0.31 0.44,0.52 0.22,0.19 0.45,0.35 0.67,0.68 0.15,0.23 0.27,0.67 0.28,0.92 0,0.01 -0.01,0.02 -0.01,0.02 -0.03,-0.02 -0.05,-0.04 -0.08,-0.06 -0.15,-0.32 -0.26,-0.68 -0.52,-0.99 -0.15,-0.1 -0.3,-0.19 -0.45,-0.29 -0.12,-0.12 -0.3,-0.43 -0.45,-0.4 -0.22,0.12 -0.32,0.47 -0.47,0.61 0.25,0.48 0.68,1.12 1.15,1.4 -0.02,0 -0.04,0 -0.06,0 -0.35,0.03 -0.91,-0.64 -1.12,-1.04 -0.06,-0.1 -0.14,-0.11 -0.13,-0.17 -0.01,-0.02 -0.03,-0.04 -0.05,-0.05 -0.02,0.01 -0.04,0.03 -0.07,0.04 -0.17,0.12 -0.35,0.25 -0.53,0.37 -0.37,0.09 -0.92,0.09 -1.4,0.15 -0.3,-0.29 -1.63,-0.24 -2.01,-0.1 -0.05,0.24 -0.03,0.5 -0.09,0.71 -0.1,0.22 -0.2,0.44 -0.3,0.66 0.01,0.15 0.09,0.22 0.02,0.39 -0.18,-0.54 0.15,-1.25 0.19,-1.81 0.63,-0.49 1.84,-0.09 2.56,-0.04 0.28,0.02 0.42,-0.14 0.69,-0.21 0.18,0.1 0.55,0.01 0.81,-0.23 0.05,0.01 0.04,-0.07 0.09,-0.03 0.01,-0.01 0.03,-0.01 0.04,-0.02 0.36,-0.65 0.67,-1.11 0.83,-1.6 0.11,-0.32 0.18,-0.62 0.25,-1.02 0.23,0.12 0.73,0.17 0.99,0.01 0.03,-0.09 0.05,-0.18 0.08,-0.28 -0.45,-0.19 -0.89,-0.38 -1.34,-0.57 -1.15,0.61 -0.68,1.96 -2.56,2.25 -0.09,0.02 -0.19,0.12 -0.28,0.12 -0.19,-0.01 -0.36,-0.12 -0.59,-0.09 -0.27,0.05 -0.52,0.21 -0.78,0.27 -0.36,0 -0.72,0.01 -1.07,0.01 -0.24,0.3 -0.49,0.89 -0.42,1.22 0.05,0.17 0.1,0.33 0.15,0.5 -0.01,0.29 -0.13,0.56 -0.16,0.87 -0.03,-0.03 -0.05,-0.07 -0.08,-0.1 0.24,-0.55 -0.13,-1.12 -0.07,-1.65 0.08,-0.12 0.15,-0.23 0.23,-0.35 0.03,-0.18 0.07,-0.36 0.1,-0.54 -0.46,-0.21 -0.86,-0.24 -1.26,0.21 0.06,0.24 -0.12,0.56 -0.15,0.82 -0.09,0.82 0.42,0.96 -0.4,1.88 -0.01,-0.02 -0.02,-0.03 -0.03,-0.05 0.36,-0.42 0.55,-0.78 0.43,-1.15 -0.06,-0.11 -0.11,-0.22 -0.17,-0.33 -0.02,-0.27 0.26,-1.4 0.42,-1.52 0.27,-0.14 0.52,-0.22 0.86,-0.17 0.84,0.12 1.49,0.41 2.23,-0.12 0.07,0.08 0.06,0.06 0.16,0.07 0.1,-0.24 0.81,-0.04 1.11,-0.21z"/>
   </g>
  </g>
 </g>
</svg>
