<?xml version="1.0" encoding="UTF-8"?>
<!DOCTYPE svg PUBLIC "-//W3C//DTD SVG 1.1//EN" "http://www.w3.org/Graphics/SVG/1.1/DTD/svg11.dtd">
<!-- Creator: CorelDRAW 2020 (64-Bit) -->
<svg xmlns="http://www.w3.org/2000/svg" xml:space="preserve" width="192px" height="820px" version="1.1" style="shape-rendering:geometricPrecision; text-rendering:geometricPrecision; image-rendering:optimizeQuality; fill-rule:evenodd; clip-rule:evenodd"
viewBox="0 0 26.1 111.3"
 xmlns:xlink="http://www.w3.org/1999/xlink"
 xmlns:xodm="http://www.corel.com/coreldraw/odm/2003">
 <defs>
  <style type="text/css">
   <![CDATA[
    .str0 {stroke:#FFD899;stroke-width:0.27;stroke-miterlimit:10}
    .str1 {stroke:#FFD899;stroke-width:0.27;stroke-miterlimit:10}
    .fil0 {fill:none}
    .fil1 {fill:#FFD899}
   ]]>
  </style>
 </defs>
 <g id="Слой_x0020_1">
  <metadata id="CorelCorpID_0Corel-Layer"/>
  <g id="_2270247406736">
   <path class="fil0 str0" d="M17.55 97.94c-0.04,0 -0.24,-0.04 -0.25,0.08 -0.02,0.12 -0.15,0.29 -0.23,0.36 -0.08,0.07 -0.37,0.23 -0.44,0.25 -0.07,0.01 -0.14,-0.02 -0.14,-0.06 -0.01,-0.04 -0.01,-0.14 -0.03,-0.14 -0.02,0 -0.14,-0.07 -0.14,-0.13 -0.01,-0.05 -0.01,-0.14 -0.07,-0.13 -0.07,0 -0.19,-0.05 -0.21,-0.14 -0.02,-0.09 -0.13,-0.12 -0.16,-0.15 -0.03,-0.03 -0.23,-0.31 -0.26,-0.35 -0.04,-0.05 0.03,-0.16 0.09,-0.19 0.07,-0.02 0.26,-0.1 0.3,-0.1 0.05,0.01 0.47,-0.03 0.56,-0.06 0.08,-0.04 0.18,-0.02 0.25,-0.02 0.06,0.01 0.18,0.15 0.23,0.14 0.04,0 0.14,-0.08 0.14,-0.08 0,0 0.22,0.1 0.35,0.09 0.12,-0.01 0.26,-0.05 0.34,-0.03 0.08,0.02 0.24,0.1 0.24,0.1 0.01,0.06 -0.53,0.55 -0.57,0.56zm6.85 -1.47c-0.06,-0.07 -0.14,-0.08 -0.14,-0.08 0,0 0.06,-0.12 0.09,-0.15 0.02,-0.02 -0.01,-0.18 -0.01,-0.18 0,0 -0.01,-0.07 -0.1,-0.12 -0.1,-0.05 -0.14,0.07 -0.14,0.11 0,0.04 0.08,0.08 0.08,0.15 0.01,0.07 -0.08,0.18 -0.08,0.18 0,0 -0.2,-0.14 -0.27,-0.15 -0.08,-0.01 -0.28,-0.12 -0.28,-0.12 -0.04,-0.08 -0.2,-0.06 -0.2,-0.06 -0.11,-0.08 -0.34,-0.01 -0.34,-0.01 -0.15,-0.15 -0.94,-0.32 -0.94,-0.32 0,0 -0.03,-0.08 -0.03,-0.15 -0.01,-0.08 0.07,-0.38 0.07,-0.41 0,-0.04 -0.11,-0.16 -0.15,-0.19 -0.04,-0.03 -0.5,-0.05 -0.53,-0.02 -0.03,0.04 -0.45,0.3 -0.45,0.3 0,0 -0.01,-0.3 -0.09,-0.49 -0.08,-0.19 -0.21,-0.25 -0.43,-0.33 -0.21,-0.08 -0.43,-0.04 -0.47,-0.03 -0.05,0 -0.33,0.04 -0.33,0.04 0,0 -0.08,-0.17 -0.02,-0.2 0.06,-0.02 0.06,-0.11 0.05,-0.14 -0.01,-0.03 -0.08,-0.07 -0.08,-0.07l-0.2 0.03 -0.06 0.16c0.02,0.09 0.1,0.06 0.18,0.14 0.09,0.08 0.12,0.27 0.12,0.35 0,0.08 0,0.32 0.04,0.38 0.04,0.05 0.26,0.42 0.26,0.42l0.14 0.2c0,0 -0.23,-0.15 -0.26,-0.19 -0.02,-0.04 -0.24,-0.12 -0.29,-0.03 -0.04,0.08 0.05,0.17 0.07,0.17 0.02,-0.01 0.31,0.17 0.31,0.17l-0.2 0.13c0,0 -0.16,0.04 -0.18,0.08 -0.02,0.04 -0.21,0.26 -0.24,0.26 -0.03,0 -0.25,0.09 -0.35,0.21 -0.11,0.12 -0.53,0.54 -0.53,0.54l-0.52 -0.17c0,0 -0.46,-0.12 -0.48,-0.1 -0.02,0.01 -0.35,0.1 -0.39,0.09 -0.04,-0.01 -0.44,-0.02 -0.53,-0.06 -0.08,-0.04 -0.43,-0.06 -0.46,-0.04 -0.03,0.02 -0.34,0.12 -0.42,0.13 -0.09,0.01 -0.28,0.16 -0.28,0.16 0,0 -0.15,-0.47 -0.19,-0.52 -0.04,-0.05 -0.28,0.05 -0.4,0.14 -0.13,0.1 -0.25,0.3 -0.23,0.37 0.02,0.07 0.19,0.23 0.21,0.23 0.02,0.01 0.2,0.06 0.2,0.06 0,0 0.02,-0.01 -0.07,0.1 -0.08,0.12 -0.25,0.16 -0.28,0.16 -0.03,-0.01 -0.47,0.06 -0.52,0.06 -0.05,0 -0.19,0.09 -0.24,0.15 -0.04,0.05 -0.04,0.14 0.05,0.26 0.09,0.12 0.17,0.09 0.19,0.08 0.02,-0.02 0.14,-0.09 0.14,-0.09l0.13 0.06c-0.02,0.1 0.01,0.2 0.11,0.27 0.09,0.07 0.19,0.02 0.22,-0.01 0.03,-0.02 0.06,-0.18 0.04,-0.2 -0.02,-0.02 -0.06,-0.12 -0.04,-0.14 0.02,-0.02 0.25,-0.16 0.29,-0.17 0.05,-0.01 0.15,0.11 0.13,0.18 -0.02,0.07 0.1,0.32 0.19,0.45 0.09,0.12 0.16,0.37 0.22,0.43 0.06,0.05 0.27,0.27 0.29,0.33 0.02,0.05 -0.1,0.09 -0.19,0.12 -0.1,0.03 -0.9,0.31 -1.03,0.37 -0.14,0.06 -0.64,0.09 -0.83,0.1 -0.2,0.01 -0.8,0.15 -0.93,0.17 -0.13,0.02 -0.89,0.19 -1.03,0.22 -0.13,0.03 -0.49,0.15 -0.55,0.19 -0.06,0.04 -0.39,0.21 -0.52,0.23 -0.14,0.02 -0.39,0.21 -0.47,0.24 -0.08,0.04 -0.26,0.37 -0.26,0.37 0,0 -0.46,-0.09 -0.57,-0.11 -0.12,-0.02 -0.29,0.08 -0.42,0.19 -0.14,0.11 -0.21,0.41 -0.25,0.56 -0.01,0.04 -0.01,0.11 -0.01,0.18 0.19,0.05 0.51,0.13 0.7,0.18 0.08,0.02 0.17,0.04 0.25,0.06 0,-0.03 0,-0.06 0,-0.09 -0.01,-0.04 0.1,-0.27 0.13,-0.28 0.03,-0.02 0.17,-0.04 0.17,-0.04l-0.03 0.46c0.06,0.02 0.11,0.03 0.13,0.03 0.08,0.03 0.15,0.15 0.31,0.22 0.15,0.06 0.31,0.39 0.32,0.54 0.02,0.15 0.16,0.24 0.22,0.26 0.06,0.01 0.29,0.22 0.37,0.35 0.04,0.07 0.15,0.22 0.25,0.37 0.06,0 0.09,0 0.09,-0.01 0.01,-0.04 0.06,-0.08 0.08,-0.16 0.02,-0.08 -0.02,-0.14 0.04,-0.19 0.06,-0.05 0.14,-0.13 0.13,-0.17 -0.01,-0.03 0.01,-0.16 0.02,-0.23 0.01,-0.07 0.07,-0.07 0.12,-0.17 0.06,-0.11 0.16,-0.13 0.21,-0.14 0.06,-0.01 0.1,-0.05 0.19,-0.11 0.09,-0.06 0.18,0.03 0.15,0.09 -0.04,0.06 -0.09,0.21 -0.09,0.27 0.01,0.06 0.02,0.28 0.02,0.35 -0.01,0.08 0.04,0.14 -0.07,0.31 -0.1,0.16 -0.13,0.34 -0.18,0.4 -0.05,0.05 -0.09,0.07 -0.08,0.16 0.01,0.09 0.19,0.28 0.23,0.34 0.03,0.06 0.39,0.39 0.42,0.44 0.04,0.06 0.43,0.46 0.49,0.56 0.05,0.1 0.27,0.33 0.31,0.42 0.05,0.08 0.01,0.18 0.01,0.24 0,0.06 0.14,0.11 0.3,0.19 0.16,0.08 0.32,-0.01 0.33,-0.06 0.02,-0.04 0.04,-0.16 -0.03,-0.26 -0.07,-0.11 -0.21,-0.22 -0.25,-0.21 -0.04,0 -0.15,0.02 -0.15,0.02 0,0 -0.07,-0.19 -0.2,-0.27 -0.13,-0.08 -0.27,-0.33 -0.31,-0.41 -0.05,-0.07 -0.25,-0.33 -0.29,-0.37 -0.03,-0.04 -0.04,-0.14 -0.09,-0.15 -0.05,-0.01 -0.19,-0.28 -0.26,-0.4 -0.07,-0.13 -0.01,-0.24 0.11,-0.31 0.11,-0.07 0.13,-0.16 0.17,-0.25 0.04,-0.1 0.14,-0.28 0.2,-0.37 0.05,-0.1 0.18,-0.34 0.35,-0.5 0.17,-0.15 0.24,-0.37 0.31,-0.49 0.07,-0.12 0.16,-0.31 0.21,-0.33 0.05,-0.02 0.27,-0.18 0.27,-0.18l0.03 0.25c0,0 0.18,0.05 0.21,0.1 0.03,0.06 0.21,0.03 0.21,-0.02 0,-0.04 0.1,-0.17 0.05,-0.2 -0.04,-0.04 -0.14,-0.11 -0.14,-0.14 0,-0.03 0,-0.1 -0.04,-0.12 -0.03,-0.02 -0.07,-0.05 -0.03,-0.07 0.04,-0.02 0.28,-0.08 0.36,-0.14 0.08,-0.06 0.38,-0.03 0.52,-0.03 0.15,0 0.43,0.12 0.53,0.12 0.1,-0.01 0.41,-0.12 0.5,-0.17 0.08,-0.04 0.22,-0.09 0.3,-0.09 0.08,0.01 0.45,0.03 0.55,0 0.1,-0.04 0.36,0.1 0.48,0.16 0.13,0.06 0.45,0.09 0.54,0.13 0.09,0.03 0.41,0.17 0.56,0.14 0.16,-0.04 0.28,0.01 0.41,0.11 0.12,0.09 0.21,0.29 0.27,0.33 0.07,0.04 0.29,0.16 0.41,0.26 0.11,0.1 0.12,0.23 0.14,0.36 0.01,0.13 0.11,0.16 0.15,0.32 0.05,0.16 0.19,0.27 0.23,0.33 0.05,0.07 0.13,0.17 0.09,0.31 -0.04,0.14 0.08,0.1 0.14,0.1 0.06,0.01 0.04,0.13 0.05,0.19 0.01,0.05 0.13,0.03 0.24,-0.03 0.11,-0.06 0.07,-0.24 0.06,-0.29 0,-0.05 -0.16,-0.18 -0.19,-0.23 -0.04,-0.04 -0.15,-0.11 -0.19,-0.15 -0.04,-0.04 -0.18,-0.21 -0.2,-0.28 -0.02,-0.07 -0.07,-0.28 -0.16,-0.41 -0.09,-0.12 -0.2,-0.4 -0.28,-0.5 -0.09,-0.09 -0.23,-0.36 -0.32,-0.53 -0.09,-0.17 -0.19,-0.3 -0.42,-0.4 -0.23,-0.1 -1.01,-0.3 -1.06,-0.32 -0.05,-0.02 -0.12,-0.09 -0.12,-0.13 -0.01,-0.04 0.09,-0.15 0.11,-0.11 0.02,0.05 0.12,0.05 0.13,0.02 0.02,-0.03 0.03,-0.05 0.17,-0.09 0.13,-0.05 0.66,0.01 0.9,-0.01 0.25,-0.01 0.74,0.04 0.87,0.05 0.12,0.01 0.37,0.08 0.39,0.17 0.02,0.09 0.09,0.1 0.09,0.1l0.47 -0.03c0,0 0.3,0.1 0.36,0.12 0.06,0.01 -0.01,0.08 0.11,0.09 0.12,0.02 0.11,0.1 0.22,0.17 0.12,0.08 0.24,0.26 0.28,0.34 0.03,0.08 0.09,0.25 0.1,0.36 0.01,0.1 0.15,0.26 0.15,0.3 0,0.05 -0.01,0.12 -0.06,0.24 -0.05,0.13 0,0.17 0.02,0.2 0.02,0.02 0.13,0 0.13,0 0,0 0.01,0.07 0.02,0.14 0,0.07 0.08,0.12 0.14,0.12 0.06,-0.01 0.17,-0.01 0.2,-0.06 0.02,-0.05 0.15,-0.2 0.18,-0.23 0.04,-0.03 -0.07,-0.09 -0.11,-0.11 -0.04,-0.02 -0.09,-0.11 -0.11,-0.15 -0.02,-0.05 -0.13,-0.31 -0.1,-0.29 0.04,0.01 0.05,-0.05 0.05,-0.05 0,0 -0.2,-0.15 -0.24,-0.18 -0.05,-0.03 -0.27,-0.42 -0.31,-0.51 -0.04,-0.09 -0.25,-0.39 -0.29,-0.46 -0.03,-0.07 -0.26,-0.19 -0.26,-0.19 0,0 -0.12,0.02 -0.14,-0.02 -0.01,-0.03 -0.23,-0.16 -0.32,-0.2 -0.08,-0.03 -0.28,-0.09 -0.34,-0.13 -0.06,-0.04 -0.64,-0.31 -0.69,-0.37 -0.05,-0.06 -0.12,-0.03 -0.13,-0.05 -0.01,-0.01 -0.04,-0.16 -0.03,-0.23 0.01,-0.08 0.08,-0.21 0.08,-0.38 0,-0.17 -0.1,-0.4 -0.11,-0.47 -0.02,-0.07 -0.09,-0.11 -0.07,-0.23 0.02,-0.11 0.13,-0.3 0.15,-0.4 0.02,-0.09 0.08,-0.23 0.09,-0.3 0.01,-0.06 0.15,-0.23 0.2,-0.32 0.04,-0.09 0.05,-0.18 0.07,-0.26 0.02,-0.09 0.06,-0.2 0.08,-0.26 0.03,-0.06 0.23,-0.25 0.24,-0.3 0.01,-0.04 0.06,-0.15 0.09,-0.15 0.04,-0.01 0.05,0.13 0.07,0.23 0.02,0.09 -0.03,0.13 -0.06,0.35 -0.03,0.22 0.04,0.22 0.14,0.36 0.1,0.14 0.27,0.15 0.29,0.14 0.02,0 0.12,-0.05 0.25,-0.13 0.14,-0.07 0.06,-0.29 0.06,-0.37 -0.01,-0.08 -0.11,-0.21 -0.14,-0.21 -0.04,0 -0.15,-0.03 -0.22,-0.07 -0.06,-0.04 -0.19,-0.05 -0.19,-0.05l-0.04 -0.27c0,0 0.1,-0.04 0.12,0 0.02,0.04 0.18,0.19 0.23,0.21 0.05,0.01 0.37,0.04 0.46,0.03 0.09,-0.01 0.41,-0.12 0.56,-0.21 0.15,-0.09 0.49,-0.12 0.49,-0.12 0.15,0.17 0.38,0.18 0.39,0.22 0.02,0.04 0.13,0.13 0.07,0.16 -0.06,0.03 -0.11,0.08 -0.11,0.11 -0.01,0.03 0.03,0.07 0.09,0.06 0.07,-0.01 0.11,-0.08 0.11,-0.1 0,-0.01 0.01,-0.09 0.06,-0.14 0.05,-0.04 0.18,0.07 0.43,0.04 0.24,-0.04 0.4,-0.16 0.43,-0.19 0.02,-0.02 0.09,-0.3 0.09,-0.33 0,-0.04 -0.08,-0.21 -0.14,-0.29z"/>
   <path class="fil1" d="M23.14 105.57c0,0 -0.12,0.1 -0.15,0.14 -0.02,0.04 0,0.43 0.04,0.51 0.04,0.08 0.05,0.29 0.04,0.32 -0.01,0.03 0.04,0.33 0.15,0.32 0.11,-0.01 0.1,-0.3 0.08,-0.42 -0.01,-0.12 0.01,-0.38 0,-0.43 -0.01,-0.05 -0.14,-0.2 -0.03,-0.22 0.11,-0.02 0.4,-0.03 0.53,-0.11 0.13,-0.07 0.76,-0.23 0.86,-0.25 0.11,-0.01 0.66,-0.11 0.78,-0.04 0.13,0.07 0.24,0.26 0.28,0.33 0.05,0.08 0.07,0.33 0.09,0.41 0.01,0.09 0.12,0.2 0.2,0.18 0.08,-0.02 0.11,-0.17 0.07,-0.31 -0.03,-0.14 -0.14,-0.4 -0.17,-0.47 -0.03,-0.07 -0.15,-0.27 -0.19,-0.31 -0.03,-0.04 -0.16,-0.24 -0.18,-0.29 -0.01,-0.05 0,-0.31 -0.01,-0.39 0,-0.07 -0.11,-0.19 -0.14,-0.21 -0.03,-0.02 0,-0.1 0.03,-0.11 0.03,0 0.21,-0.06 0.22,-0.1 0,-0.04 -0.06,-0.09 -0.12,-0.08 -0.07,0 -0.17,0.02 -0.2,0 -0.02,-0.02 -0.06,-0.06 -0.09,-0.06 -0.02,0 -0.05,0.01 -0.05,0.04 0,0.02 0,0.06 -0.04,0.07 -0.03,0.01 -0.17,0.05 -0.2,0.09 -0.03,0.05 -0.02,0.08 0.04,0.08 0.06,0 0.21,-0.01 0.24,-0.01 0.03,0.01 0.05,0.21 0.07,0.29 0.01,0.08 0.04,0.24 0.04,0.31 0,0.07 -0.09,0.29 -0.09,0.29 0,0 -0.4,0.05 -0.46,0.05 -0.05,0 -0.2,0.06 -0.26,0.09 -0.06,0.04 -0.31,0.11 -0.5,0.14 -0.18,0.02 -0.28,0.08 -0.34,0.09 -0.07,0.01 -0.43,0.01 -0.54,0.06z"/>
   <path class="fil1" d="M24.35 110.69c0,0 0.07,-0.23 0.04,-0.35 -0.02,-0.11 0,-0.21 -0.01,-0.25 0,-0.03 0.08,-0.14 0.1,-0.18 0.01,-0.04 0.12,-0.25 0.16,-0.31 0.04,-0.07 0.21,-0.21 0.27,-0.21 0.06,-0.01 0.27,0.04 0.37,0.26 0.1,0.21 0.11,0.33 0.08,0.38 -0.03,0.04 -0.1,0.17 -0.16,0.2 -0.06,0.03 -0.12,0.04 -0.15,0.04 -0.04,0.01 -0.14,-0.05 -0.16,-0.08 -0.03,-0.03 -0.1,-0.07 -0.14,-0.06 -0.04,0 -0.15,0.04 -0.14,0.09 0.01,0.05 0,0.28 -0.01,0.35 0,0.06 -0.03,0.16 -0.04,0.2 0,0.03 0.03,0.06 0.06,0.06 0.03,-0.01 0.04,0.03 0.04,0.09 0.01,0.06 0.07,0.09 0.1,0.1 0.02,0.01 -0.02,0.07 -0.03,0.12 -0.02,0.05 -0.02,0.1 -0.01,0.12 0,0.03 -0.05,0.08 -0.1,-0.02 -0.05,-0.09 -0.13,-0.01 -0.15,0 -0.01,0 -0.19,0.05 -0.1,-0.1 0.09,-0.15 0.12,-0.16 0.06,-0.21 -0.07,-0.06 -0.1,-0.01 -0.21,-0.06 -0.11,-0.04 -0.23,-0.11 -0.28,-0.13 -0.05,-0.02 -0.12,0 -0.12,0.06 0.01,0.06 -0.01,0.2 -0.04,0.25 -0.02,0.05 -0.18,0.14 -0.24,0.15 -0.06,0.01 -0.39,0 -0.45,-0.05 -0.07,-0.06 -0.11,-0.24 -0.11,-0.33 0,-0.1 0.12,-0.35 0.19,-0.39 0.07,-0.05 0.26,-0.15 0.32,-0.09 0.06,0.07 0.15,0.08 0.17,0.08 0.02,0.01 0.12,0.1 0.14,0.12 0.02,0.03 0.11,0.01 0.11,0.01 0,0 0.17,0.1 0.21,0.11 0.04,0.02 0.22,0.06 0.23,0.03z"/>
   <path class="fil1" d="M17.99 90.46c-0.05,0.06 -0.14,0.21 -0.35,0.23 -0.21,0.01 -0.41,-0.07 -0.45,-0.16 -0.04,-0.08 -0.17,-0.29 -0.05,-0.49 0.13,-0.2 0.26,-0.19 0.26,-0.19 0,0 0.25,-0.03 0.34,0.01 0.08,0.03 0.23,0.1 0.28,0.27 0.04,0.17 0.02,0.27 -0.03,0.33zm-0.34 -0.86c-0.19,-0.02 -0.46,0.05 -0.46,0.05 -0.08,0.04 -0.31,0.21 -0.33,0.48 -0.02,0.27 0.08,0.57 0.34,0.71 0.26,0.15 0.57,0.09 0.78,0 0.22,-0.1 0.29,-0.35 0.32,-0.48 0.04,-0.12 -0.01,-0.32 -0.12,-0.46 -0.11,-0.14 -0.34,-0.27 -0.53,-0.3zm0.88 -0.28l-0.13 -0.1 0.14 -0.01 -0.01 0.11zm0.06 1.09c-0.02,0.11 -0.05,0.35 -0.31,0.52 -0.25,0.17 -0.64,0.29 -0.78,0.29 -0.13,0.01 -0.61,-0.12 -0.72,-0.21 -0.11,-0.1 -0.42,-0.53 -0.33,-0.92 0.09,-0.4 0.22,-0.53 0.34,-0.61 0.13,-0.08 0.35,-0.26 0.67,-0.3 0,0 0.41,0 0.6,0.11 0.18,0.1 0.42,0.33 0.47,0.52 0.05,0.2 0.08,0.48 0.06,0.6zm-1.86 0.99l0.02 -0.14 0.09 0.09 -0.11 0.05zm-0.13 -2.08l-0.11 0.13 -0.06 -0.11 0.17 -0.02zm2.32 0.14c-0.03,-0.02 -0.17,0 -0.23,0 -0.06,0.01 -0.04,-0.09 -0.03,-0.13 0.02,-0.04 0.12,-0.06 0.27,-0.15 0.15,-0.08 0.03,-0.11 0,-0.14 -0.04,-0.03 -0.21,0.01 -0.25,0.01 -0.03,-0.01 0,-0.09 0.02,-0.12 0.03,-0.04 0,-0.23 -0.1,-0.15 -0.1,0.07 -0.08,0.14 -0.09,0.2 0,0.07 -0.15,0.11 -0.21,0.11 -0.06,-0.01 -0.03,-0.12 -0.02,-0.19 0.01,-0.07 -0.11,-0.28 -0.19,-0.29 -0.09,-0.01 -0.11,0.08 -0.08,0.12 0.03,0.05 0.13,0.14 0.11,0.2 -0.02,0.06 -0.19,0.04 -0.28,0.02 -0.08,-0.02 -0.42,-0.03 -0.58,0.02 -0.16,0.06 -0.41,0.17 -0.41,0.17 -0.05,0 -0.05,-0.09 -0.07,-0.2 -0.03,-0.12 -0.12,-0.09 -0.15,-0.05 -0.04,0.03 -0.01,0.14 0,0.2 0.02,0.07 0.05,0.11 -0.06,0.04 -0.11,-0.07 -0.11,-0.24 -0.17,-0.17 -0.06,0.07 -0.02,0.25 -0.02,0.25 0,0 -0.12,0.01 -0.26,-0.02 -0.14,-0.02 -0.16,0.06 -0.13,0.08 0.04,0.01 0.19,0.11 0.21,0.11 0.03,0 0.17,0.16 0.15,0.18 -0.02,0.03 -0.09,0.01 -0.2,0.02 -0.11,0 -0.17,0.09 -0.16,0.15 0,0.06 0.15,0.05 0.19,0.04 0.04,-0.02 0.1,0.01 0.1,0.01 -0.07,0.11 -0.04,0.23 -0.08,0.46 -0.04,0.23 0.09,0.47 0.11,0.53 0.02,0.06 0.14,0.19 0.1,0.23 -0.05,0.05 -0.07,0.03 -0.21,0.07 -0.14,0.04 -0.04,0.17 0.04,0.17 0.09,-0.01 0.27,-0.02 0.27,-0.02 0,0 0.13,-0.07 0.06,0.06 -0.08,0.14 -0.01,0.14 -0.12,0.27 -0.1,0.13 0.08,0.09 0.08,0.06 0,-0.03 0.1,-0.05 0.08,-0.03 -0.02,0.01 -0.02,0.08 0,0.08 0.01,-0.01 0.1,-0.03 0.13,-0.06 0.03,-0.03 0.12,-0.1 0.15,-0.14 0.03,-0.05 0.15,-0.04 0.07,0.07 -0.08,0.11 0.06,0.15 0.08,0.11 0.03,-0.03 0.1,-0.13 0.13,-0.18 0.02,-0.06 0.1,-0.03 0.28,-0.03 0.18,0 0.47,-0.09 0.58,-0.1 0.11,-0.01 0.11,0.07 0.12,0.16 0.01,0.08 0.03,0.15 0.08,0.14 0.05,-0.02 0.08,-0.09 0.1,-0.13 0.01,-0.05 0,-0.19 -0.03,-0.22 -0.02,-0.03 -0.01,-0.07 0.05,-0.11 0.07,-0.03 0.13,-0.1 0.25,-0.2 0.12,-0.09 0.23,-0.37 0.25,-0.47 0.02,-0.11 -0.01,-0.44 -0.02,-0.53 -0.01,-0.1 -0.09,-0.28 -0.09,-0.32 0.01,-0.04 0.1,-0.02 0.15,-0.01 0.05,0 0.2,-0.02 0.19,-0.08 -0.02,-0.06 -0.13,-0.08 -0.16,-0.1z"/>
   <path class="fil1" d="M5.61 58.46c-0.03,-0.01 -0.05,-0.02 -0.08,-0.03 -1.28,-3.38 -0.91,-3.4 0.2,-3.72 -0.03,-0.39 -0.11,-0.62 -0.06,-0.83 -0.14,-0.03 -0.11,-0.05 -0.19,-0.21 -1.05,-0.06 -2.44,-0.14 -3.16,-0.86 -0.12,-1.82 1.63,-1.24 1.97,-1.96 -0.49,-0.15 -0.9,-0.47 -1.03,-0.83 -0.21,-0.57 0.12,-1.16 0.77,-0.75 0.13,0.17 0.29,0.23 0.36,0.49 0.13,0.46 -0.11,1.33 0.68,0.82 -0.1,-0.76 -0.71,-2.53 -0.43,-2.88 0.07,0.07 0,0.03 0.11,0.07 -0.03,0.49 0.29,2.11 0.44,2.65 0.31,-0.14 1.2,-1.14 1.33,-1.55 -0.33,-0.37 -0.6,-0.68 -0.93,-1.06 -0.46,-0.24 -1.01,-0.18 -1.41,-0.44 0,-0.01 0,-0.02 0,-0.03 0.05,-0.07 0.11,-0.13 0.16,-0.2 0.34,0.09 0.58,0.13 0.92,0.21 0.46,-0.42 0.88,-0.76 1.65,-0.96 0.05,-0.01 0.86,-0.04 1.52,0.02 0.08,-0.65 -0.39,-2.21 -0.68,-2.32 -0.16,0.08 -0.42,0.2 -0.74,0.51 -0.47,0.44 -0.92,1.21 -1.16,1.34 0.28,-0.5 0.56,-1.01 0.84,-1.51 0.52,-0.46 1.13,-0.47 1.26,-1.18 -0.19,-0.39 -0.49,-0.63 -0.76,-0.93 0.07,-0.47 0.24,-0.8 0.82,-0.71 0.17,0.22 0.39,0.38 0.48,0.69 -0.15,0.2 -0.3,0.41 -0.46,0.61 0.2,0.58 0.32,0.57 0.53,0.8 0.51,0 0.79,0.16 1.05,0.27 0.44,0.18 0.7,0.4 0.96,0.86 -0.04,0.01 -0.07,0.02 -0.11,0.04 -0.37,-0.56 -1.22,-0.8 -1.99,-0.91 0.13,0.81 0.27,1.94 0.74,2.63 0.68,0.22 1.32,0.12 2.64,1.88 0.16,0.17 0.45,0.15 0.61,0.32 0,0.01 0,0.03 0,0.04 -0.01,0 -0.02,0 -0.04,0 -0.99,-0.22 -1.06,-0.84 -1.77,-1.3 -0.39,-0.26 -1.42,-0.48 -1.74,-0.51 -0.89,2.59 0.14,1.68 -0.2,4.63 -0.02,0 -0.03,0 -0.04,0 -0.07,-0.01 -0.15,-0.01 -0.22,-0.02 -0.05,-0.23 -0.72,-0.21 -1.44,-0.34 -0.76,-0.13 -1.59,-0.41 -1.73,-0.3 -0.06,0.05 -0.11,0.1 -0.17,0.16 0.08,0.34 0.32,0.47 0.45,0.73 0.25,0.48 0.23,1.04 0.51,1.45 0.64,0.11 1.91,0.26 1.91,0.73 0.19,0.28 0.06,0.06 -0.1,0.23 0.16,0.24 0.18,0.35 0.05,0.58 -0.06,-0.03 -0.11,-0.09 -0.16,-0.12 -0.2,-0.75 -0.69,-0.97 -1.6,-0.99 -0.01,0.01 -0.02,0.02 -0.03,0.04 0.02,0.26 0.04,0.53 0.06,0.79 0.41,-0.02 1.13,0.02 1.43,0.26 0.25,0.19 1.08,2.57 0.98,2.91 -0.08,-0.02 -0.03,0.03 -0.08,-0.03 -0.07,0.01 -0.01,0.04 -0.07,0 -0.13,-0.1 -0.92,-2.13 -1.24,-2.56 -0.16,-0.01 -0.93,-0.13 -1.02,-0.04 0.1,0.25 -0.1,0.19 -0.27,0.28 -0.02,-0.1 -0.04,-0.19 -0.06,-0.29 -0.01,0 -0.02,0 -0.03,0.01 -0.26,0.05 -0.63,0.18 -0.74,0.38 -0.17,0.22 0.61,2.46 0.51,2.94zm0.09 -10.94l2.62 2.36c0,0 -0.24,-0.68 -0.18,-1.08 0.05,-0.4 0.25,-1.56 0.34,-1.67l-0.79 0.88 -0.73 0.62c-0.57,-0.42 -0.4,0.3 1.43,-1.67 -0.01,-0.04 -0.01,-0.16 -0.01,-0.19 -0.05,0.12 -1.98,-0.56 -2.68,0.75zm-0.29 3.05c0.29,-0.17 0.96,-1.14 1.21,-1.35 0.03,0 0.05,0 0.07,0 0.57,0.44 1.13,0.88 1.7,1.33 0,0.03 0,0.07 0.01,0.11 -0.03,0 -0.05,0 -0.07,0 -0.94,0.21 -2.07,0.51 -2.92,-0.09zm-0.92 0.7c-0.37,0.19 -0.76,0.23 -1.18,0.41 -1.79,1.3 1.03,1.63 1.96,1.64 0.01,-0.01 0.02,-0.02 0.03,-0.03 -0.04,-0.78 -0.32,-1.5 -0.65,-1.99 -0.04,0 -0.12,-0.04 -0.16,-0.03z"/>
   <path class="fil1" d="M19.24 26.8c0,0.47 0.02,0.84 -0.27,1.17 -0.35,0.4 -0.43,0.51 -0.39,1.05 -0.26,0.11 -0.39,0.37 -0.91,0.14 -0.13,-0.05 -0.4,-0.14 -0.54,-0.13 -1.05,0.06 -2.28,1.74 -3.33,2.1 -0.48,0.17 -0.92,0.37 -1.34,0.61 -0.23,0.13 -0.29,0.39 -0.38,0.62l-0.42 1.06c-0.06,0.15 -0.12,0.34 -0.22,0.49 -0.05,0.08 -0.33,0.28 -0.31,0.3 0.04,0.06 0.12,0.12 0.18,0.16 0.12,-0.09 0.39,-0.43 0.5,-0.73 0.11,-0.33 0.3,-0.78 0.41,-1.16 0.1,-0.34 0.25,-0.19 0.27,0.09 0.02,0.28 0.13,0.35 0.28,0.52 -0.1,0.22 0.12,0.32 -0.1,0.48 -0.09,0.06 -0.12,-0.03 -0.11,0.14 0.01,0.11 -0.05,0.26 -0.15,0.3 -0.02,0 0.04,0.28 -0.01,0.46 -0.03,0.11 -0.21,0.47 -0.14,0.46 0.18,0 0.17,0.19 0.3,-0.26 0.1,-0.34 0.07,-0.51 0.28,-0.81 0.06,-0.09 0.14,-0.25 0.22,-0.34 0.06,-0.07 0.23,-0.19 0.32,-0.25 0.07,0.13 0.03,0.2 0.04,0.37 0.01,0.22 0.07,0.45 0.19,0.58 0.06,0.07 0.13,0.11 0.16,0.23 0.01,0.05 0.03,0.31 0.06,0.29 0.06,0 0.09,0.01 0.14,0 -0.07,-0.09 0.02,-0.32 -0.06,-0.44 -0.11,-0.17 -0.1,-0.27 -0.12,-0.54 -0.02,-0.18 0.05,-0.46 0.09,-0.62 0.11,0.19 0.32,-0.07 0.37,-0.04 0.09,0.05 0.14,0.05 0.2,0.13 0.05,0.07 0.01,0.19 0.14,0.18 0.05,-0.02 0.1,-0.04 0.1,-0.09 0,-0.12 -0.02,-0.13 -0.08,-0.23 -0.01,-0.01 -0.02,-0.02 -0.02,-0.03 -0.02,-0.03 -0.01,-0.04 -0.01,-0.05 0.39,-0.07 0.72,-0.03 1.07,-0.05 0.34,-0.03 1.26,-0.22 1.54,-0.08 0.08,0.03 0.21,0.28 0.27,0.51 0.07,0.31 0.06,0.62 0.2,0.54 0.07,-0.1 0.13,-0.25 0.11,-0.48 -0.02,-0.21 -0.2,-1.07 0.18,-1.1 0.13,0.03 0.62,0.18 0.79,0.25 0.12,0.05 0.22,0.13 0.35,0.17 0.08,0.02 0.23,0.09 0.29,0.1 0.05,-0.05 0.11,-0.11 0.12,-0.17 0.01,-0.03 0.01,0 0.01,-0.03 -0.26,0.01 -0.46,-0.15 -0.69,-0.29 -0.08,-0.05 -0.18,-0.09 -0.26,-0.16 -0.03,-0.03 -0.22,-0.07 -0.3,-0.14 0.02,-0.12 0.02,-0.27 0.08,-0.37 0.16,-0.24 0.46,-0.31 0.41,-0.52 -0.05,-0.26 0.31,-0.28 0.46,-0.49 0.05,-0.07 0.13,-0.03 0.22,-0.04 0.12,-0.01 0.26,-0.06 0.38,-0.12 0.4,-0.21 0.72,-0.22 0.91,-0.46 0.13,-0.16 0.21,-0.43 0.15,-0.89 -0.23,-0.1 -0.5,-0.07 -0.74,-0.11 -0.12,-0.02 -0.22,-0.07 -0.33,-0.11 -0.05,-0.01 -0.14,0.02 -0.19,0.02 -0.03,0 -0.17,0 -0.17,-0.01 -0.23,-0.29 0.32,-0.72 0.48,-0.87 0.26,-0.23 0.34,-0.66 0.4,-1.01 -0.29,0.29 -0.18,0.71 -0.67,0.99 -0.32,0.19 -0.59,0.48 -0.56,0.88 -0.08,0 -0.07,0.04 -0.19,0.03 -0.13,-0.38 0.24,-0.84 0.36,-1.08 0.14,-0.26 0.04,-0.94 -0.02,-1.12zm0.35 2.34c-0.02,0 0,0.04 0.02,0.06 0.04,0.03 0.22,0.06 0.22,-0.02 0,-0.02 -0.01,-0.03 -0.03,-0.04 -0.08,-0.03 -0.13,-0.01 -0.21,0zm-0.67 0.01c0,0.18 -0.01,0.31 0.05,0.48 0.05,0.14 0.29,0.69 0.43,0.68 0.26,0 0.58,-0.05 0.86,-0.15 0.09,-0.04 0.22,-0.08 0.28,-0.12 0.11,-0.08 0.05,-0.13 -0.02,-0.11 -0.1,0.01 -0.23,0.1 -0.26,0.07 -0.11,-0.09 -0.53,0.18 -0.59,0.07 0.01,-0.31 0.33,-0.32 0.49,-0.27 0.13,0.04 0.16,0.09 0.28,0.01 0.06,-0.03 0.22,-0.01 0.23,-0.06l0.01 -0.17c0.01,-0.09 0.06,-0.2 0.05,-0.28 -0.07,-0.02 -0.15,0 -0.21,-0.03 -0.01,0 -0.13,-0.01 -0.15,-0.01 -0.08,0 -0.15,-0.01 -0.24,-0.02 -0.03,0 -0.14,0.03 -0.24,-0.02 0.02,0.09 -0.34,0.25 -0.4,0.15 -0.06,-0.08 -0.07,-0.14 0,-0.2 -0.11,-0.01 -0.25,0.04 -0.35,0 -0.08,-0.03 -0.16,-0.05 -0.22,-0.02zm-6.27 2.87c0.03,0.21 0.14,1.08 0.37,1.07l0.15 0.02c1.02,-0.27 2.58,-0.39 3.75,-0.53 0.8,-0.09 0.63,-0.74 1.12,-0.93 0.4,-0.17 0.29,-0.5 0.46,-0.62l0.71 -0.51c-0.19,-0.12 -0.26,-0.11 -0.3,-0.3 -0.02,-0.13 -0.08,-0.15 -0.15,-0.22 -0.09,-0.1 0.1,-0.17 0.03,-0.23 -0.09,-0.08 -0.16,-0.12 -0.09,-0.25 0.09,-0.17 -0.05,-0.13 -0.03,-0.27 -1.07,0.41 -1.16,-0.17 -1.73,0 -0.33,0.1 -0.72,0.42 -1.29,0.8 -0.32,0.22 -1.13,0.89 -1.46,1.07 -0.33,0.17 -1.5,0.65 -1.54,0.9z"/>
   <path class="fil1" d="M11.41 14.88c0.01,0.08 0.06,0.14 0.14,0.16 0.12,0.02 0.29,-0.15 0.18,-0.28 -0.07,-0.1 -0.33,-0.01 -0.32,0.12zm-0.41 0.32c0.15,0.23 0.21,0.27 0.59,0.32 0.3,0.03 0.72,-0.38 0.62,-0.87 -0.06,-0.3 -0.08,-0.16 -0.34,-0.34 -0.49,-0.36 -1.21,0.38 -0.87,0.89zm0.21 -0.54c0.12,-0.1 0.22,-0.25 0.57,-0.14 0.21,0.07 0.23,0.72 -0.08,0.79 -0.1,0.02 -0.14,-0.09 -0.27,-0.05 -0.05,0.02 -0.3,-0.28 -0.28,-0.32 0.05,-0.07 0.07,-0.27 0.06,-0.28zm1.02 -1.2c0.09,0 0.11,0.01 0.15,-0.04 0.06,-0.05 0.11,-0.12 0.17,-0.16 0.03,-0.02 0.05,-0.05 0.09,-0.06 0.01,0 0.12,0 0.1,-0.02 0.06,0.15 -0.07,0.47 -0.07,0.43 0.1,0.18 0.34,0.55 0.38,1 0.03,0.33 -0.01,0.56 -0.1,0.86 -0.07,0.23 0.27,0.64 0.25,0.65 0.02,0.08 -0.28,0.05 -0.33,0.01 -0.13,-0.11 -0.28,-0.06 -0.46,-0.01 -0.25,0.07 -0.54,0.19 -0.77,0.2 -0.18,0.02 -0.5,-0.07 -0.69,-0.12 0,-0.01 -0.02,0.07 -0.09,0.11 -0.04,0.03 -0.14,0.01 -0.19,0.02 -0.04,0.01 -0.04,0.06 -0.07,0.08 -0.08,0.05 -0.17,0.01 -0.17,0.01 -0.08,-0.19 0.15,-0.57 -0.01,-0.74 -0.27,-0.28 -0.25,-0.62 -0.28,-1.04 -0.01,-0.13 0.17,-0.43 0.05,-0.53 -0.07,-0.06 -0.22,-0.17 -0.27,-0.4 0.22,-0.14 0.41,0.06 0.57,0.04 0.11,0 0.37,-0.14 0.46,-0.2 0.43,-0.28 0.99,-0.12 1.28,-0.09zm-1.8 1.57c0.05,0.66 0.33,0.88 0.91,1.06 0.12,0.04 0.47,-0.02 0.58,-0.07 0.34,-0.16 0.47,-0.1 0.69,-0.42 0.22,-0.32 0.35,-0.92 0.12,-1.4 -0.3,-0.63 -1.11,-0.7 -1.63,-0.5 -0.32,0.12 -0.58,0.33 -0.67,0.65 -0.06,0.19 -0.02,0.43 0,0.68z"/>
   <path class="fil1" d="M9.73 68c0.05,0.06 0.18,0.16 0.28,0.11 0.2,-0.09 0.23,-0.18 0.13,-0.38 -0.17,-0.32 -0.7,-0.08 -0.41,0.27zm0.6 -0.45c0.05,0.16 0.03,0.36 0.01,0.51 0.01,0 0.53,0.56 0.55,0.47 0.18,-0.16 0.28,-0.47 0.26,-0.78 -0.01,-0.19 -0.13,-0.68 -0.29,-0.74 -0.17,0.15 -0.4,0.41 -0.53,0.54zm-1.02 1.13c0.06,-0.07 0.17,-0.25 0.41,-0.46 0.2,0.09 0.39,0.01 0.53,0 0.06,0.11 0.47,0.42 0.45,0.54 -0.3,0.17 -1.19,0.23 -1.39,-0.08zm0.22 -1.09c-0.02,0.09 -0.15,0.31 0.01,0.52 -0.07,0.14 -0.26,0.34 -0.38,0.43 -0.15,0.11 -0.31,-0.42 -0.32,-0.58 -0.02,-0.27 -0.01,-0.6 0.18,-0.77 0.11,0.12 0.5,0.35 0.51,0.4zm-0.41 -0.59c0.07,0.08 0.45,0.44 0.54,0.45 0.32,-0.1 0.42,0.03 0.5,0.04 0.14,-0.12 0.41,-0.38 0.51,-0.57 0.01,-0.09 -0.06,-0.14 -0.3,-0.16 -0.36,-0.04 -0.76,-0.1 -1.25,0.24zm-0.06 -0.19c0.55,-0.32 1.06,-0.31 1.66,-0.17 0.17,-0.1 0.45,-0.35 0.68,-0.57 0.16,-0.15 0.33,-0.38 0.39,-0.31 -0.07,0.29 -0.59,0.62 -0.78,1.04 -0.01,0.07 0.05,0.16 0.1,0.22 0.3,0.42 0.34,1.17 -0.02,1.61 0.06,0.12 0.33,0.34 0.51,0.48 0.11,0.08 0.17,0.14 0.26,0.23 0.03,0.04 0.04,0.09 0.09,0.12 0.08,0.05 0.02,0.11 0.01,0.14 -0.18,-0.01 -1.03,-0.84 -1.2,-0.7 -0.33,0.21 -1.26,0.23 -1.64,-0.06 -0.14,0.06 -0.37,0.21 -0.46,0.33 -0.11,0.14 -0.29,0.35 -0.49,0.36 0.06,-0.14 0.27,-0.39 0.42,-0.49 0.08,-0.06 0.13,-0.14 0.21,-0.2 0.11,-0.08 0.12,-0.11 0.07,-0.23 -0.02,-0.13 -0.14,-0.24 -0.17,-0.38 -0.04,-0.19 -0.08,-0.34 -0.09,-0.54 -0.02,-0.18 0.23,-0.57 0.17,-0.65 -0.09,-0.11 -0.16,-0.16 -0.27,-0.23 -0.15,-0.09 -0.18,-0.25 -0.35,-0.33 -0.08,-0.04 -0.14,-0.11 -0.2,-0.16 -0.04,-0.04 -0.12,-0.06 -0.12,-0.08 0,-0.24 0.42,0.13 0.77,0.38 0.2,0.14 0.39,0.23 0.45,0.19z"/>
   <path class="fil1" d="M20.48 65.71c-0.02,0.09 0.07,0.52 0.08,0.65 0.02,0.24 0.05,0.29 0.06,0.47 0.03,0.32 0.17,0.89 0.11,1.18 0.01,0 -0.37,0.08 -0.43,0.08 -0.1,0.01 -0.2,0.02 -0.29,0.04 -0.22,0.05 -0.4,0.05 -0.61,0.07 -0.16,0.01 -0.24,0.04 -0.33,0.05 -0.16,0.01 -0.63,0.07 -0.72,0.04 -0.07,-0.13 -0.07,-0.62 -0.08,-0.73 -0.01,-0.18 -0.01,-0.29 -0.08,-0.45 -0.11,-0.25 0,-0.87 -0.1,-1.12 0.2,-0.17 0.84,-0.13 1.13,-0.18 0.22,-0.03 1.07,-0.17 1.26,-0.1zm-2.86 -0.02c0.16,-0.1 0.42,0.07 0.83,0.02l1.23 -0.14c0.24,-0.03 0.59,-0.06 0.75,-0.12 0.14,-0.05 0.33,-0.21 0.45,-0.19 0.01,0.05 -0.05,0.24 -0.16,0.46 -0.02,0.25 -0.01,0.7 0.09,0.98 0.1,0.31 0.09,0.67 0.14,0.93 0.05,0.24 0.15,0.44 0.28,0.61l-0.05 0.07c-0.11,0.01 -0.31,-0.03 -0.41,-0.07 -0.04,-0.01 -0.3,-0.03 -0.34,-0.03 -0.06,0 -0.09,0.06 -0.09,0.05 -0.02,0.04 -0.44,0.03 -0.55,0.05 -0.34,0.06 -0.62,0.11 -0.95,0.13 -0.17,0.01 -0.2,0.01 -0.3,0.08 -0.04,0.03 -0.47,0.26 -0.5,0.18 -0.02,-0.26 0.02,-0.32 0.09,-0.56 0.05,-0.17 -0.12,-0.64 -0.11,-0.83 0.01,-0.26 -0.06,-0.5 -0.08,-0.78 0,-0.1 -0.06,-0.43 -0.1,-0.52 -0.06,-0.13 -0.21,-0.21 -0.22,-0.32zm0.94 0.61c-0.05,0.22 0.09,1.37 0.2,1.52 0.14,0.05 1.27,-0.14 1.49,-0.16 0.01,-0.13 -0.06,-0.21 -0.06,-0.36 0.01,-0.17 0.03,-0.41 -0.04,-0.55 -0.08,-0.15 0.04,-0.46 -0.06,-0.58 -0.2,-0.11 -0.57,0.01 -0.81,0.03 -0.14,0.01 -0.64,0.02 -0.72,0.1zm-0.13 -0.16c-0.03,0.03 -0.07,0.05 -0.08,0.08 -0.03,0.13 0.09,0.24 -0.02,0.34 -0.04,0.04 0.1,0.15 0.06,0.28 -0.04,0.13 0.01,0.15 0.02,0.25 0.02,0.18 0.06,0.37 0.07,0.55 0.01,0.08 0.11,0.4 0.1,0.39 0.18,-0.01 0.71,-0.07 0.95,-0.09 0.14,-0.01 0.38,0 0.5,-0.06 0.05,-0.03 0.2,-0.03 0.25,-0.03 0.12,-0.01 0.17,-0.08 0.16,-0.07 0.03,-0.09 -0.09,-1.09 -0.12,-1.14 -0.05,-0.1 -0.06,-0.6 -0.07,-0.7 -0.12,-0.05 -0.72,0.02 -0.86,0.05 -0.43,0.1 -0.8,0.06 -0.96,0.15zm0.88 0.92c0.1,0.07 0.22,-0.01 0.23,-0.08 0.02,-0.1 -0.04,-0.13 -0.09,-0.14 -0.03,-0.01 -0.06,-0.02 -0.08,-0.02 -0.11,0.01 -0.15,0.17 -0.06,0.24zm-0.16 -0.4c-0.08,0.08 -0.11,0.43 -0.01,0.53 0.06,0.06 0.21,0.1 0.32,0.08 0.12,-0.02 0.26,-0.04 0.25,-0.19 -0.01,-0.07 0.01,-0.17 0,-0.25 -0.02,-0.09 -0.14,-0.2 -0.22,-0.21 -0.11,-0.03 -0.24,-0.03 -0.34,0.04zm-0.17 0.59c0.17,0.16 0.34,0.23 0.58,0.16 0.2,-0.07 0.24,-0.09 0.31,-0.3 0.03,-0.11 -0.02,-0.59 -0.14,-0.59 -0.12,-0.01 -0.03,-0.03 -0.13,-0.06 -0.33,-0.14 -0.69,0.12 -0.72,0.43 -0.02,0.12 -0.02,0.26 0.1,0.36z"/>
   <path class="fil1" d="M18.31 2.65c0.01,0.13 0.1,0.21 0.22,0.24 0.18,0.04 0.44,-0.22 0.28,-0.44 -0.11,-0.14 -0.52,-0.01 -0.5,0.2zm-0.64 0.5c0.23,0.35 0.33,0.42 0.92,0.49 0.47,0.06 1.12,-0.59 0.97,-1.35 -0.09,-0.47 -0.12,-0.24 -0.53,-0.54 -0.76,-0.55 -1.89,0.6 -1.36,1.4zm0.32 -0.85c0.19,-0.15 0.35,-0.38 0.9,-0.21 0.33,0.1 0.35,1.11 -0.13,1.23 -0.16,0.03 -0.22,-0.15 -0.41,-0.08 -0.09,0.03 -0.48,-0.44 -0.44,-0.51 0.08,-0.1 0.1,-0.41 0.08,-0.43zm1.6 -1.86c0.14,-0.01 0.17,0 0.24,-0.07 0.09,-0.09 0.17,-0.19 0.26,-0.25 0.04,-0.03 0.08,-0.08 0.15,-0.1 0,0 0.18,0 0.14,-0.02 0.11,0.23 -0.1,0.73 -0.09,0.66 0.15,0.28 0.52,0.87 0.58,1.57 0.05,0.51 -0.01,0.87 -0.15,1.34 -0.11,0.35 0.41,0.99 0.39,1.01 0.03,0.13 -0.45,0.08 -0.53,0.01 -0.19,-0.16 -0.43,-0.09 -0.7,-0.01 -0.4,0.11 -0.85,0.3 -1.21,0.32 -0.29,0.02 -0.78,-0.11 -1.07,-0.2 -0.01,0 -0.03,0.11 -0.15,0.18 -0.06,0.04 -0.21,0.01 -0.3,0.04 -0.06,0.01 -0.06,0.09 -0.1,0.11 -0.13,0.08 -0.28,0.02 -0.27,0.02 -0.12,-0.3 0.23,-0.88 -0.02,-1.15 -0.41,-0.44 -0.39,-0.98 -0.44,-1.62 -0.01,-0.22 0.28,-0.67 0.09,-0.83 -0.11,-0.1 -0.34,-0.27 -0.43,-0.62 0.34,-0.23 0.65,0.08 0.9,0.06 0.16,-0.01 0.57,-0.23 0.72,-0.32 0.66,-0.44 1.53,-0.19 1.99,-0.13zm-2.81 2.44c0.08,1.03 0.52,1.38 1.42,1.65 0.19,0.06 0.74,-0.03 0.91,-0.11 0.53,-0.25 0.73,-0.16 1.07,-0.64 0.34,-0.51 0.55,-1.44 0.19,-2.19 -0.46,-0.99 -1.74,-1.1 -2.55,-0.78 -0.49,0.19 -0.9,0.51 -1.04,1.01 -0.09,0.29 -0.03,0.67 0,1.06z"/>
   <path class="fil1" d="M14.33 23.9c0.01,0.08 0.07,0.14 0.15,0.16 0.12,0.02 0.29,-0.15 0.19,-0.29 -0.08,-0.09 -0.35,-0.01 -0.34,0.13zm-0.41 0.33c0.15,0.22 0.22,0.27 0.6,0.32 0.31,0.04 0.73,-0.39 0.63,-0.89 -0.06,-0.31 -0.08,-0.16 -0.34,-0.35 -0.5,-0.36 -1.24,0.39 -0.89,0.92zm0.21 -0.56c0.12,-0.1 0.22,-0.25 0.59,-0.14 0.21,0.07 0.23,0.73 -0.09,0.81 -0.1,0.02 -0.14,-0.1 -0.27,-0.05 -0.06,0.02 -0.32,-0.3 -0.29,-0.34 0.05,-0.07 0.07,-0.27 0.06,-0.28zm1.05 -1.22c0.09,-0.01 0.1,0 0.15,-0.04 0.06,-0.06 0.11,-0.13 0.17,-0.17 0.03,-0.02 0.05,-0.05 0.1,-0.06 0,0 0.11,0 0.09,-0.01 0.07,0.15 -0.07,0.47 -0.06,0.43 0.1,0.18 0.34,0.57 0.38,1.02 0.03,0.34 -0.01,0.58 -0.1,0.88 -0.07,0.23 0.27,0.65 0.26,0.66 0.02,0.09 -0.29,0.06 -0.35,0.01 -0.12,-0.11 -0.28,-0.06 -0.46,-0.01 -0.26,0.07 -0.55,0.2 -0.79,0.21 -0.19,0.02 -0.51,-0.07 -0.7,-0.13 -0.01,0 -0.02,0.07 -0.1,0.12 -0.04,0.02 -0.14,0 -0.19,0.02 -0.04,0.01 -0.04,0.06 -0.07,0.08 -0.09,0.05 -0.18,0.01 -0.18,0.01 -0.08,-0.19 0.16,-0.58 -0.01,-0.75 -0.27,-0.29 -0.26,-0.64 -0.29,-1.06 -0.01,-0.15 0.18,-0.44 0.06,-0.55 -0.07,-0.06 -0.22,-0.18 -0.28,-0.4 0.22,-0.15 0.43,0.05 0.59,0.04 0.11,-0.01 0.37,-0.15 0.47,-0.21 0.43,-0.29 1,-0.13 1.31,-0.09zm-1.85 1.6c0.05,0.67 0.35,0.9 0.93,1.08 0.13,0.04 0.49,-0.02 0.6,-0.07 0.34,-0.16 0.48,-0.11 0.7,-0.42 0.22,-0.33 0.36,-0.95 0.13,-1.43 -0.31,-0.65 -1.14,-0.72 -1.67,-0.52 -0.33,0.13 -0.59,0.34 -0.69,0.67 -0.05,0.19 -0.01,0.43 0,0.69z"/>
   <path class="fil1" d="M20.83 15.19l0.06 0.82c0.02,0.3 0.01,0.55 0.06,0.81 0.16,-0.03 0.53,-0.01 0.81,-0.08 0.11,-0.02 0.46,-0.06 0.58,-0.07 0.07,-0.01 0.42,-0.07 0.42,-0.06 0.03,-0.25 -0.06,-0.58 -0.09,-0.86l-0.06 -0.49c-0.01,-0.08 -0.04,-0.17 -0.04,-0.25 0,-0.04 -0.05,-0.04 -0.07,-0.09 -0.44,0.01 -0.75,0.1 -0.92,0.11 -0.24,0.03 -0.54,0.08 -0.75,0.16zm-0.2 -0.22c0.19,0.02 0.96,-0.17 1.31,-0.23 0.18,-0.03 0.43,0 0.6,-0.11 0.03,-0.01 0.02,-0.06 0.04,-0.08 0.01,-0.03 0.05,-0.03 0.06,-0.05 0.01,-0.05 -0.01,-0.09 -0.02,-0.15 0,-0.09 0.01,-0.24 0.01,-0.31 0.02,-0.03 0.06,-0.05 0.13,-0.03 0.05,0.03 -0.02,0.27 0.06,0.34 0.08,0.07 0.32,-0.18 0.43,-0.12 0.02,0.02 0.06,0.07 0.04,0.09 -0.08,0.07 -0.37,0.23 -0.43,0.25 -0.24,0.13 0.04,1.27 0.05,1.46 0.02,0.3 0.02,0.53 0.24,0.68 0.09,0.06 0.44,0.06 0.57,0.06 0.03,0.04 0.04,0.09 0.03,0.13 -0.07,0.07 -0.59,-0.14 -0.43,0.23 0.03,0.07 0.04,0.15 0.04,0.19 -0.02,0.06 -0.1,0.06 -0.15,0.03 -0.03,-0.05 -0.08,-0.14 -0.11,-0.23 -0.02,-0.08 -0.08,-0.16 -0.16,-0.22 -0.03,-0.02 -0.06,-0.06 -0.1,-0.06 -0.49,0.01 -1.52,0.18 -1.95,0.23 -0.06,0.01 -0.05,0.08 -0.07,0.12 -0.03,0.04 -0.09,0.04 -0.1,0.1 -0.04,0.2 -0.05,0.4 -0.06,0.52 -0.05,0.07 -0.14,0.1 -0.18,0.03 -0.04,-0.13 0.01,-0.41 -0.09,-0.41 -0.22,0.02 -0.42,0.05 -0.46,0.03 -0.02,-0.02 -0.05,-0.11 0.01,-0.16 0.13,-0.04 0.35,-0.05 0.53,-0.12 0.12,-0.04 0.22,-0.18 0.26,-0.24 0.06,-0.12 -0.13,-1.68 -0.22,-1.82 -0.02,-0.03 -0.08,-0.09 -0.17,-0.1 -0.16,-0.01 -0.4,0.04 -0.47,0.04 -0.04,-0.03 -0.04,-0.12 -0.01,-0.14 0.14,-0.07 0.41,0 0.38,-0.18 -0.03,-0.15 -0.08,-0.21 -0.08,-0.28 0.03,-0.06 0.09,-0.11 0.13,-0.1 0.06,0.04 0.16,0.57 0.34,0.61zm0.8 0.64c-0.03,0.12 0.01,0.28 0.02,0.41 0,0.01 0.01,0.08 0.01,0.09 0.01,0.03 0.1,0 0.17,0 0.11,-0.01 0.21,-0.03 0.32,-0.03 0.02,0 0.08,-0.01 0.08,-0.01 -0.03,-0.06 -0.01,-0.14 -0.01,-0.21 -0.01,-0.07 -0.02,-0.13 -0.02,-0.19 0,-0.01 -0.03,-0.13 -0.03,-0.13 -0.1,0.03 -0.18,0.03 -0.29,0.03 -0.08,0.01 -0.16,0.02 -0.25,0.04zm-0.29 -0.29c0.15,0.01 0.1,0.08 0.21,0.11 0.09,0.03 0.22,0 0.33,-0.01 0.1,-0.01 0.26,-0.02 0.34,-0.06 0.05,-0.03 0.14,-0.16 0.2,-0.15 0.04,0.1 -0.05,0.16 -0.05,0.26 -0.01,0.14 0,0.29 0.01,0.42 0.01,0.15 0.01,0.17 0.12,0.24 0.09,0.06 0.12,0.21 0.1,0.25 -0.13,0.02 -0.18,-0.1 -0.33,-0.09l-0.55 0.04c-0.07,0 -0.23,0.21 -0.31,0.18 -0.03,-0.1 0.1,-0.29 0.09,-0.33 -0.06,-0.13 -0.04,-0.44 -0.06,-0.56 -0.04,-0.14 -0.1,-0.18 -0.1,-0.3z"/>
   <path class="fil0 str1" d="M3.5 75.39c0.04,0 0.07,-0.01 0.11,-0.01 0.24,0.18 0.12,0.31 0.25,0.55 0.24,0.04 0.48,0.08 0.72,0.12 0.24,0.52 0.5,0.84 0.42,1.42 0.04,-0.02 0.09,-0.03 0.13,-0.05 0.12,1.38 0.29,1.8 0.84,2.73 0.31,0 0.61,0 0.92,0 0.31,-0.14 0.39,-0.52 0.62,-0.71 0.73,-0.61 1.19,-1.11 2.3,-1.37 0.31,-0.07 0.66,-0.21 1.01,-0.08 0.49,0.19 0.75,0.48 1.15,0.73 0.29,-0.14 0.32,-0.26 0.2,-0.61 -0.35,-0.31 -1.51,-1.15 -1.24,-1.61 -0.01,-0.24 -0.02,-0.49 -0.02,-0.74 0.49,-0.02 0.65,0.01 1.05,-0.07 0.01,0.06 0.01,0.11 0.01,0.17 -0.07,0.21 -0.12,0.36 -0.24,0.52 0.14,0.37 0.12,0.64 0.28,0.93 0.36,0.09 0.84,0.61 0.89,1.06 -0.04,0.1 -0.08,0.2 -0.12,0.29 -0.2,0.1 -0.41,0.2 -0.61,0.3 0.05,0.12 0.11,0.25 0.16,0.37 -0.08,0.29 -0.18,0.5 -0.27,0.66 -0.13,0.2 -0.14,0.34 -0.35,0.52 0.15,0.12 0.2,0.59 0.31,0.86 0.15,0.34 0.47,0.62 0.6,0.91 0.09,0.2 -0.52,2.01 -0.52,2.01 -0.01,-0.06 -0.01,-0.12 -0.02,-0.17 -0.05,0 -0.11,0 -0.17,0.01 0.12,-0.21 0.38,-1.07 0.34,-1.65 -0.48,-0.3 -1.32,-1.02 -1.16,-1.86 -0.06,0.02 -0.12,0.04 -0.18,0.05 -0.09,0.23 -0.02,0.26 -0.07,0.46 -0.91,0.65 0.81,1.84 0.56,2.79 -0.13,-0.04 -0.14,-0.05 -0.28,-0.02 -0.03,-0.92 -0.89,-0.96 -1.21,-1.57 -0.3,-0.55 0.07,-1.11 0.09,-1.66 -0.12,-0.08 -0.14,-0.15 -0.3,-0.19 -1.03,0.95 -2.35,1.18 -2.96,1.56 -0.43,0.36 -0.62,0.88 -1.12,1.07 -0.17,0.06 -0.92,0.55 -1.07,0.32 -0.23,0.28 -0.6,0.6 -1.08,0.61 0.11,0.34 -0.41,1.74 -0.68,1.81 -0.02,0.01 -0.03,0.01 -0.04,0.01 -0.08,-0.09 -0.15,-0.18 -0.23,-0.27 0.36,-0.93 0.84,-1.78 1.53,-2.23 0.08,0.1 0.01,0.06 0.15,0.1 0,-0.52 0.77,-0.57 0.62,-1.18 -0.56,0.02 -1.06,0.37 -1.78,0.31 -0.33,-0.03 -0.88,-0.24 -1.33,-0.33 -0.49,-0.1 -0.96,0.5 -1.52,0.43 -0.01,-0.05 -0.03,-0.09 -0.05,-0.14 0.04,-0.09 0.08,-0.19 0.12,-0.29 0.51,-0.15 1.19,-0.27 1.69,-0.16 -0.01,-0.17 -0.02,-0.08 0.12,-0.18 0.52,0.12 0.9,0 1.41,-0.11 0.03,-0.16 -0.02,-0.12 0.09,-0.21 0.05,0.02 0.1,0.04 0.14,0.06 -0.16,-0.3 -0.09,-1.18 0.14,-1.53 0.07,-0.03 0.14,-0.06 0.21,-0.09 0.21,-0.42 0.26,-2.75 -0.23,-3.12 -0.52,0.21 -0.66,0.53 -1.28,0.41 -0.02,-0.07 -0.03,-0.14 -0.05,-0.21 0.13,-0.34 0.26,-0.68 0.39,-1.02 0.2,-0.34 0.48,-0.28 0.61,-0.71z"/>
   <path class="fil1" d="M13.2 54.99c0.01,0.08 0.07,0.14 0.15,0.16 0.11,0.02 0.29,-0.15 0.18,-0.29 -0.07,-0.09 -0.34,-0.01 -0.33,0.13zm-0.42 0.33c0.15,0.23 0.22,0.27 0.6,0.32 0.31,0.04 0.73,-0.39 0.64,-0.88 -0.06,-0.31 -0.08,-0.17 -0.35,-0.36 -0.5,-0.36 -1.24,0.39 -0.89,0.92zm0.21 -0.56c0.12,-0.09 0.23,-0.25 0.59,-0.14 0.22,0.07 0.23,0.73 -0.09,0.81 -0.1,0.02 -0.14,-0.1 -0.27,-0.05 -0.05,0.02 -0.31,-0.29 -0.28,-0.34 0.05,-0.06 0.07,-0.27 0.05,-0.28zm1.05 -1.22c0.09,0 0.11,0 0.16,-0.04 0.05,-0.06 0.11,-0.13 0.16,-0.17 0.03,-0.02 0.06,-0.05 0.1,-0.06 0,0 0.12,0 0.1,-0.01 0.06,0.15 -0.07,0.48 -0.07,0.43 0.1,0.18 0.34,0.57 0.39,1.03 0.03,0.33 -0.01,0.57 -0.1,0.87 -0.07,0.23 0.27,0.65 0.25,0.67 0.02,0.08 -0.29,0.05 -0.34,0 -0.13,-0.11 -0.29,-0.06 -0.47,-0.01 -0.25,0.08 -0.55,0.2 -0.78,0.21 -0.19,0.02 -0.52,-0.07 -0.71,-0.13 0,0 -0.02,0.07 -0.09,0.12 -0.04,0.03 -0.14,0.01 -0.2,0.02 -0.04,0.02 -0.04,0.06 -0.06,0.08 -0.09,0.05 -0.18,0.01 -0.18,0.01 -0.08,-0.19 0.15,-0.58 -0.01,-0.75 -0.27,-0.29 -0.26,-0.64 -0.29,-1.06 -0.01,-0.14 0.18,-0.44 0.06,-0.55 -0.08,-0.06 -0.23,-0.17 -0.29,-0.4 0.23,-0.15 0.43,0.05 0.59,0.04 0.11,-0.01 0.38,-0.15 0.47,-0.21 0.43,-0.29 1.01,-0.13 1.31,-0.09zm-1.84 1.6c0.05,0.68 0.34,0.9 0.93,1.08 0.12,0.04 0.48,-0.02 0.59,-0.07 0.35,-0.16 0.48,-0.1 0.7,-0.42 0.23,-0.33 0.36,-0.94 0.13,-1.43 -0.3,-0.65 -1.14,-0.72 -1.67,-0.52 -0.32,0.13 -0.59,0.34 -0.68,0.67 -0.06,0.19 -0.02,0.43 0,0.69z"/>
   <path class="fil1" d="M16.12 44.97c-0.06,0.08 -0.18,0.27 -0.45,0.29 -0.26,0.02 -0.52,-0.1 -0.57,-0.2 -0.05,-0.1 -0.22,-0.38 -0.06,-0.63 0.16,-0.25 0.33,-0.24 0.33,-0.24 0,0 0.32,-0.04 0.43,0 0.1,0.05 0.3,0.14 0.35,0.35 0.06,0.21 0.03,0.35 -0.03,0.43zm-0.43 -1.1c-0.24,-0.03 -0.59,0.06 -0.59,0.06 -0.11,0.05 -0.39,0.26 -0.42,0.61 -0.02,0.35 0.1,0.73 0.44,0.92 0.33,0.18 0.72,0.11 0.99,-0.01 0.28,-0.12 0.37,-0.45 0.41,-0.61 0.05,-0.16 -0.01,-0.42 -0.16,-0.6 -0.14,-0.17 -0.43,-0.34 -0.67,-0.37zm1.12 -0.36l-0.16 -0.13 0.17 -0.01 -0.01 0.14zm0.08 1.39c-0.03,0.15 -0.07,0.45 -0.39,0.66 -0.33,0.22 -0.83,0.38 -1,0.38 -0.17,0.01 -0.79,-0.15 -0.93,-0.28 -0.13,-0.13 -0.54,-0.67 -0.42,-1.17 0.11,-0.5 0.28,-0.68 0.44,-0.78 0.16,-0.1 0.44,-0.33 0.85,-0.38 0,0 0.53,0 0.77,0.14 0.23,0.13 0.53,0.41 0.6,0.67 0.07,0.25 0.1,0.61 0.08,0.76zm-2.38 1.27l0.03 -0.19 0.12 0.12 -0.15 0.07zm-0.17 -2.67l-0.13 0.17 -0.09 -0.14 0.22 -0.03zm2.97 0.19c-0.03,-0.02 -0.22,0 -0.29,0 -0.07,0.01 -0.05,-0.12 -0.04,-0.17 0.02,-0.05 0.15,-0.08 0.34,-0.19 0.2,-0.11 0.04,-0.15 0,-0.18 -0.05,-0.03 -0.27,0.02 -0.31,0.01 -0.05,-0.01 -0.01,-0.11 0.02,-0.16 0.03,-0.04 0,-0.29 -0.13,-0.19 -0.13,0.1 -0.1,0.18 -0.11,0.27 -0.01,0.09 -0.2,0.13 -0.27,0.13 -0.07,0 -0.04,-0.14 -0.03,-0.24 0.02,-0.09 -0.14,-0.36 -0.25,-0.37 -0.11,-0.01 -0.13,0.1 -0.09,0.16 0.04,0.05 0.17,0.17 0.14,0.25 -0.03,0.08 -0.25,0.05 -0.35,0.02 -0.11,-0.03 -0.54,-0.03 -0.75,0.04 -0.2,0.06 -0.53,0.2 -0.53,0.2 -0.06,0.01 -0.06,-0.1 -0.09,-0.25 -0.03,-0.15 -0.15,-0.11 -0.19,-0.07 -0.04,0.05 -0.01,0.19 0.01,0.27 0.02,0.08 0.05,0.14 -0.08,0.05 -0.14,-0.09 -0.14,-0.31 -0.22,-0.22 -0.08,0.08 -0.03,0.32 -0.03,0.32 0,0 -0.15,0.01 -0.33,-0.02 -0.17,-0.03 -0.21,0.07 -0.16,0.09 0.04,0.02 0.23,0.15 0.27,0.14 0.03,0 0.21,0.21 0.18,0.24 -0.03,0.03 -0.11,0 -0.25,0.01 -0.14,0.02 -0.22,0.12 -0.21,0.2 0.01,0.08 0.2,0.07 0.25,0.05 0.05,-0.02 0.13,0.02 0.13,0.02 -0.1,0.13 -0.05,0.29 -0.1,0.58 -0.05,0.29 0.11,0.61 0.14,0.69 0.02,0.07 0.17,0.24 0.12,0.29 -0.06,0.05 -0.09,0.04 -0.27,0.09 -0.18,0.04 -0.05,0.22 0.06,0.21 0.11,-0.01 0.34,-0.02 0.34,-0.02 0,0 0.17,-0.1 0.07,0.07 -0.09,0.18 -0.01,0.18 -0.14,0.35 -0.14,0.17 0.09,0.11 0.1,0.08 0,-0.04 0.12,-0.06 0.09,-0.05 -0.02,0.02 -0.02,0.11 0,0.1 0.02,0 0.13,-0.03 0.17,-0.07 0.04,-0.03 0.15,-0.12 0.19,-0.18 0.04,-0.06 0.2,-0.05 0.09,0.09 -0.1,0.15 0.08,0.19 0.11,0.15 0.03,-0.05 0.13,-0.17 0.16,-0.24 0.03,-0.07 0.14,-0.03 0.36,-0.03 0.22,-0.01 0.61,-0.12 0.74,-0.13 0.14,-0.01 0.15,0.09 0.15,0.2 0.01,0.11 0.05,0.2 0.11,0.18 0.07,-0.02 0.1,-0.11 0.12,-0.17 0.02,-0.06 0,-0.24 -0.03,-0.28 -0.03,-0.04 -0.02,-0.09 0.06,-0.13 0.09,-0.05 0.17,-0.14 0.32,-0.26 0.15,-0.12 0.3,-0.48 0.32,-0.61 0.03,-0.13 -0.01,-0.55 -0.03,-0.67 -0.01,-0.13 -0.11,-0.36 -0.1,-0.41 0,-0.05 0.12,-0.03 0.18,-0.02 0.07,0.01 0.26,-0.02 0.24,-0.1 -0.02,-0.07 -0.16,-0.09 -0.2,-0.12z"/>
  </g>
 </g>
</svg>
