<?xml version="1.0" encoding="UTF-8"?>
<!DOCTYPE svg PUBLIC "-//W3C//DTD SVG 1.1//EN" "http://www.w3.org/Graphics/SVG/1.1/DTD/svg11.dtd">
<!-- Creator: CorelDRAW 2020 (64-Bit) -->
<svg xmlns="http://www.w3.org/2000/svg" xml:space="preserve" width="143px" height="510px" version="1.1" style="shape-rendering:geometricPrecision; text-rendering:geometricPrecision; image-rendering:optimizeQuality; fill-rule:evenodd; clip-rule:evenodd"
viewBox="0 0 11.91 42.49"
 xmlns:xlink="http://www.w3.org/1999/xlink"
 xmlns:xodm="http://www.corel.com/coreldraw/odm/2003">
 <defs>
  <style type="text/css">
   <![CDATA[
    .str0 {stroke:#FFD899;stroke-width:0.08;stroke-miterlimit:22.9256}
    .fil0 {fill:#FFD899}
   ]]>
  </style>
 </defs>
 <g id="Слой_x0020_1">
  <metadata id="CorelCorpID_0Corel-Layer"/>
  <g id="_2270560705408">
   <path class="fil0" d="M4.49 15.89c0.05,-0.04 0.13,-0.12 0.22,-0.15 0.08,-0.03 0.2,-0.06 0.25,-0.05 0.06,0.02 0.16,0.09 0.19,0.15 0.03,0.05 0.15,0.2 0.19,0.22 0.04,0.02 0.08,0.08 0.07,0.11 -0.01,0.03 -0.06,0.05 -0.1,0.02 -0.04,-0.03 -0.13,-0.13 -0.16,-0.18 -0.03,-0.05 -0.09,-0.13 -0.11,-0.14 -0.01,-0.02 -0.05,-0.08 -0.07,-0.08 -0.02,0 -0.09,0 -0.11,0.01 -0.02,0.02 -0.09,0.06 -0.11,0.06 -0.01,0 -0.09,0.03 -0.11,0.06 -0.03,0.02 -0.05,0.11 -0.04,0.15 0.01,0.05 0.08,0.17 0.1,0.21 0.02,0.04 0.13,0.24 0.14,0.25 0.02,0.02 0.04,0.07 0.04,0.08 0.01,0.01 0.1,-0.01 0.13,0 0.02,0.01 0.12,-0.04 0.18,-0.06 0.05,-0.02 0.26,-0.09 0.28,-0.1 0.03,-0.01 0.25,-0.06 0.28,-0.08 0.03,-0.03 0.25,-0.05 0.26,-0.06 0.02,0 0.11,-0.1 0.17,-0.14 0.06,-0.03 0.07,-0.05 0.07,-0.05l0.08 -0.02c0,0 0.01,-0.05 0.03,-0.09 0.02,-0.03 0.04,-0.07 0.07,-0.04 0.02,0.03 0,0.09 0,0.13 0,0.04 -0.01,0.11 0.01,0.14 0.02,0.03 0.11,0.19 0.14,0.23 0.02,0.04 0.1,0.22 0.11,0.26 0,0.04 0.03,0.16 0.03,0.18 0,0.03 -0.03,0.05 -0.06,0 -0.04,-0.05 -0.09,-0.18 -0.09,-0.21 -0.01,-0.04 -0.07,-0.09 -0.09,-0.11 -0.02,-0.01 -0.04,-0.05 -0.04,-0.08 0,-0.02 -0.01,-0.07 -0.03,-0.1 -0.03,-0.03 -0.08,-0.09 -0.1,-0.08 -0.01,0.01 -0.09,0.02 -0.13,0.03 -0.04,0 -0.06,-0.01 -0.11,0.01 -0.04,0.03 -0.04,0.07 -0.12,0.06 -0.08,0 -0.14,0.07 -0.14,0.07 0,0 -0.12,0.02 -0.17,0.03 -0.05,0 -0.14,0.01 -0.18,0.04 -0.04,0.03 -0.11,0.07 -0.15,0.07 -0.05,0.01 -0.15,0.04 -0.18,0.07 -0.03,0.03 -0.13,0.1 -0.16,0.13 -0.02,0.03 -0.06,0.02 -0.03,0.11 0.03,0.1 0.07,0.23 0.11,0.27 0.04,0.05 0.08,0.09 0.08,0.12 0,0.02 -0.03,0.07 -0.09,0.06 -0.06,0 -0.13,-0.17 -0.14,-0.22 -0.01,-0.04 -0.08,-0.25 -0.1,-0.28 -0.01,-0.03 -0.03,-0.18 -0.03,-0.21 0,-0.04 -0.08,-0.19 -0.12,-0.24 -0.05,-0.05 -0.12,-0.16 -0.12,-0.22 -0.01,-0.06 -0.02,-0.08 -0.02,-0.08 0,0 -0.05,0.04 -0.07,0.05 -0.02,0 -0.05,0.03 -0.08,0.01 -0.02,-0.02 -0.03,-0.04 0.01,-0.08 0.03,-0.04 0.08,-0.07 0.1,-0.08 0.01,-0.01 -0.02,-0.14 0.02,-0.16z"/>
   <path class="fil0" d="M0.15 19.09c0,0 -0.06,0.03 -0.02,0.07 0.03,0.04 0.04,0.08 0.04,0.11 0.01,0.02 0.01,0.05 0,0.06 -0.01,0 -0.06,0 -0.06,-0.01 -0.01,-0.01 -0.07,-0.02 -0.08,-0.01 -0.01,0.01 -0.05,0.06 -0.02,0.1 0.03,0.03 0.09,0.05 0.12,0.05 0.03,0.01 0.1,-0.01 0.12,0.01 0.01,0.02 0.01,0.08 0.04,0.11 0.02,0.02 0.05,0.06 0.05,0.07 -0.01,0.01 -0.07,0.04 -0.08,0.05 -0.02,0.02 -0.07,0.05 -0.07,0.03 0,-0.01 -0.05,-0.06 -0.05,-0.08 -0.01,-0.02 -0.07,-0.03 -0.09,0 -0.01,0.03 -0.03,0.06 -0.01,0.07 0.03,0.02 0.08,0.07 0.09,0.09 0,0.02 -0.01,0.09 0.01,0.1 0.01,0.02 0.04,0.04 0.06,0.04 0.02,0 0.06,0.01 0.06,0.04 0,0.02 -0.01,0.08 -0.01,0.09 0.01,0.02 0.04,0.06 0.07,0.03 0.02,-0.03 0.03,-0.05 0.03,-0.08 -0.01,-0.04 -0.04,-0.1 -0.03,-0.13 0.02,-0.02 0.03,-0.06 0.04,-0.09 0,-0.03 0,-0.06 0.02,-0.05 0.02,0.02 0.09,0.07 0.09,0.1 -0.01,0.03 -0.02,0.12 -0.03,0.14 -0.01,0.03 -0.02,0.16 -0.02,0.18 0.01,0.02 0,0.06 0.03,0.07 0.03,0.01 0.06,0.01 0.07,-0.01 0.01,-0.02 0.03,-0.11 0.03,-0.13 0.01,-0.02 0.02,-0.07 0.01,-0.09 0,-0.01 -0.04,-0.09 -0.02,-0.09 0.02,0 0.04,0.04 0.06,0.04 0.02,0 0.04,0.02 0.04,0.03 -0.01,0.01 -0.01,0.04 0.02,0.06 0.02,0.02 0.05,0.06 0.05,0.08 -0.01,0.02 0.02,0.07 0.05,0.08 0.03,0 0.07,-0.06 0.05,-0.12 -0.02,-0.06 -0.04,-0.1 -0.05,-0.12 -0.02,-0.03 -0.06,-0.09 -0.08,-0.1 -0.01,-0.01 -0.09,-0.05 -0.12,-0.07 -0.03,-0.01 -0.06,-0.08 -0.04,-0.09 0.01,-0.02 0,-0.05 0.05,-0.05 0.05,-0.01 0.07,-0.02 0.08,-0.03 0.02,-0.01 0.03,0 0.04,0.03 0.01,0.02 0.04,0.07 0.06,0.09 0.01,0.02 0.03,0.06 0.05,0.06 0.02,0 0.05,0.01 0.07,0 0.01,0 0.03,-0.06 0.02,-0.08 -0.01,-0.02 -0.06,-0.04 -0.07,-0.05 -0.01,-0.02 -0.05,-0.07 -0.03,-0.07 0.01,0 0.06,0.01 0.08,0.01 0.01,0 0.04,-0.01 0.08,-0.03 0.03,-0.01 0.04,-0.04 0.03,-0.06 -0.01,-0.01 -0.04,-0.03 -0.06,-0.02 -0.02,0 -0.07,0.02 -0.09,0.02 -0.03,0.01 -0.09,0.02 -0.1,0 -0.01,-0.02 0.02,-0.04 0.04,-0.06 0.01,-0.01 0.03,-0.05 0.03,-0.07 -0.01,-0.02 -0.04,-0.06 -0.07,-0.06 -0.04,0.01 -0.08,0.02 -0.09,0.03 -0.01,0.02 -0.04,0.08 -0.02,0.11 0.02,0.03 0.01,0.04 0,0.05 -0.01,0.01 -0.08,0.02 -0.1,0.04 -0.02,0.01 -0.06,0.03 -0.07,0.01 -0.02,-0.01 -0.06,-0.08 -0.04,-0.13 0.03,-0.06 0.09,-0.18 0.1,-0.19 0.02,-0.01 0.03,-0.05 0.03,-0.08 0,-0.03 -0.04,-0.06 -0.07,-0.06 -0.03,0.01 -0.07,0.04 -0.08,0.07 0,0.04 -0.01,0.08 -0.02,0.09 -0.01,0.02 -0.06,0.03 -0.06,0 0,-0.03 0,-0.13 -0.01,-0.16 -0.02,-0.03 -0.08,-0.06 -0.15,-0.04z"/>
   <path class="fil0" d="M3.78 18.58c0,0.05 -0.03,0.07 -0.05,0.1 -0.01,0.03 -0.01,0.06 -0.03,0.12 -0.03,0.07 -0.06,0.1 -0.08,0.13 -0.03,0.03 -0.07,0.08 -0.09,0.12 -0.02,0.05 -0.06,0.14 -0.12,0.18 -0.06,0.04 -0.12,0.07 -0.14,0.1 -0.02,0.02 -0.11,0.1 -0.16,0.12 -0.05,0.02 -0.19,0.08 -0.23,0.09 -0.04,0.02 -0.16,0.05 -0.19,0.06 -0.03,0.02 -0.1,0.03 -0.1,0.07 0,0.04 0,0.09 -0.02,0.15 -0.01,0.07 -0.02,0.14 -0.03,0.17 -0.01,0.03 -0.03,0.12 -0.01,0.18 0.02,0.07 0.04,0.09 0.01,0.1 -0.03,0 -0.06,-0.03 -0.08,-0.07 -0.02,-0.04 -0.08,-0.07 -0.11,-0.14 -0.03,-0.07 -0.05,-0.13 -0.07,-0.18 -0.02,-0.05 -0.1,-0.14 -0.13,-0.15 -0.02,-0.02 -0.08,-0.07 -0.05,-0.13 0.03,-0.07 0.03,-0.04 0.04,-0.07 0.02,-0.03 0,-0.05 0.03,-0.09 0.03,-0.04 0.11,-0.13 0.15,-0.14 0.02,-0.01 0.06,-0.08 0.12,-0.11 0.06,-0.04 0.1,-0.1 0.13,-0.15 0.03,-0.04 0.1,-0.09 0.12,-0.1 0.02,-0.01 0.12,-0.06 0.15,-0.1 0.03,-0.04 0.11,-0.06 0.14,-0.07 0.03,0 0.14,-0.06 0.18,-0.1 0.05,-0.03 0.15,-0.1 0.18,-0.12 0.03,-0.01 0.14,-0.03 0.17,-0.03 0.02,0.01 0.11,-0.01 0.13,-0.02 0.01,-0.01 0.07,-0.04 0.1,-0.02 0.03,0.02 0.05,0.06 0.04,0.1zm-1.25 -0.86c-0.06,-0.02 -0.08,-0.07 -0.07,-0.12 0,-0.04 0.04,-0.13 0.05,-0.18 0.01,-0.04 0.07,-0.12 0.11,-0.15 0.01,-0.01 0.12,-0.06 0.15,-0.05 0.03,0 0.09,-0.03 0.1,-0.04 0.01,-0.02 0.09,-0.04 0.12,-0.06 0.04,-0.02 0.08,-0.05 0.12,-0.08 0.03,-0.03 0.11,-0.05 0.14,-0.05 0.02,-0.01 0.12,-0.03 0.14,-0.05 0.02,-0.02 0.1,-0.04 0.11,-0.02 0.02,0.01 0.05,0.05 0.01,0.11 -0.03,0.07 -0.07,0.15 -0.1,0.19 -0.03,0.04 -0.09,0.12 -0.13,0.15 -0.04,0.02 -0.13,0.07 -0.23,0.11 -0.1,0.04 -0.16,0.08 -0.21,0.12 -0.04,0.03 -0.17,0.1 -0.2,0.11 -0.02,0.01 -0.05,0.02 -0.11,0.01zm1.95 0.69c-0.03,-0.02 -0.16,-0.13 -0.23,-0.17 -0.07,-0.03 -0.15,-0.16 -0.19,-0.18 -0.03,-0.02 -0.17,0.01 -0.17,0.03 -0.01,0.01 -0.14,0.08 -0.17,0.1 -0.02,0.02 -0.11,0.05 -0.15,0.04 -0.05,-0.01 -0.12,-0.11 -0.14,-0.14 -0.02,-0.03 -0.08,-0.05 -0.15,-0.08 -0.08,-0.03 -0.2,-0.01 -0.24,0 -0.03,0 -0.19,0.05 -0.22,0.06 -0.03,0.02 -0.13,0.08 -0.17,0.1 -0.03,0.02 -0.01,-0.06 -0.01,-0.09 0,-0.04 -0.02,-0.12 -0.02,-0.15 0,-0.03 0.04,-0.12 0.05,-0.13 0.01,-0.02 0.08,-0.05 0.1,-0.06 0.03,-0.01 0.15,-0.06 0.19,-0.07 0.03,-0.01 0.16,-0.08 0.18,-0.08 0.02,-0.01 0.08,-0.01 0.11,0.03 0.02,0.04 0.03,0.11 0.06,0.23 0.02,0.12 0.04,0.11 0.07,0.12 0.03,0 0.1,-0.01 0.09,-0.02 -0.01,-0.02 -0.01,-0.09 -0.06,-0.24 -0.05,-0.15 -0.04,-0.2 -0.04,-0.23 0,-0.03 0.09,-0.15 0.09,-0.17 0,-0.02 0.08,-0.13 0.09,-0.2 0.02,-0.07 0.14,-0.09 0.18,-0.12 0.04,-0.04 0.23,-0.1 0.27,-0.12 0.03,-0.02 0.13,0.02 0.15,0.01 0.03,-0.02 0.03,-0.04 0.02,-0.06 -0.01,-0.02 -0.05,-0.06 -0.05,-0.09 0,-0.02 -0.04,-0.08 -0.05,-0.1 -0.01,-0.01 -0.11,-0.07 -0.13,-0.1 -0.02,-0.02 -0.1,-0.05 -0.09,-0.04 0,0.01 -0.04,0.03 -0.09,0.04 -0.05,0 -0.05,-0.03 -0.05,-0.05 -0.01,-0.02 -0.07,-0.01 -0.07,0 -0.01,0.01 -0.04,0.04 -0.05,0.03 -0.02,0 -0.12,-0.08 -0.15,-0.09 -0.02,-0.01 -0.13,-0.03 -0.16,-0.02 -0.03,0 -0.25,0.06 -0.25,0.08 -0.01,0.01 -0.12,0.13 -0.13,0.17 -0.02,0.03 0,0.19 0,0.19 -0.01,0.04 0,0.06 0,0.09 0.01,0.04 0.06,0.06 0.08,0.05 0.02,-0.01 0.05,-0.06 0.05,-0.08 0,-0.02 -0.02,-0.15 -0.02,-0.17 0,-0.01 0.04,-0.08 0.06,-0.11 0.02,-0.02 0.13,-0.09 0.16,-0.1 0.03,-0.02 0.11,0 0.14,0.02 0.03,0.01 0.06,0.06 0.07,0.08 0.01,0.03 0.03,0.1 0.05,0.1 0.03,0.01 0.03,0.04 0.02,0.06 -0.02,0.03 -0.09,0.09 -0.11,0.1 -0.02,0.01 -0.14,0.03 -0.16,0.04 -0.02,0 -0.12,0.02 -0.16,0.04 -0.04,0.01 -0.19,0.1 -0.21,0.11 -0.02,0 -0.11,0.05 -0.19,0.07 -0.08,0.03 -0.2,0.12 -0.23,0.14 -0.03,0.02 -0.16,0.19 -0.21,0.22 -0.05,0.04 -0.16,0.12 -0.19,0.14 -0.04,0.02 -0.08,0.03 -0.07,0.07 0.02,0.03 0.05,0.04 0.06,0.03 0.01,-0.01 0.06,-0.04 0.07,-0.05 0,-0.01 0.03,-0.03 0.08,-0.04 0.04,-0.01 0.05,-0.01 0.09,-0.02 0.04,-0.01 0.07,0.06 0.09,0.09 0.01,0.03 0.06,0.08 0.07,0.11 0.02,0.02 0.05,0.13 0.08,0.18 0.03,0.04 0.03,0.14 0.03,0.19 0,0.05 -0.08,0.07 -0.1,0.09 -0.03,0.02 -0.12,0.06 -0.14,0.08 -0.01,0.02 -0.07,0.08 -0.1,0.11 -0.03,0.04 -0.06,0.11 -0.1,0.17 -0.03,0.06 -0.03,0.13 -0.02,0.15 0,0.03 0.06,0.15 0.06,0.21 0,0.05 0.04,0.08 0.06,0.08 0.03,0 0.03,-0.03 0.03,-0.05 0,-0.01 -0.02,-0.13 -0.02,-0.16 0,-0.03 -0.02,-0.2 -0.02,-0.22 0,-0.01 0.05,-0.09 0.07,-0.11 0.01,-0.02 0.1,-0.09 0.12,-0.12 0.01,-0.03 0.14,-0.12 0.19,-0.15 0.06,-0.03 0.21,-0.1 0.26,-0.13 0.05,-0.03 0.2,-0.06 0.22,-0.05 0.02,0 0.08,0.03 0.12,0.05 0.05,0.02 0.15,0.07 0.17,0.08 0.01,0.02 0.08,0.12 0.09,0.13 0.01,0.02 0.01,0.04 0,0.07 -0.02,0.02 -0.09,0.05 -0.14,0.07 -0.05,0.01 -0.21,0.07 -0.23,0.08 -0.03,0.01 -0.1,0.03 -0.15,0.03 -0.05,-0.01 -0.09,0.02 -0.1,0.05 -0.02,0.02 -0.17,0.17 -0.18,0.2 -0.01,0.02 -0.16,0.12 -0.2,0.15 -0.04,0.02 -0.19,0.13 -0.24,0.17 -0.06,0.05 -0.17,0.17 -0.18,0.2 -0.01,0.03 -0.05,0.14 -0.06,0.16 -0.01,0.02 -0.08,0.06 -0.2,0.11 -0.12,0.04 -0.14,0.05 -0.19,0.11 -0.06,0.05 -0.01,0.05 0.03,0.08 0.03,0.02 0.06,-0.02 0.07,-0.03 0.02,-0.02 0.12,-0.07 0.13,-0.08 0.02,-0.02 0.09,-0.05 0.11,-0.05 0.03,0.01 0.08,0.05 0.09,0.08 0.01,0.02 0.06,0.12 0.09,0.16 0.02,0.03 0.12,0.14 0.16,0.15 0.03,0.02 0.09,0.12 0.13,0.18 0.03,0.06 0.12,0.2 0.14,0.25 0.01,0.04 0.06,0.15 0.1,0.14 0.05,-0.01 0.2,0.08 0.24,0.08 0.04,0 0.05,-0.05 0.04,-0.06 -0.01,-0.02 -0.06,-0.05 -0.09,-0.05 -0.03,0 -0.08,-0.03 -0.08,-0.05 0,-0.02 -0.08,-0.11 -0.08,-0.13 -0.01,-0.01 0.01,-0.13 0,-0.15 0,-0.03 0.01,-0.16 0.01,-0.2 -0.01,-0.04 0.02,-0.24 0.01,-0.25 0,-0.01 0.15,-0.15 0.17,-0.17 0.01,-0.02 0.12,-0.07 0.14,-0.07 0.03,0 0.24,-0.05 0.26,-0.05 0.02,0 0.05,0.03 0.12,0.05 0.06,0.02 0.16,0.1 0.19,0.11 0.03,0.02 0.13,0.12 0.19,0.21 0.06,0.09 0.09,0.08 0.11,0.06 0.02,-0.01 0.04,-0.05 0.04,-0.08 0,-0.02 -0.02,-0.06 -0.07,-0.1 -0.05,-0.03 -0.15,-0.21 -0.17,-0.23 -0.03,-0.03 -0.1,-0.13 -0.13,-0.14 -0.03,-0.01 -0.03,-0.04 -0.02,-0.07 0.02,-0.02 0.05,-0.1 0.09,-0.13 0.03,-0.03 0.07,-0.11 0.1,-0.16 0.02,-0.04 0.09,-0.18 0.11,-0.23 0.02,-0.05 0.1,-0.13 0.14,-0.15 0.03,-0.02 0.09,-0.1 0.09,-0.09 0,0.01 0.08,0.03 0.11,0.03 0.03,0.01 0.11,-0.01 0.14,-0.03 0.02,-0.01 0.06,-0.03 0.08,-0.01 0.03,0.01 0.09,0.04 0.11,0.03 0.02,-0.01 0.05,-0.08 0.07,-0.1 0.02,-0.02 -0.03,-0.07 -0.06,-0.1z"/>
   <path class="fil0" d="M6.27 10.12c0,0.02 -0.08,0.16 -0.1,0.17 -0.02,0.01 -0.12,0 -0.17,0.03 -0.05,0.02 -0.14,0.08 -0.18,0.1 -0.04,0.03 -0.09,0.08 -0.13,0.08 -0.03,0 -0.08,0.01 -0.09,0.03 -0.01,0.03 0.01,0.04 -0.05,0.06 -0.05,0.02 -0.11,0.04 -0.17,0.07 -0.05,0.03 -0.08,0.05 -0.13,0.07 -0.05,0.01 -0.13,0.06 -0.18,0.03 -0.06,-0.02 -0.13,-0.07 -0.14,-0.1 -0.01,-0.02 0,-0.09 0,-0.11 0.01,-0.02 0.05,-0.09 0.07,-0.11 0.02,-0.02 0.2,-0.21 0.24,-0.25 0.04,-0.05 0.15,-0.17 0.18,-0.18 0.02,-0.01 0.09,-0.11 0.11,-0.14 0.02,-0.04 0.11,-0.09 0.13,-0.11 0.03,-0.02 0.13,-0.08 0.14,-0.09 0.01,0 0.05,-0.04 0.07,-0.04 0.02,-0.02 0.04,-0.02 0.07,-0.02 0.03,0 0.07,-0.01 0.08,0 0.01,0.01 0.06,0.05 0.08,0.04 0.02,-0.01 0.07,0.06 0.08,0.08 0.02,0.02 0.03,0.09 0.05,0.12 0.02,0.03 0.03,0.07 0.04,0.11 0,0.03 0,0.14 0,0.16zm1.05 0.51c-0.02,-0.01 -0.07,-0.09 -0.08,-0.11 -0.01,-0.02 -0.02,-0.05 -0.05,-0.06 -0.03,0 -0.04,-0.01 -0.08,-0.05 -0.03,-0.04 -0.03,-0.03 -0.12,-0.12 -0.09,-0.09 -0.15,-0.07 -0.17,-0.09 -0.03,-0.02 -0.08,-0.07 -0.11,-0.06 -0.04,0.01 -0.17,0.01 -0.17,-0.02 0,-0.02 -0.01,-0.11 -0.02,-0.13 -0.02,-0.01 -0.07,-0.09 -0.09,-0.16 -0.02,-0.06 -0.04,-0.07 -0.04,-0.1 0,-0.03 0.01,-0.06 -0.01,-0.14 -0.03,-0.09 -0.02,-0.11 -0.02,-0.11 0,0 -0.01,-0.02 0.02,-0.07 0.03,-0.04 0.03,-0.09 0.02,-0.15 -0.02,-0.06 0.01,-0.1 0.03,-0.15 0.01,-0.06 0.03,-0.11 0.03,-0.16 0.01,-0.04 0.03,-0.1 0.04,-0.18 0.02,-0.07 0.08,-0.12 0.1,-0.16 0.02,-0.04 0.12,-0.16 0.15,-0.19 0.04,-0.02 0.02,-0.08 0.01,-0.08 -0.01,-0.01 -0.04,-0.03 -0.06,-0.05 -0.01,-0.03 -0.04,-0.01 -0.05,0.02 -0.02,0.04 -0.13,0.12 -0.18,0.15 -0.04,0.03 -0.1,0.1 -0.15,0.13 -0.04,0.02 -0.15,-0.07 -0.18,-0.1 -0.03,-0.04 -0.05,0 -0.05,0 -0.01,0.03 0.02,0.05 0.03,0.07 0.01,0.01 0.07,0.05 0.07,0.07 0,0.02 -0.01,0.02 -0.03,0.02 -0.03,0 -0.1,0.06 -0.12,0.08 -0.03,0.02 0,0.05 0.03,0.05 0.02,0 0.07,-0.02 0.09,-0.03 0.02,-0.01 0.07,-0.02 0.07,0 0.01,0.01 0.03,0.03 0.02,0.06 0,0.02 -0.02,0.07 -0.03,0.11 -0.02,0.05 -0.12,0.22 -0.13,0.26 -0.02,0.04 -0.11,0.19 -0.12,0.2 -0.02,0.01 -0.14,0.01 -0.2,0.03 -0.06,0.02 -0.25,0.2 -0.29,0.28 -0.04,0.07 -0.26,0.22 -0.3,0.28 -0.04,0.06 -0.28,0.23 -0.33,0.26 -0.06,0.03 -0.14,0.13 -0.18,0.17 -0.04,0.04 -0.24,0.21 -0.25,0.24 0,0.02 -0.02,0.11 -0.04,0.14 -0.01,0.02 -0.05,0.12 -0.04,0.13 0.01,0.01 0.04,0.01 0.04,0 0,-0.01 0.03,-0.05 0.03,-0.05 0,0 0.04,0.02 0.06,0.1 0.03,0.08 0.14,0.15 0.16,0.17 0.02,0.02 0,0.06 0,0.11 0.01,0.05 0.03,0.09 0.05,0.13 0.02,0.03 0,0.2 0.02,0.23 0.01,0.03 0.09,0.1 0.09,0.14 0.01,0.04 0.06,0.07 0.08,0.1 0.02,0.02 0.07,0.09 0.11,0.12 0.04,0.03 0.09,0 0.11,-0.02 0.02,-0.02 0.01,-0.05 -0.01,-0.07 -0.03,-0.02 -0.1,-0.08 -0.14,-0.11 -0.04,-0.04 -0.08,-0.12 -0.09,-0.16 -0.01,-0.04 0.01,-0.09 -0.01,-0.11 -0.01,-0.02 -0.02,-0.08 -0.02,-0.1 0.01,-0.02 0.04,-0.07 0.04,-0.11 0,-0.04 0.01,-0.09 0.02,-0.14 0.01,-0.04 0.05,-0.04 0.07,-0.05 0.02,0 0.1,-0.05 0.11,-0.07 0.01,-0.03 0.07,-0.05 0.11,-0.06 0.04,0 0.07,-0.01 0.1,-0.04 0.03,-0.03 0.11,-0.03 0.16,-0.05 0.05,-0.02 0.08,-0.04 0.13,-0.05 0.06,0 0.08,-0.03 0.11,-0.06 0.04,-0.03 0.1,-0.04 0.12,-0.06 0.02,-0.02 0.08,-0.03 0.11,-0.05 0.02,-0.02 0.07,-0.03 0.15,-0.06 0.08,-0.03 0.11,-0.06 0.12,-0.08 0.01,-0.03 0.08,-0.04 0.1,-0.05 0.03,-0.02 0.08,-0.02 0.13,-0.04 0.04,-0.03 0.08,-0.1 0.08,-0.11 0,-0.01 0.01,-0.03 0.03,-0.03 0.02,0.01 0.05,0.03 0.09,0.04 0.05,0.01 0.09,0.02 0.17,0.01 0.09,-0.01 0.14,0.01 0.16,0.02 0.02,0.01 0.11,0.1 0.12,0.13 0.02,0.04 0.03,0.04 0.04,0.04 0.01,0.01 0.03,-0.02 0.05,0.02 0.02,0.05 0.07,0.08 0.1,0.09 0.03,0.02 0.06,0.06 0.09,0.06 0.03,0 0.02,-0.05 -0.01,-0.06z"/>
   <path class="fil0" d="M7.05 1.32c0.07,0.13 0.34,0.04 0.36,-0.1 0.01,-0.06 -0.02,-0.13 -0.07,-0.17 -0.12,-0.09 -0.44,-0.01 -0.29,0.27zm0.05 -0.43c-0.48,0.16 -0.18,0.8 0.22,0.62 0.2,-0.1 0.28,-0.16 0.24,-0.39 -0.03,-0.18 -0.3,-0.29 -0.46,-0.23zm0.97 -0.89c-0.1,-0.02 -0.19,0.24 -0.34,0.34 -0.15,0.1 -0.23,0.27 -0.36,0.36 -0.1,-0.01 -0.17,-0.03 -0.27,-0.02 -0.1,0.01 -0.23,0.07 -0.26,0.11 -0.19,-0.02 -0.36,-0.14 -0.53,-0.2 -0.18,-0.06 -0.41,-0.24 -0.46,-0.14 -0.07,0.07 0.27,0.24 0.39,0.42 0.06,0.08 0.07,0.1 0.17,0.17 0.04,0.03 0.07,0.06 0.12,0.09 0.01,0 0.1,0.06 0.1,0.05 0,0.01 0,0.15 0.03,0.23 -0.08,0.04 -0.4,0.38 -0.43,0.42 -0.1,0.11 -0.18,0.14 -0.25,0.27 -0.07,0.14 0.01,0.18 0.09,0.14 0.08,-0.06 0.18,-0.2 0.22,-0.23 0.07,-0.06 0.26,-0.12 0.34,-0.15 0.05,-0.02 0.16,-0.06 0.21,-0.09 0.02,-0.01 0.15,-0.09 0.15,-0.08 0.15,0.08 0.43,-0.02 0.56,-0.07 0.2,0.01 0.27,0.11 0.43,0.22 0.08,0.05 0.12,0.1 0.19,0.18 0.03,0.04 0.06,0.06 0.1,0.08 0.14,0.04 -0.07,-0.24 -0.09,-0.27 -0.08,-0.09 -0.1,-0.23 -0.16,-0.32 -0.06,-0.09 -0.2,-0.21 -0.24,-0.24 0.01,-0.05 0,-0.1 -0.01,-0.15 -0.01,-0.04 -0.01,-0.09 -0.03,-0.14 0.08,-0.16 0.14,-0.32 0.21,-0.5 0.03,-0.09 0.04,-0.14 0.08,-0.23 0.04,-0.09 0.06,-0.17 0.04,-0.25zm-1.23 1.61c-0.04,0.01 -0.05,0.03 -0.09,0.05 -0.06,0.04 -0.14,0.05 -0.23,0.08 0.03,-0.03 0.07,-0.05 0.09,-0.07 0.05,-0.03 0.08,-0.05 0.11,-0.1 0.02,-0.05 0.11,0 0.12,0.04zm1.12 0.02c-0.01,0.04 -0.15,-0.07 -0.16,-0.07 -0.03,-0.02 -0.08,-0.03 -0.12,-0.06 0,-0.05 0.02,-0.07 0.04,-0.1 0.06,0.01 0.13,0.09 0.16,0.12 0.01,0.02 0.08,0.11 0.08,0.11zm-0.34 -0.79c0.01,0.01 -0.01,0.01 -0.02,0 -0.04,-0.04 -0.02,-0.05 -0.07,-0.08 0.03,-0.04 0.14,-0.16 0.21,-0.19 -0.01,0.06 -0.03,0.12 -0.05,0.16 -0.02,0.01 -0.04,0.12 -0.07,0.11zm-0.89 0.08c0,0 -0.05,0.07 -0.06,0.09 -0.07,-0.01 -0.11,-0.06 -0.16,-0.08 -0.03,-0.02 -0.1,-0.09 -0.13,-0.13 0.09,-0.01 0.29,0.09 0.35,0.12z"/>
   <path class="fil0" d="M0.55 14.5l0.03 0.39c0.01,0.14 0,0.27 0.02,0.39 0.08,-0.01 0.26,-0.01 0.39,-0.04 0.05,-0.01 0.22,-0.03 0.28,-0.03 0.04,0 0.21,-0.03 0.2,-0.03 0.02,-0.12 -0.03,-0.28 -0.04,-0.41l-0.03 -0.24c-0.01,-0.04 -0.02,-0.08 -0.02,-0.12 0,-0.02 -0.02,-0.02 -0.03,-0.05 -0.22,0.01 -0.36,0.05 -0.45,0.06 -0.11,0.01 -0.25,0.04 -0.35,0.08zm-0.1 -0.11c0.09,0.01 0.46,-0.08 0.63,-0.11 0.09,-0.01 0.21,0 0.29,-0.05 0.01,-0.01 0.01,-0.03 0.01,-0.04 0.01,-0.01 0.03,-0.01 0.04,-0.03 0,-0.02 -0.01,-0.04 -0.01,-0.07 -0.01,-0.04 0,-0.11 0,-0.15 0.01,-0.01 0.03,-0.02 0.06,-0.01 0.03,0.01 -0.01,0.13 0.03,0.16 0.04,0.03 0.15,-0.09 0.21,-0.05 0.01,0.01 0.03,0.03 0.02,0.04 -0.04,0.03 -0.18,0.11 -0.21,0.12 -0.11,0.06 0.02,0.61 0.02,0.7 0.02,0.14 0.02,0.25 0.12,0.33 0.04,0.03 0.21,0.02 0.27,0.03 0.02,0.02 0.02,0.04 0.02,0.06 -0.03,0.03 -0.28,-0.07 -0.21,0.11 0.02,0.03 0.02,0.07 0.02,0.09 -0.01,0.03 -0.04,0.03 -0.07,0.02 -0.02,-0.03 -0.04,-0.07 -0.05,-0.12 -0.01,-0.03 -0.04,-0.07 -0.08,-0.1 -0.02,-0.01 -0.03,-0.03 -0.05,-0.03 -0.23,0.01 -0.73,0.09 -0.93,0.11 -0.03,0 -0.03,0.04 -0.04,0.06 -0.02,0.02 -0.04,0.02 -0.05,0.05 -0.02,0.09 -0.02,0.19 -0.03,0.25 -0.02,0.03 -0.06,0.04 -0.08,0.01 -0.02,-0.06 0,-0.2 -0.05,-0.19 -0.1,0 -0.2,0.02 -0.22,0.01 -0.01,-0.01 -0.02,-0.06 0.01,-0.08 0.06,-0.02 0.17,-0.02 0.25,-0.05 0.06,-0.03 0.11,-0.09 0.12,-0.12 0.04,-0.06 -0.06,-0.81 -0.1,-0.88 -0.01,-0.01 -0.04,-0.04 -0.08,-0.04 -0.08,-0.01 -0.19,0.01 -0.23,0.01 -0.02,-0.01 -0.02,-0.05 0,-0.06 0.06,-0.04 0.2,0 0.18,-0.09 -0.02,-0.07 -0.04,-0.1 -0.04,-0.13 0.02,-0.03 0.04,-0.06 0.06,-0.05 0.03,0.01 0.08,0.27 0.17,0.29zm0.38 0.31c-0.01,0.06 0.01,0.14 0.01,0.2 0,0 0.01,0.04 0.01,0.04 0,0.01 0.05,0 0.08,0 0.05,-0.01 0.1,-0.01 0.15,-0.01 0.01,0 0.04,-0.01 0.04,-0.01 -0.01,-0.03 0,-0.07 0,-0.1 -0.01,-0.03 -0.01,-0.07 -0.01,-0.09 0,-0.01 -0.01,-0.06 -0.02,-0.07 -0.05,0.02 -0.08,0.02 -0.14,0.02 -0.04,0 -0.07,0.01 -0.12,0.02zm-0.14 -0.14c0.08,0 0.05,0.04 0.11,0.05 0.04,0.02 0.1,0 0.15,0 0.05,-0.01 0.13,-0.01 0.17,-0.03 0.02,-0.02 0.06,-0.08 0.1,-0.07 0.01,0.04 -0.03,0.07 -0.03,0.12 -0.01,0.07 0,0.14 0,0.2 0.01,0.08 0.01,0.08 0.06,0.12 0.04,0.03 0.06,0.1 0.05,0.12 -0.06,0.01 -0.09,-0.05 -0.16,-0.05l-0.26 0.02c-0.04,0.01 -0.11,0.11 -0.15,0.09 -0.02,-0.05 0.05,-0.14 0.04,-0.16 -0.03,-0.06 -0.02,-0.21 -0.03,-0.27 -0.02,-0.06 -0.05,-0.08 -0.05,-0.14z"/>
   <path class="fil0" d="M3.81 4.48c-0.02,0.05 0.03,0.29 0.04,0.36 0.01,0.13 0.03,0.16 0.03,0.26 0.02,0.18 0.1,0.49 0.06,0.65 0.01,0 -0.2,0.04 -0.23,0.05 -0.06,0 -0.12,0.01 -0.17,0.02 -0.12,0.03 -0.21,0.03 -0.33,0.04 -0.09,0 -0.14,0.02 -0.19,0.02 -0.08,0.01 -0.34,0.04 -0.39,0.03 -0.04,-0.07 -0.04,-0.34 -0.04,-0.4 -0.01,-0.11 -0.02,-0.16 -0.05,-0.25 -0.06,-0.14 0,-0.49 -0.06,-0.63 0.11,-0.09 0.47,-0.07 0.63,-0.09 0.12,-0.02 0.59,-0.1 0.7,-0.06zm-1.58 -0.01c0.08,-0.06 0.23,0.04 0.45,0.01l0.68 -0.08c0.14,-0.01 0.33,-0.03 0.42,-0.06 0.08,-0.03 0.18,-0.12 0.25,-0.11 0,0.03 -0.03,0.13 -0.09,0.25 -0.01,0.14 -0.01,0.4 0.05,0.55 0.05,0.17 0.05,0.37 0.08,0.51 0.03,0.13 0.08,0.25 0.15,0.34l-0.03 0.04c-0.06,0 -0.17,-0.02 -0.22,-0.04 -0.02,-0.01 -0.17,-0.02 -0.19,-0.02 -0.03,0.01 -0.05,0.04 -0.05,0.03 -0.01,0.03 -0.24,0.02 -0.31,0.03 -0.19,0.03 -0.34,0.06 -0.52,0.07 -0.1,0.01 -0.11,0 -0.17,0.04 -0.02,0.02 -0.26,0.15 -0.28,0.1 -0.01,-0.14 0.01,-0.17 0.06,-0.31 0.02,-0.09 -0.07,-0.35 -0.07,-0.45 0.01,-0.15 -0.03,-0.28 -0.04,-0.43 0,-0.06 -0.03,-0.24 -0.06,-0.29 -0.03,-0.07 -0.11,-0.12 -0.11,-0.18zm0.51 0.34c-0.02,0.12 0.06,0.75 0.12,0.84 0.07,0.02 0.7,-0.08 0.82,-0.09 0,-0.07 -0.04,-0.12 -0.03,-0.2 0,-0.09 0.01,-0.23 -0.03,-0.31 -0.04,-0.08 0.03,-0.25 -0.03,-0.32 -0.11,-0.05 -0.32,0.01 -0.45,0.02 -0.08,0.01 -0.35,0.01 -0.4,0.06zm-0.07 -0.09c-0.01,0.02 -0.04,0.03 -0.04,0.04 -0.02,0.08 0.05,0.14 -0.01,0.19 -0.03,0.02 0.05,0.08 0.03,0.15 -0.02,0.08 0.01,0.09 0.01,0.14 0.01,0.1 0.03,0.21 0.04,0.31 0,0.04 0.06,0.22 0.06,0.22 0.09,-0.01 0.39,-0.04 0.52,-0.05 0.08,-0.01 0.21,-0.01 0.28,-0.04 0.03,-0.01 0.11,-0.01 0.13,-0.02 0.07,0 0.1,-0.04 0.09,-0.03 0.02,-0.05 -0.05,-0.61 -0.06,-0.64 -0.03,-0.05 -0.04,-0.32 -0.04,-0.38 -0.07,-0.03 -0.4,0.01 -0.48,0.03 -0.23,0.05 -0.44,0.03 -0.53,0.08zm0.49 0.51c0.05,0.04 0.12,-0.01 0.13,-0.05 0.01,-0.05 -0.03,-0.07 -0.06,-0.08 -0.01,0 -0.03,0 -0.04,0 -0.06,0 -0.08,0.09 -0.03,0.13zm-0.09 -0.22c-0.05,0.04 -0.06,0.23 -0.01,0.29 0.04,0.03 0.12,0.05 0.18,0.04 0.07,-0.01 0.14,-0.02 0.14,-0.1 -0.01,-0.04 0.01,-0.1 0,-0.14 -0.01,-0.05 -0.08,-0.11 -0.12,-0.12 -0.06,-0.01 -0.13,-0.01 -0.19,0.03zm-0.09 0.32c0.09,0.09 0.18,0.13 0.31,0.09 0.12,-0.04 0.14,-0.05 0.18,-0.16 0.01,-0.06 -0.01,-0.33 -0.08,-0.33 -0.07,0 -0.02,-0.02 -0.07,-0.04 -0.18,-0.07 -0.38,0.07 -0.4,0.24 -0.01,0.07 -0.01,0.15 0.06,0.2z"/>
   <path class="fil0 str0" d="M0.62 41.95c-0.01,-0.01 -0.02,-0.02 -0.03,-0.03 0.34,-1.72 0.5,-1.63 1.04,-1.48 0.09,-0.17 0.12,-0.28 0.19,-0.36 -0.05,-0.04 -0.03,-0.04 -0.03,-0.13 -0.41,-0.3 -0.96,-0.69 -1.07,-1.17 0.42,-0.78 0.99,-0.09 1.31,-0.3 -0.16,-0.19 -0.24,-0.42 -0.21,-0.6 0.07,-0.29 0.35,-0.45 0.51,-0.11 0.01,0.1 0.06,0.17 0.03,0.29 -0.07,0.22 -0.39,0.52 0.06,0.51 0.16,-0.33 0.36,-1.22 0.57,-1.29 0.01,0.05 -0.01,0.01 0.03,0.06 -0.14,0.19 -0.43,0.94 -0.51,1.2 0.17,0.02 0.79,-0.16 0.95,-0.29 -0.04,-0.24 -0.07,-0.44 -0.11,-0.68 -0.13,-0.22 -0.37,-0.33 -0.47,-0.54 0.01,-0.01 0.01,-0.01 0.01,-0.02 0.04,-0.01 0.08,-0.02 0.12,-0.04 0.12,0.13 0.21,0.21 0.32,0.33 0.3,-0.06 0.56,-0.09 0.93,0.03 0.02,0 0.36,0.2 0.62,0.4 0.2,-0.25 0.41,-1.02 0.32,-1.13 -0.09,-0.01 -0.23,-0.03 -0.44,0.02 -0.3,0.06 -0.69,0.26 -0.82,0.25 0.25,-0.13 0.49,-0.27 0.73,-0.41 0.33,-0.05 0.59,0.1 0.82,-0.16 0.03,-0.21 -0.04,-0.38 -0.07,-0.57 0.15,-0.18 0.31,-0.27 0.52,-0.09 0.01,0.14 0.06,0.26 0.02,0.41 -0.11,0.05 -0.23,0.09 -0.35,0.14 -0.06,0.29 -0.01,0.31 0.02,0.46 0.21,0.13 0.28,0.27 0.36,0.38 0.13,0.19 0.18,0.34 0.17,0.6 -0.02,0 -0.03,-0.01 -0.05,-0.01 -0.01,-0.32 -0.3,-0.64 -0.59,-0.89 -0.15,0.37 -0.38,0.87 -0.37,1.28 0.22,0.26 0.51,0.38 0.6,1.45 0.02,0.11 0.15,0.17 0.17,0.29 -0.01,0 -0.01,0.01 -0.01,0.01 -0.01,0 -0.01,0 -0.02,-0.01 -0.35,-0.35 -0.22,-0.62 -0.39,-0.99 -0.1,-0.21 -0.46,-0.56 -0.58,-0.66 -1.04,0.84 -0.38,0.73 -1.28,1.85 0,0 -0.01,0 -0.01,-0.01 -0.03,-0.02 -0.06,-0.04 -0.09,-0.06 0.04,-0.11 -0.24,-0.27 -0.5,-0.51 -0.28,-0.25 -0.55,-0.58 -0.64,-0.57 -0.03,0.01 -0.07,0.01 -0.11,0.02 -0.06,0.16 0.01,0.28 0,0.42 -0.02,0.26 -0.17,0.49 -0.17,0.72 0.24,0.21 0.72,0.6 0.6,0.8 0.01,0.16 0.01,0.04 -0.1,0.06 0,0.14 -0.02,0.19 -0.13,0.26 -0.01,-0.03 -0.02,-0.07 -0.03,-0.09 0.11,-0.36 -0.04,-0.58 -0.4,-0.82 -0.01,0 -0.02,0 -0.03,0 -0.06,0.12 -0.12,0.23 -0.18,0.35 0.18,0.09 0.46,0.29 0.53,0.47 0.05,0.14 -0.22,1.33 -0.35,1.45 -0.03,-0.03 -0.02,0 -0.03,-0.04 -0.03,-0.01 -0.01,0.02 -0.03,-0.01 -0.02,-0.08 0.17,-1.11 0.15,-1.37 -0.06,-0.05 -0.35,-0.3 -0.41,-0.28 -0.02,0.13 -0.09,0.05 -0.18,0.04 0.02,-0.04 0.04,-0.09 0.05,-0.13 0,0 -0.01,-0.01 -0.01,-0.01 -0.12,-0.04 -0.31,-0.08 -0.4,-0.03 -0.13,0.05 -0.39,1.17 -0.55,1.34zm2.85 -4.47l0.47 1.64c0,0 0.07,-0.34 0.2,-0.49 0.13,-0.15 0.51,-0.57 0.57,-0.59l-0.55 0.15 -0.46 0.07c-0.12,-0.32 -0.24,0.02 1.02,-0.32 0.01,-0.01 0.04,-0.07 0.05,-0.08 -0.06,0.04 -0.67,-0.74 -1.3,-0.38zm-0.9 1.18c0.16,0 0.68,-0.22 0.84,-0.24 0.01,0 0.02,0.01 0.03,0.01 0.12,0.33 0.24,0.66 0.36,0.98 -0.01,0.02 -0.02,0.04 -0.03,0.05 -0.01,0 -0.02,-0.01 -0.03,-0.02 -0.44,-0.15 -0.98,-0.32 -1.17,-0.78zm-0.56 0.05c-0.2,-0.02 -0.37,-0.1 -0.59,-0.14 -1.07,0.07 0,0.94 0.38,1.18 0.01,0 0.02,0 0.02,-0.01 0.18,-0.32 0.25,-0.69 0.25,-0.98 -0.02,-0.01 -0.04,-0.05 -0.06,-0.05z"/>
   <g>
    <path class="fil0" d="M6.02 28.56c-0.48,0.13 -1.06,0.68 -0.98,1.08 0.03,-0.01 0.05,-0.01 0.07,-0.02 0.04,-0.1 0.04,-0.12 0.14,-0.16 -0.08,-0.03 -0.03,0.01 -0.07,-0.06 0.13,-0.09 0.14,-0.24 0.24,-0.33 0.2,-0.13 0.4,-0.25 0.6,-0.38 0.01,0.01 0.03,0.02 0.04,0.02 -0.03,0.32 0.11,0.82 0.3,1.05 -0.05,-0.02 -0.06,-0.04 -0.11,-0.07 0.09,0.29 0.22,0.39 0.26,0.62 -0.05,0.08 -0.09,0.14 -0.2,0.15 0.1,0.24 -0.22,0.49 -0.38,0.59 -0.02,-0.08 0.03,-0.06 -0.06,-0.08 -0.02,0.04 -0.05,0.08 -0.07,0.12 0.01,0.02 0.03,0.03 0.05,0.05 -0.01,0.13 -0.02,0.25 -0.03,0.37 0.01,0.12 0.12,0.29 0.12,0.37 0.01,0 0.02,0.01 0.04,0.01 0,0 0.01,0 0.01,-0.01 -0.01,-0.2 -0.02,-0.4 -0.03,-0.6 0.05,-0.23 0.34,-0.33 0.48,-0.51 0.05,-0.11 0.1,-0.22 0.16,-0.33 0.01,-0.01 0.02,-0.01 0.03,-0.01 0.03,0.01 0.05,0.03 0.07,0.05 0.01,0.05 0.14,0.39 0.23,0.39 -0.04,0.45 -0.39,0.78 -0.37,1.17 0.1,-0.15 0.49,-0.76 0.5,-0.91 0.01,-0.36 -0.3,-0.68 -0.43,-0.83 -0.16,-0.21 -0.15,-0.58 -0.16,-0.74 0,0 -0.01,0.01 -0.01,0.01 -0.01,0.03 -0.02,0.06 -0.03,0.1 -0.08,-0.27 -0.22,-0.67 -0.23,-0.99 0.13,0.01 0.01,-0.06 0.15,-0.06 0.08,0 0.03,0.08 0.14,0.07 -0.01,-0.02 -0.02,-0.03 -0.03,-0.05 0.09,0.05 0.07,0.08 0.2,0.06 0,-0.01 -0.01,-0.01 -0.01,-0.02 -0.01,-0.04 -0.03,-0.02 0.02,-0.06 0.07,0.1 0.61,0.28 0.73,0.22 0,0 0,-0.01 0,-0.01 -0.1,-0.06 -0.19,-0.16 -0.24,-0.28 0.18,-0.14 0.23,-0.31 0.48,-0.42 0.04,0.02 0.01,0 0.05,0.02 0.02,0.14 -0.01,0.24 0.07,0.34 0.04,-0.03 0.08,-0.07 0.12,-0.1 0.08,-0.12 -0.04,-0.24 0.11,-0.34 0.05,0.13 0.28,0.1 0.42,0.16 0.05,0.02 0.41,0.41 0.48,0.56 -0.09,0.1 -0.09,0.25 -0.12,0.39 0.02,0.03 0.03,0.05 0.04,0.08 0.05,-0.01 0.09,-0.02 0.14,-0.03 0.15,-0.13 0.16,-0.4 0.06,-0.6 0.02,0.01 0.04,0.01 0.06,0.02 -0.08,-0.21 -0.27,-0.31 -0.41,-0.42 0.17,-0.07 -0.11,-0.75 -0.22,-0.91 -0.27,0 -0.58,0.11 -0.8,0.07 -0.07,-0.17 -0.14,-0.2 -0.16,-0.38 0.14,-0.15 0.19,-0.39 0.13,-0.68 -0.15,-0.02 -0.42,-0.2 -0.42,-0.2 -0.09,-0.06 -0.21,-0.02 -0.28,-0.12 -0.04,0.03 -0.04,0.1 -0.08,0.05 -0.11,-0.01 -0.19,-0.03 -0.34,-0.03 -0.05,-0.23 -0.03,-0.44 -0.03,-0.59 0.01,-0.28 -0.25,-0.64 -0.28,-0.87 -0.05,-0.34 -0.06,-0.66 -0.08,-1.03 0.16,-0.08 0.41,-0.09 0.57,-0.04 0.21,0.38 0.19,0.56 0.42,0.9 0.01,0 0.02,-0.01 0.03,-0.01 -0.01,-0.06 -0.03,-0.12 -0.05,-0.18 0.02,0 0.04,0.01 0.06,0.02 -0.1,-0.42 -0.17,-0.6 -0.25,-0.95 -0.11,-0.04 -0.16,-0.12 -0.26,-0.17 -0.05,0.07 -0.37,0.04 -0.6,0.09 0.01,-0.02 0.01,-0.04 0.01,-0.05 -0.15,-0.37 0.11,-0.63 0,-1.02 -0.06,-0.04 -0.12,-0.08 -0.18,-0.11 0.06,-0.04 0.04,-0.01 0.06,-0.06 -0.05,0.02 -0.03,0.06 -0.07,0.01 -0.01,0.03 -0.02,0.06 -0.03,0.09 -0.02,0 -0.03,-0.01 -0.04,-0.02 0,-0.05 -0.01,-0.1 -0.01,-0.15 -0.01,0.02 -0.02,0.04 -0.04,0.05 -0.01,0.05 -0.02,0.1 -0.03,0.16 0,0 -0.01,0 -0.02,0 0,-0.03 0,-0.06 0,-0.09 -0.15,0.09 -0.15,0.27 -0.23,0.43 0.1,0.15 0.18,0.22 0.3,0.31 0.03,0.23 0.06,0.32 0.03,0.52 -0.36,0.09 -0.6,0.12 -0.87,0.25 -0.11,0.29 -0.05,0.85 -0.17,1.01 0.02,0.05 0.04,0.1 0.06,0.14 0.04,-0.01 0.02,0 0.06,-0.03 -0.01,-0.02 -0.03,-0.04 -0.05,-0.06 0.02,-0.01 0.05,-0.01 0.07,-0.02 0.07,0.09 0.08,0.03 0.16,0.12 -0.01,0.02 -0.02,0.04 -0.02,0.06 0.04,-0.03 0.09,-0.06 0.14,-0.09 -0.01,-0.07 -0.02,-0.14 -0.02,-0.21 -0.07,0 -0.04,0.01 -0.08,-0.02 0.07,-0.08 -0.01,-0.37 -0.02,-0.53 0.03,-0.02 0.05,-0.04 0.08,-0.06 0.09,0.01 0.18,0.02 0.28,0.03 -0.01,0.04 -0.01,0.08 -0.01,0.11 0.03,0.01 0.05,0.01 0.08,0.02 -0.01,-0.06 -0.01,-0.11 -0.01,-0.16 0.14,-0.07 0.2,-0.13 0.35,-0.19 0.13,0.31 0.1,0.7 0.12,1.13 0.04,0.16 0.09,0.31 0.13,0.47 0.03,0.34 0.25,0.62 0.17,0.79 -0.19,0.01 -0.54,0.1 -0.62,0.25 0.01,0.23 -0.3,0.7 -0.08,0.97 0.17,-0.17 0.2,-0.62 0.24,-0.86 0.19,-0.06 0.34,-0.12 0.52,-0.14 0.01,0.04 0.01,0.08 0.02,0.12 0.04,0 0.08,-0.01 0.12,-0.01 0,-0.03 0,-0.06 -0.01,-0.09 0.05,0.03 0.01,0.04 0.06,0.02 0.33,-0.17 0.42,0.04 0.7,0.01 0.05,0.14 0.15,0.18 0.16,0.34 -0.17,0.08 -0.22,0.2 -0.29,0.34 0.09,0.14 0.19,0.28 0.28,0.42 -0.01,0.01 -0.01,0.03 -0.01,0.04 -0.37,0.09 -0.49,0.08 -0.58,0.34 0.12,0.22 0.38,0.64 0.29,0.75 0.04,0.04 0.07,0.08 0.11,0.12 -0.31,0.02 -0.69,-0.06 -0.93,-0.14 -0.01,-0.13 -0.02,-0.26 -0.03,-0.39 -0.07,0.11 -0.04,0.16 -0.14,0.22 -0.08,-0.16 -0.16,-0.32 -0.24,-0.48 0.1,-0.13 0.22,-0.18 0.25,-0.37 -0.09,-0.11 -0.17,-0.18 -0.28,-0.23 -0.24,0.05 -0.35,0.14 -0.38,0.34 0.09,0.21 0.24,0.16 0.35,0.28 0.13,0.16 0.25,0.52 0.29,0.7z"/>
    <path class="fil0" d="M6.02 28.56c-0.48,0.13 -1.06,0.68 -0.98,1.08 0.03,-0.01 0.05,-0.01 0.07,-0.02 0.04,-0.1 0.04,-0.12 0.14,-0.16 -0.08,-0.03 -0.03,0.01 -0.07,-0.06 0.13,-0.09 0.14,-0.24 0.24,-0.33 0.2,-0.13 0.4,-0.25 0.6,-0.38 0.01,0.01 0.03,0.02 0.04,0.02 -0.03,0.32 0.11,0.82 0.3,1.05 -0.05,-0.02 -0.06,-0.04 -0.11,-0.07 0.09,0.29 0.22,0.39 0.26,0.62 -0.05,0.08 -0.09,0.14 -0.2,0.15 0.1,0.24 -0.22,0.49 -0.38,0.59 -0.02,-0.08 0.03,-0.06 -0.06,-0.08 -0.02,0.04 -0.05,0.08 -0.07,0.12 0.01,0.02 0.03,0.03 0.05,0.05 -0.01,0.13 -0.02,0.25 -0.03,0.37 0.01,0.12 0.12,0.29 0.12,0.37 0.01,0 0.02,0.01 0.04,0.01 0,0 0.01,0 0.01,-0.01 -0.01,-0.2 -0.02,-0.4 -0.03,-0.6 0.05,-0.23 0.34,-0.33 0.48,-0.51 0.05,-0.11 0.1,-0.22 0.16,-0.33 0.01,-0.01 0.02,-0.01 0.03,-0.01 0.03,0.01 0.05,0.03 0.07,0.05 0.01,0.05 0.14,0.39 0.23,0.39 -0.04,0.45 -0.39,0.78 -0.37,1.17 0.1,-0.15 0.49,-0.76 0.5,-0.91 0.01,-0.36 -0.3,-0.68 -0.43,-0.83 -0.16,-0.21 -0.15,-0.58 -0.16,-0.74 0,0 -0.01,0.01 -0.01,0.01 -0.01,0.03 -0.02,0.06 -0.03,0.1 -0.08,-0.27 -0.22,-0.67 -0.23,-0.99 0.13,0.01 0.01,-0.06 0.15,-0.06 0.08,0 0.03,0.08 0.14,0.07 -0.01,-0.02 -0.02,-0.03 -0.03,-0.05 0.09,0.05 0.07,0.08 0.2,0.06 0,-0.01 -0.01,-0.01 -0.01,-0.02 -0.01,-0.04 -0.03,-0.02 0.02,-0.06 0.07,0.1 0.61,0.28 0.73,0.22 0,0 0,-0.01 0,-0.01 -0.1,-0.06 -0.19,-0.16 -0.24,-0.28 0.18,-0.14 0.23,-0.31 0.48,-0.42 0.04,0.02 0.01,0 0.05,0.02 0.02,0.14 -0.01,0.24 0.07,0.34 0.04,-0.03 0.08,-0.07 0.12,-0.1 0.08,-0.12 -0.04,-0.24 0.11,-0.34 0.05,0.13 0.28,0.1 0.42,0.16 0.05,0.02 0.41,0.41 0.48,0.56 -0.09,0.1 -0.09,0.25 -0.12,0.39 0.02,0.03 0.03,0.05 0.04,0.08 0.05,-0.01 0.09,-0.02 0.14,-0.03 0.15,-0.13 0.16,-0.4 0.06,-0.6 0.02,0.01 0.04,0.01 0.06,0.02 -0.08,-0.21 -0.27,-0.31 -0.41,-0.42 0.17,-0.07 -0.11,-0.75 -0.22,-0.91 -0.27,0 -0.58,0.11 -0.8,0.07 -0.07,-0.17 -0.14,-0.2 -0.16,-0.38 0.14,-0.15 0.19,-0.39 0.13,-0.68 -0.15,-0.02 -0.42,-0.2 -0.42,-0.2 -0.09,-0.06 -0.21,-0.02 -0.28,-0.12 -0.04,0.03 -0.04,0.1 -0.08,0.05 -0.11,-0.01 -0.19,-0.03 -0.34,-0.03 -0.05,-0.23 -0.03,-0.44 -0.03,-0.59 0.01,-0.28 -0.25,-0.64 -0.28,-0.87 -0.05,-0.34 -0.06,-0.66 -0.08,-1.03 0.16,-0.08 0.41,-0.09 0.57,-0.04 0.21,0.38 0.19,0.56 0.42,0.9 0.01,0 0.02,-0.01 0.03,-0.01 -0.01,-0.06 -0.03,-0.12 -0.05,-0.18 0.02,0 0.04,0.01 0.06,0.02 -0.1,-0.42 -0.17,-0.6 -0.25,-0.95 -0.11,-0.04 -0.16,-0.12 -0.26,-0.17 -0.05,0.07 -0.37,0.04 -0.6,0.09 0.01,-0.02 0.01,-0.04 0.01,-0.05 -0.15,-0.37 0.11,-0.63 0,-1.02 -0.06,-0.04 -0.12,-0.08 -0.18,-0.11 0.06,-0.04 0.04,-0.01 0.06,-0.06 -0.05,0.02 -0.03,0.06 -0.07,0.01 -0.01,0.03 -0.02,0.06 -0.03,0.09 -0.02,0 -0.03,-0.01 -0.04,-0.02 0,-0.05 -0.01,-0.1 -0.01,-0.15 -0.01,0.02 -0.02,0.04 -0.04,0.05 -0.01,0.05 -0.02,0.1 -0.03,0.16 0,0 -0.01,0 -0.02,0 0,-0.03 0,-0.06 0,-0.09 -0.15,0.09 -0.15,0.27 -0.23,0.43 0.1,0.15 0.18,0.22 0.3,0.31 0.03,0.23 0.06,0.32 0.03,0.52 -0.36,0.09 -0.6,0.12 -0.87,0.25 -0.11,0.29 -0.05,0.85 -0.17,1.01 0.02,0.05 0.04,0.1 0.06,0.14 0.04,-0.01 0.02,0 0.06,-0.03 -0.01,-0.02 -0.03,-0.04 -0.05,-0.06 0.02,-0.01 0.05,-0.01 0.07,-0.02 0.07,0.09 0.08,0.03 0.16,0.12 -0.01,0.02 -0.02,0.04 -0.02,0.06 0.04,-0.03 0.09,-0.06 0.14,-0.09 -0.01,-0.07 -0.02,-0.14 -0.02,-0.21 -0.07,0 -0.04,0.01 -0.08,-0.02 0.07,-0.08 -0.01,-0.37 -0.02,-0.53 0.03,-0.02 0.05,-0.04 0.08,-0.06 0.09,0.01 0.18,0.02 0.28,0.03 -0.01,0.04 -0.01,0.08 -0.01,0.11 0.03,0.01 0.05,0.01 0.08,0.02 -0.01,-0.06 -0.01,-0.11 -0.01,-0.16 0.14,-0.07 0.2,-0.13 0.35,-0.19 0.13,0.31 0.1,0.7 0.12,1.13 0.04,0.16 0.09,0.31 0.13,0.47 0.03,0.34 0.25,0.62 0.17,0.79 -0.19,0.01 -0.54,0.1 -0.62,0.25 0.01,0.23 -0.3,0.7 -0.08,0.97 0.17,-0.17 0.2,-0.62 0.24,-0.86 0.19,-0.06 0.34,-0.12 0.52,-0.14 0.01,0.04 0.01,0.08 0.02,0.12 0.04,0 0.08,-0.01 0.12,-0.01 0,-0.03 0,-0.06 -0.01,-0.09 0.05,0.03 0.01,0.04 0.06,0.02 0.33,-0.17 0.42,0.04 0.7,0.01 0.05,0.14 0.15,0.18 0.16,0.34 -0.17,0.08 -0.22,0.2 -0.29,0.34 0.09,0.14 0.19,0.28 0.28,0.42 -0.01,0.01 -0.01,0.03 -0.01,0.04 -0.37,0.09 -0.49,0.08 -0.58,0.34 0.12,0.22 0.38,0.64 0.29,0.75 0.04,0.04 0.07,0.08 0.11,0.12 -0.31,0.02 -0.69,-0.06 -0.93,-0.14 -0.01,-0.13 -0.02,-0.26 -0.03,-0.39 -0.07,0.11 -0.04,0.16 -0.14,0.22 -0.08,-0.16 -0.16,-0.32 -0.24,-0.48 0.1,-0.13 0.22,-0.18 0.25,-0.37 -0.09,-0.11 -0.17,-0.18 -0.28,-0.23 -0.24,0.05 -0.35,0.14 -0.38,0.34 0.09,0.21 0.24,0.16 0.35,0.28 0.13,0.16 0.25,0.52 0.29,0.7z"/>
    <path class="fil0" d="M9.96 29.35c-0.01,0 -0.02,0 -0.03,0.01 -0.06,0.09 0,0.11 -0.02,0.21 -0.08,0.04 -0.15,0.08 -0.22,0.12 -0.03,0.2 -0.07,0.34 0.02,0.52 -0.02,0 -0.03,0 -0.05,0 0.12,0.47 0.11,0.63 0.04,1 -0.1,0.04 -0.2,0.07 -0.31,0.11 -0.12,-0.01 -0.19,-0.13 -0.28,-0.17 -0.32,-0.12 -0.53,-0.23 -0.93,-0.18 -0.11,0.01 -0.24,0 -0.34,0.09 -0.14,0.11 -0.19,0.24 -0.3,0.37 -0.11,-0.01 -0.13,-0.05 -0.14,-0.18 0.09,-0.14 0.37,-0.55 0.23,-0.67 -0.02,-0.09 -0.05,-0.17 -0.08,-0.25 -0.16,0.05 -0.21,0.08 -0.36,0.1 0.01,0.02 0.02,0.04 0.02,0.06 0.05,0.06 0.08,0.1 0.14,0.14 0,0.14 0.04,0.23 0.02,0.34 -0.11,0.07 -0.21,0.3 -0.18,0.45 0.03,0.03 0.05,0.06 0.08,0.09 0.08,0.01 0.16,0.01 0.24,0.02 -0.01,0.05 -0.01,0.1 -0.02,0.15 0.06,0.08 0.12,0.14 0.17,0.18 0.07,0.06 0.09,0.1 0.17,0.13 -0.03,0.06 0.01,0.22 0,0.33 -0.01,0.13 -0.08,0.26 -0.09,0.37 -0.01,0.07 0.41,0.6 0.41,0.6 -0.01,-0.02 -0.02,-0.04 -0.02,-0.06 0.02,0 0.04,-0.01 0.06,-0.01 -0.07,-0.05 -0.25,-0.31 -0.3,-0.51 0.12,-0.15 0.31,-0.49 0.17,-0.75 0.02,0 0.04,0 0.06,0 0.06,0.06 0.04,0.08 0.08,0.14 0.37,0.11 -0.06,0.71 0.13,0.99 0.04,-0.03 0.04,-0.03 0.1,-0.04 -0.1,-0.31 0.18,-0.42 0.22,-0.66 0.03,-0.22 -0.16,-0.36 -0.23,-0.54 0.03,-0.04 0.03,-0.06 0.08,-0.1 0.45,0.2 0.91,0.12 1.16,0.18 0.19,0.07 0.31,0.22 0.5,0.22 0.06,0 0.37,0.08 0.39,-0.01 0.11,0.06 0.27,0.12 0.43,0.07 0,0.13 0.33,0.53 0.43,0.52 0.01,0 0.01,0 0.02,0 0.01,-0.04 0.03,-0.07 0.04,-0.11 -0.22,-0.27 -0.48,-0.5 -0.76,-0.57 -0.02,0.05 0,0.02 -0.04,0.05 -0.06,-0.17 -0.32,-0.09 -0.34,-0.31 0.18,-0.06 0.39,-0.01 0.62,-0.11 0.11,-0.05 0.27,-0.18 0.4,-0.26 0.16,-0.09 0.38,0.05 0.56,-0.03 0,-0.02 0,-0.04 0,-0.06 -0.03,-0.02 -0.05,-0.05 -0.08,-0.08 -0.18,0.01 -0.42,0.05 -0.57,0.14 -0.02,-0.05 -0.01,-0.03 -0.07,-0.04 -0.15,0.1 -0.29,0.1 -0.47,0.13 -0.03,-0.06 -0.01,-0.05 -0.06,-0.07 -0.01,0.02 -0.03,0.03 -0.04,0.04 0.02,-0.12 -0.11,-0.4 -0.22,-0.49 -0.03,0 -0.05,0 -0.08,-0.01 -0.12,-0.11 -0.41,-0.88 -0.29,-1.06 0.2,0.01 0.28,0.1 0.48,-0.01 -0.01,-0.02 -0.01,-0.05 -0.01,-0.07 -0.08,-0.1 -0.17,-0.2 -0.25,-0.3 -0.11,-0.09 -0.19,-0.04 -0.29,-0.16z"/>
   </g>
  </g>
 </g>
</svg>
