<?xml version="1.0" encoding="UTF-8"?>
<!DOCTYPE svg PUBLIC "-//W3C//DTD SVG 1.1//EN" "http://www.w3.org/Graphics/SVG/1.1/DTD/svg11.dtd">
<!-- Creator: CorelDRAW 2020 (64-Bit) -->
<svg xmlns="http://www.w3.org/2000/svg" xml:space="preserve" width="31px" height="35px" version="1.1" style="shape-rendering:geometricPrecision; text-rendering:geometricPrecision; image-rendering:optimizeQuality; fill-rule:evenodd; clip-rule:evenodd"
viewBox="0 0 1.79 2.01"
 xmlns:xlink="http://www.w3.org/1999/xlink"
 xmlns:xodm="http://www.corel.com/coreldraw/odm/2003">
 <defs>
  <style type="text/css">
   <![CDATA[
    .str0 {stroke:#FFB236;stroke-width:0.06;stroke-miterlimit:22.9256}
    .fil0 {fill:none}
    .fil1 {fill:white}
   ]]>
  </style>
 </defs>
 <g id="Слой_x0020_1">
  <metadata id="CorelCorpID_0Corel-Layer"/>
  <g id="_2270302457744">
   <rect class="fil0 str0" x="0.03" y="0.21" width="1.73" height="1.77" rx="0.14" ry="0.13"/>
   <rect class="fil0 str0" x="0.03" y="0.21" width="1.73" height="0.37" rx="0.14" ry="0.03"/>
   <rect class="fil1 str0" x="1.38" y="0.03" width="0.16" height="0.44" rx="0.08" ry="0.2"/>
   <rect class="fil1 str0" x="0.25" y="0.03" width="0.16" height="0.44" rx="0.08" ry="0.2"/>
   <rect class="fil1 str0" x="0.25" y="0.84" width="0.17" height="0.2" rx="0.04" ry="0.04"/>
   <rect class="fil1 str0" x="0.25" y="1.18" width="0.17" height="0.2" rx="0.04" ry="0.04"/>
   <rect class="fil1 str0" x="0.25" y="1.52" width="0.17" height="0.2" rx="0.04" ry="0.04"/>
   <rect class="fil1 str0" x="0.62" y="0.84" width="0.17" height="0.2" rx="0.04" ry="0.04"/>
   <rect class="fil1 str0" x="0.62" y="1.18" width="0.17" height="0.2" rx="0.04" ry="0.04"/>
   <rect class="fil1 str0" x="0.62" y="1.52" width="0.17" height="0.2" rx="0.04" ry="0.04"/>
   <rect class="fil1 str0" x="0.98" y="0.84" width="0.17" height="0.2" rx="0.04" ry="0.04"/>
   <rect class="fil1 str0" x="0.98" y="1.18" width="0.17" height="0.2" rx="0.04" ry="0.04"/>
   <rect class="fil1 str0" x="0.98" y="1.52" width="0.17" height="0.2" rx="0.04" ry="0.04"/>
   <rect class="fil1 str0" x="1.34" y="0.84" width="0.17" height="0.2" rx="0.04" ry="0.04"/>
   <rect class="fil1 str0" x="1.34" y="1.18" width="0.17" height="0.2" rx="0.04" ry="0.04"/>
  </g>
 </g>
</svg>
