<?xml version="1.0" encoding="UTF-8"?>
<!DOCTYPE svg PUBLIC "-//W3C//DTD SVG 1.1//EN" "http://www.w3.org/Graphics/SVG/1.1/DTD/svg11.dtd">
<!-- Creator: CorelDRAW 2020 (64-Bit) -->
<svg xmlns="http://www.w3.org/2000/svg" xml:space="preserve" width="30px" height="30px" version="1.1" style="shape-rendering:geometricPrecision; text-rendering:geometricPrecision; image-rendering:optimizeQuality; fill-rule:evenodd; clip-rule:evenodd"
viewBox="0 0 1.11 1.12"
 xmlns:xlink="http://www.w3.org/1999/xlink"
 xmlns:xodm="http://www.corel.com/coreldraw/odm/2003">
 <defs>
  <style type="text/css">
   <![CDATA[
    .fil0 {fill:white}
   ]]>
  </style>
 </defs>
 <g id="Слой_x0020_1">
  <metadata id="CorelCorpID_0Corel-Layer"/>
  <path class="fil0" d="M0.56 0.37c0.1,0 0.18,0.09 0.18,0.19 0,0.1 -0.08,0.18 -0.18,0.18 -0.11,0 -0.19,-0.08 -0.19,-0.18 0,-0.1 0.08,-0.19 0.19,-0.19zm0 -0.12c0.16,0 0.3,0.14 0.3,0.31 0,0.17 -0.14,0.31 -0.3,0.31 -0.17,0 -0.31,-0.14 -0.31,-0.31 0,-0.17 0.14,-0.31 0.31,-0.31zm-0.24 -0.25l0.47 0c0.18,0 0.32,0.14 0.32,0.32l0 0.47c0,0.18 -0.14,0.33 -0.32,0.33l-0.47 0c-0.18,0 -0.32,-0.15 -0.32,-0.33l0 -0.47c0,-0.18 0.14,-0.32 0.32,-0.32zm0.61 0.12c0.03,0 0.06,0.03 0.06,0.07 0,0.03 -0.03,0.06 -0.06,0.06 -0.04,0 -0.06,-0.03 -0.06,-0.06 0,-0.04 0.02,-0.07 0.06,-0.07z"/>
 </g>
</svg>
