<svg xmlns="http://www.w3.org/2000/svg" fill-rule="evenodd" clip-rule="evenodd" image-rendering="optimizeQuality" shape-rendering="geometricPrecision" text-rendering="geometricPrecision" viewBox="0 0 185.01 185.01"><defs/><defs><style>.fil5{fill:#2ba6e8}.fil4{fill:#3d2a0c}.fil1{fill:#5b7c14}.fil6{fill:#c3f3fc}.fil2{fill:#c9d04c}.fil3{fill:#fc7e01}</style></defs><g id="Слой_x0020_1"><circle cx="92.51" cy="92.51" r="92.51" fill="#fff"/><g id="_1761094438896"><path d="M66.34 111.35c.09 1.42-.67.71.05 2.15l.8 1.96c1.92.13 5.53-.32 7.68-.42 2.65-.12 5.34-.2 8.01-.26l.08-3.13-.05-.65-.04-.47c-2.79.06-5.6.18-8.38.35-1.36.08-7.36.69-8.15.47zM47.01 114.04l.32 1.46.1.26.37 1.83c.58.08 10.05-1.18 10.37-1.39.39-.84.2-2.83.13-3.85l-11.29 1.69zM140.4 116.7c.22.34.15.17.05.67l-.49 2.47c1.62.22 8.94 1.99 10.15 2.58l.47-.52.09-.1-.11-.18.32-1.36.11-.13.27-1.3c-1.54-.31-3.57-1.12-5.18-1.58-1.29-.37-4.11-.97-5.17-1.43-.18.29-.07.28-.19.51-.26.46.21.07-.32.37zM13.47 96.62c-.2 1.09-.98 2.76-.98 3.75.97-.1 2.32-1.57 3.07-1.65.73-.07 1.96 1.41 2.94 1.66l-.23-3.62c.75-.64 3.18-.83 4.2-1.15-.18-.5-.25-.41-.84-.6l-3.36-1.05a6.45 6.45 0 01-1.56 2.68c-1.25 1.11-1.81.01-3.24-.02zM173.15 96.91c-.72.07-1.62-.04-2.24.15-.73.23-1.09.51-1.87-.02-.89-.61-1.31-1.68-1.86-2.87-.66.11-1.32.3-2.02.48-1 .25-1.65.26-1.97.66l.92.41c.81.23 2.59.69 3.15 1.05l-.2 3.45c.88-.27 2.2-1.54 2.9-1.36.22.06 1.12.71 1.33.86.46.33.89.74 1.56.89-.09-.87-.73-2.68-1.01-3.5l1.31-.2zM13.79 126.83c1.49-.78 3.63-1.55 5.28-2.15 1.09-.39 4.94-1.53 5.6-1.95l-.42-2.03-.17-.03c-1.24.3-4.4 2.04-5.48 2.67-1.45.85-3.97 2.4-4.81 3.49zM162.9 125.93l-.07.13-.23.9c1.91.52 4.37 2.3 6.16 3.1-.61-1.53-3.71-4.46-5.21-5.19l-.13-.06c-.13.54-.2.77-.52 1.12z" class="fil1"/><g><path d="M65.83 100.25c-.38 1.83.33 1.07.04 3.35-.25 1.9.84 1.15-.6 3.03-.15.5 1.13 2.13 1.07 4.72.79.22 6.79-.39 8.15-.47 2.78-.17 5.59-.29 8.38-.35l.01-4.32v-.74l-.01-4.32c-.77-.17-1.48-.36-2.19-.63-.78-.28-1.42-.42-1.42-1.33v-.17c-2.31.12-4.58.3-6.86.52-2.17.2-4.43.56-6.57.71zM142.73 107.2l-1.04 4.67-.12.59-.66 3.36c1.06.46 3.88 1.06 5.17 1.43 1.61.46 3.64 1.27 5.18 1.58l-.54-.65c-.37-.43-.27-.02-.46-.74l5.34-.13c-.04.06-.09.06-.11.12-.02.05-.08.06-.1.07l-.27.14c.97-.05 1.25-.38 2.34-.27l.45.13.25.14c.55.03.12-.04.3.23l-.15.2c.41-.33.07-.33.58-.16l.39.14.26.16.46.17.21.13c.57.24.79 1.06 1.11 1.44-.18-.55-.45-.67-.56-1.22.78.73 1.35 1.51 2.03 2.26.53.57 1.87 1.85 2.05 2.53-.44.25-.4.12-.87.19l-.37.94-.05.22c1.5.73 4.6 3.66 5.21 5.19l.4.18c-.43-2.66-.42-3.64-1.56-5.93-.97-1.95-1.91-2.95-2.98-4.46-.37-.2-.75-.77-1.06-1.08-.38-.4-.68-.66-1.08-1.03-.56.01-1.34.03-1.87-.23-.64-.32-.27-.06-.43-.44.52-.2.7-.1 1.17-.41-.49-.25-1.41-1.02-1.94-1.43-3.25-2.54-11.77-7.04-15.26-7.95l.38-.2-1.8.12zM38.89 106.51c.66.38 3.51 1.06 4.56 1.36l2.38.67c.68.2 1.75.34 2.04.85.26.53-1.09 1-1.46 1.24l.3 1.81.11.27.19 1.33 11.29-1.69c.07-1.62-.68-3.95-.39-5.26.28-1.29.22-1.32.16-2.66-.05-.92.14-1.95.15-2.94-3.16.41-17.49 3.76-19.33 5.02zM19.74 116.38c-.39.4-.77.72-1.22 1.08-.75.59-2.82 2.88-3.49 3.77a16.36 16.36 0 00-3.12 6.47l1.88-.87c.84-1.09 3.36-2.64 4.81-3.49 1.08-.63 4.24-2.37 5.48-2.67l.03-.23-.58-2.4-.11-.3-.34-1.65c-.84-.08-1.59.23-2.02-.29l-.02-.34c-.51.28-.8.63-1.3.92z" class="fil2"/></g><g><path d="M90.45 62.23c-.56-2.22 2.31-2.87 2.8-.96.58 2.26-2.31 2.92-2.8.96zm.24-10.79c-5 .75-9.35 5.29-8.46 11.25a9.88 9.88 0 0011.22 8.43 9.9 9.9 0 008.46-11.28 9.9 9.9 0 00-11.22-8.4zM102.91 88.19l-1.32.57c-.53.68-9.79 7.33-10.4 7.79-1.8 1.35-3.47 2.56-5.25 3.89-.61.45-.76.56-1.66.39-2.37-.43-4.13-1.49-5.02-1.64 0 .91.64 1.05 1.42 1.33.71.27 1.42.46 2.19.63a191.8 191.8 0 0017.36 3.03c1.33.16 5.28.45 6.12.83.21.94.05 3.03-.25 3.82-.81.16-14.59-2.04-17.35-2.44-1.6-.24-4.49-.5-5.87-.92v.74c3.7.36 7.86 1.16 11.58 1.71l8.72 1.29c.82.12 2.2.08 2.76.61.26.59.11 2.59-.21 3.15-1.48.46-19.32-1.95-22.82-1.97l.05.65c3.02.37 21.71 1.85 22.67 2.22.53 1.52-.75 2.53.62 2.63.3-.83.44-4.44.52-5.66.1-1.37.19-4.76.55-5.69.61-.13 8.49.62 8.82 1.13.41.64-.59 8.25-.62 10.08 0 .19-.01.2.03.39.06.36-.03.11.12.32.75.36.36-.93.77-1.52.69-.5 4.61.15 5.85.25l18.16 1.57c.1-.5.17-.33-.05-.67-3.37-.44-22.75-1.63-23.91-2.21-.18-.76.04-2.79.3-3.51 1.24-.19 4.78.22 6.24.31 2.71.18 17.19 1.27 18.54 1.17l.12-.59c-4.75-.6-13.26-.88-18.75-1.26l-3.1-.21c-2.05-.12-4.1.7-2.76-4.08.87-.26 4.65.35 5.95.46 2.11.18 4.26.29 6.38.4 4.55.24 8.89-.08 13.32.02l1.8-.12c1 .11 2.17.28 2.28-.83-6.29 0-4.86 1.51-7.6-1.44-.39-.42-.78-.72-1.17-1.14l-4.63-4.95c-.42-.45-.83-.77-1.24-1.22-.81-.89-1.37-1.58-2.34-2.46l-4.62-4.96c-.48-.46-.81-.58-1.28-.98.11.64 1.37 1.85 1.79 2.22l13.82 14.5c1.05 1.26-1.91.78-4.32.8-2.49.03-1.96.13-3.05-1.58-.98-1.51-10.65-16.19-10.98-16.97l-.52-.05c.5 1.33 11.6 17.46 11.73 18.41-.48.17-6.79.05-7.3-.57-.25-.31-5.93-16.99-6.09-18.01l-.71-.12c.04 1.95 6.36 17.38 5.61 18.17-.74.42-4.1-.09-4.97-.28-.49-1.47-.89-6.87-1.13-8.85-.35-3.01-.83-6.16-1.06-9.17l-.46-.1 2.06 17.42c0 .09.02.41-.14.55-.42.2-4.89-.37-5.6-.6-.11-1.51.89-6.8 1.16-8.66.38-2.67 1.11-6.24 1.23-8.84l.44.05-.84-.1-2.5 17.45c-1.15.11-4.82-.41-6.04-.62.01-.7 4.3-10.68 5.15-12.68.59-1.38 1.32-2.94 1.77-4.31l-.48-.09c-.13.84-2.9 7.16-3.45 8.47l-1.76 4.2c-.55 1.34-1.19 3.08-1.84 4.24-.81.14-4.96-.38-5.53-.62-.21-1.05 1.57-2.95 2.52-4.27l8.21-11.22c.26-.36.47-.86.99-.87l-1.12-.15c-3.33 4.76-7.81 10.7-11.41 15.59-.41.56-.43.85-1.28.79-.69-.04-5.22-.7-5.69-1.1.26-.57 1.43-1.46 1.95-1.95.34-.32.58-.65.92-.97l13.02-12.52-.68.11c-.38.45-.77.76-1.22 1.18l-13.19 12.64c-1.69 1.56-1.03 1.64-2.92 1.3-1.2-.22-2.83-.42-3.85-.77.11-.71.27-.55.9-1.03l13.86-10.23c.59-.43 1.67-.99 1.98-1.7zM13.47 96.62c1.43.03 1.99 1.13 3.24.02a6.45 6.45 0 001.56-2.68c.59-1.36 1.03-4.73.05-5.94-1.46-1.79-2.88 2.07-3.38 2.93-.79-.61-1.66-2.15-3.05-2.14-1.68.01-1.03 2.46-.74 3.63-.92.07-1.85.09-2.62.52-2.33 1.31 1.13 3.4 4.94 3.66zM167.18 94.17c.55 1.19.97 2.26 1.86 2.87.78.53 1.14.25 1.87.02.62-.19 1.52-.08 2.24-.15 3.99-.32 6.38-2.94.89-3.71.09-1.08.85-3.04-.54-3.42-1.43-.39-2.68 1.49-3.22 1.81-.26-1.07-1.81-4.32-3.13-3.09-1.15 1.07-.41 4.34.03 5.67zM34.03 106.44l-.37.12c.48.58 4.54 4.93 4.69 5.44-.54.33-1.52.51-2.24.55l-2.85-5.23c-.36-.7-.38-.54-.54-.57.44 1.19 2.94 5.08 2.95 5.96-.67.19-2.19.63-2.84.55l-.77-6.36-.32.04.8 6.51-2.45.51 1.1-6.87-.37.11c-.09 1.06-.87 6.21-1.21 6.83-.47.3-1.72.57-2.33.59.27-1.92 2.2-5.05 2.66-7.17l-.32.15c-.26 1.26-1.3 3.47-1.81 4.78-.79 2.03-.42 2.76-3.56 2.93.14-.54 1.75-2.84 2.15-3.47.67-1.05 1.66-2.33 2.17-3.43-.3.22-.67.54-.85.78-.17.62-2.04 3.34-2.52 4.08-.26.4-1.07 1.73-1.33 2-.55.59-1.89.4-2.81.53.43.52 1.18.21 2.02.29.47-.26 8.3-2.04 8.78-2 .27.52.42.91.26 1.44-.55.31-7.82 2.15-8.7 2.21l.11.3c1.81-.25 7.56-2.13 8.82-2.1.34.52.64 1.62.52 2.23l-8.76 2.27-.03.23.17.03c1.96-.26 7.41-2.14 8.84-2.15.32.6.32 1.44.71 1.87.46-.7-1.48-5-1.42-6.51.72-.25 3.28-.9 4.05-.88.65 1.34 1.2 5.17 1.87 6.18.02-.02.28.1.09-.75-.25-1.09-.38-.9 2.09-1.38l6.95-1.32-.1-.26c-1.42.15-8.51 1.83-9.15 1.6l-.46-1.03c-.14-.5-.28-.72-.23-1.25.57-.36 8.33-2.06 9.33-2.11l-.11-.27c-2.14.17-7.88 2.03-9.42 1.85-.2-.43-.43-.97-.29-1.41.44-.28 8.44-2.14 9.41-2.25.37-.24 1.72-.71 1.46-1.24-1.37.56-.87 1.13-2.66.34-.87-.39-1.67-.72-2.53-1.1-1.11-.48-4.46-1.77-5.1-2.32l-.9-.12c1.12.89 8.07 3.26 8.92 4.07l-.09.06-.1.06-.54.2c-3.16.84-2.44.81-4.92-.96-.47-.33-4.19-2.97-4.6-3.45l-.2.03c.17.55 4.86 3.78 5.73 4.38l.7.61c.01-.03.04.05.06.08-.53.29-2.25.73-2.8.49l-4.81-5.32zM159.28 118.05l.43 3.86-1.23-.53c0-.58.17-1.15.29-1.78.22-1.15.08-1.3.51-1.55zm-4.16-.41c-.72.04-1.53.29-2.21.45-.35.08-.7.19-1.06.26-.74.16-.58.17-1.13-.17l.54.65 4.48 1.67c-.08 1.76-.74 1.05-2.04.58-.89-.32-1.81-.71-2.71-.95l-.11.13 4.4 1.57c-.06.41-.19.72-.34 1.03l-4.38-1.24.11.18c.85.21 1.6.47 2.44.73.37.12.92.24 1.24.37.68.27.34.09.42.59.03.21-.02.16.04.3l1.15-2.99c.77.02 1.25.36 1.94.56-.1 1.16-.88 2.2-1 3.2.37-.35.03-.24.52-.56l5.41 2.06.07-.13-5.5-2.13.28-1.09c1.28.12 4.26 1.67 5.74 2.1l.13.06.05-.22c-.6-.07-5.21-1.91-5.72-2.2l.26-.86c.36.03 5.38 1.9 5.83 2.12.47-.07.43.06.87-.19-1.47.03-1.36-.08-1.92-1.07l-1.15-1.75 1.31 2.42c-1.8-.06-1.83-1.04-2.03-1.7-.28-.99-.62-1.95-.84-2.91l-.21-.13 1.15 3.99-1.15-.31-.46-3.85-.26-.16-.39-.14-.66 3.4-1.71-.6c.09-.44.03-.22.17-.59-.44.26-.58.62-1.34 0 .27-.41.98-.89 1.4-1.24l.73-.59c.15-.13.27-.19.41-.31.29-.27.13-.09.27-.34-1.99 1.02-2.71 3.15-4.3 1.97-.29-.22-.02.05-.23-.24l4.28-1.87-.45-.13c-.67.58-2.1 1.02-2.96 1.43-1.16.55-1.83.74-2.88-.13.7-.49 2.78-.56 3.5-1.03z" class="fil3"/><path d="M156.69 120.12a8.65 8.65 0 001.62-2.05l-1.62 2.05zM161.77 120.7c-.06-.24-.03-.23-.15-.43-.23-.37-.2-.23-.3-.32.2.68.21.54.45.75z" class="fil3"/></g><g><path d="M27.43 125.65c2.36-.47 4.94-1.22 7.38-1.77 27.12-6.08 64.88-6.24 91.98-2.44a183.6 183.6 0 0115.38 2.75c2.37.54 12.76 3.07 13.91 4.06-1.54 2.78-3.37 5.18-5.16 7.57-.24.31-.42.56-.66.93-.85 1.3-4.05 4.63-5.29 5.89-13.59 13.86-33.25 22.11-54.58 21.73-14.99-.26-28.68-5.59-38.76-12.17a71.87 71.87 0 01-7.3-5.46 108.8 108.8 0 01-6.45-6.17c-1.02-1.21-3.49-3.88-4.36-5.22-.47-.71-.77-1.19-1.28-1.91-.98-1.37-4.34-6.4-4.81-7.79zm30.79-24.16c-.01.99-.2 2.02-.15 2.94.06 1.34.12 1.37-.16 2.66-.29 1.31.46 3.64.39 5.26.07 1.02.26 3.01-.13 3.85-.32.21-9.79 1.47-10.37 1.39l-.37-1.83-6.95 1.32c-2.47.48-2.34.29-2.09 1.38.19.85-.07.73-.09.75-.67-1.01-1.22-4.84-1.87-6.18-.77-.02-3.33.63-4.05.88-.06 1.51 1.88 5.81 1.42 6.51-.39-.43-.39-1.27-.71-1.87-1.43.01-6.88 1.89-8.84 2.15l.42 2.03c-.66.42-4.51 1.56-5.6 1.95-1.65.6-3.79 1.37-5.28 2.15l-1.88.87c-.6.32-1.61.6-1.88 1.15-.4.85.07 1.79.61 2.1 1.35.79 3.18-.55 4.47-1.09 1.83-.78 7.39-2.98 9.12-3.24l2.48 4.23a75.39 75.39 0 002.66 4.01l4.36 5.65c1.61 1.87 3.5 3.66 4.93 5.23 1.12 1.22 2.28 2.07 3.48 3.19a78.8 78.8 0 007.66 5.83c24.93 16.48 57.62 17.49 83.31 1.84a79.93 79.93 0 0021.27-18.92 71.98 71.98 0 004.13-5.88c.42-.63.93-1.64 1.37-2.13 1.14.23 4.96 2.28 5.96 2.92.87.56 2.08 1.51 3.32.58 1.52-1.14.04-2.85 0-2.93l-.4-.18c-1.79-.8-4.25-2.58-6.16-3.1l.23-.9-5.41-2.06c-.49.32-.15.21-.52.56.12-1 .9-2.04 1-3.2-.69-.2-1.17-.54-1.94-.56l-1.15 2.99c-.06-.14-.01-.09-.04-.3-.08-.5.26-.32-.42-.59-.32-.13-.87-.25-1.24-.37-.84-.26-1.59-.52-2.44-.73a.81.81 0 00-.09.1l-.47.52c-1.21-.59-8.53-2.36-10.15-2.58l.49-2.47-18.16-1.57c-1.24-.1-5.16-.75-5.85-.25-.41.59-.02 1.88-.77 1.52-.15-.21-.06.04-.12-.32-.04-.19-.03-.2-.03-.39.03-1.83 1.03-9.44.62-10.08-.33-.51-8.21-1.26-8.82-1.13-.36.93-.45 4.32-.55 5.69-.08 1.22-.22 4.83-.52 5.66-1.37-.1-.09-1.11-.62-2.63-.96-.37-19.65-1.85-22.67-2.22l-.08 3.13c-2.67.06-5.36.14-8.01.26-2.15.1-5.76.55-7.68.42l-.8-1.96c-.72-1.44.04-.73-.05-2.15.06-2.59-1.22-4.22-1.07-4.72 1.44-1.88.35-1.13.6-3.03.29-2.28-.42-1.52-.04-3.35.48-1.41.08-2.55-.95-3.2-.08-.87.18-1.43.15-2.46-.02-.82.09-1.76-.14-2.52-.13-.44-.31-.5-.25-.92.06-.52.25-.2.21-1.05-.06-1.48-.69-4.38-.78-7.13-.06-2.15-.67-2.41-1-4.05.18-.16-.02-.01.28-.19l.09-.06.46-.28c.75-.68.07-2.34-.28-2.73-1.18-1.34-4.32-1.74-5.35.17-.67 1.23-.48 5.37-.34 6.69.31 3.03-.07 2.97-.08 4.81 0 1.41.25 3.27.4 4.71.31 3.1.12 6.35-.03 9.45z" class="fil4"/><path d="M38.94 133.06c-.2.32-.46.44-.44.84.01.47.31.56.8.58 2.87-.57 3.27-1.48 8.53-2.21 8.81-1.23 20.7.5 28.92 3.13 2.17.32 14.66 4.28 18.47 5.28 5.05 1.31 15.07 3.19 20.26 3.36 6.46.22 15.22-.38 21.06-2.28 1.32-.44 3.26-.98 3.64-2.16.29-.89.08-1.74-.45-2.22-.76-.69-1.4-.39-2.37-.17-3.51.79-7.45.85-11.19.74-4.14-.03-13.42-1.34-17.95-2.12-1.67-.29-3.83-.91-5.48-1.36-3.42-.92-6.87-2.2-10.28-3.21-7.32-2.18-13.67-4.6-21.44-5.57-2.11-.26-3.97-.55-6.17-.54-5.66.03-12.3.69-17.6 2.76-4.68 1.84-5.11 2.36-8.31 5.15z" class="fil4"/><path d="M39.49 134.77c-.4.27-.88.75-.13 1.13.28.15 1.39.21 1.68.28 4.76.37 9.28 1.28 13.56 2.62 3.18.99 9.26 4.16 11.25 4.76 2.77.97 5.74 2.44 8.52 3.6.45.19.75.25 1.11.56 1.45.29 4.51 1.76 6.11 2.39 1 .4 2.03.77 3.07 1.13.81.28 2.46.75 3.06 1.08 5.67 1.35 9.95 3.15 16.6 2.91 3.21-.11 5.65-.41 8.67-1.04.98-.2 3.06-.75 3.76-1.18.46-.28.85-.88.78-1.69-.07-.84-.54-.95-1.17-1.27l-5.51.52c-5.79.24-10.08-.73-15.56-2.41-3.11-.95-5.73-2.18-8.64-3.41-5.53-2.32-11.96-6.11-16.43-7.66-3.08-1.07-5.91-2.07-9.28-2.75-4.97-.99-11.44-1.5-16.6-.62l-4.85 1.05zM84.4 39.34c-.01-1.25 1.08-2.75 1.63-3.66 1.82-3.05 3.77-6.67 6.29-9.24a82.58 82.58 0 015.45-5c3.22-2.25 1.64-1.26 4.78-3.05 2.88-1.64 1.8.61.98 3.73l-1.62 6.21c-.25 1.01-.44.88-1.28 1.35-1.14.63-2.11 1.19-3.23 1.84-3.98 2.35-5.86 3.29-9.79 5.89-1.1.72-2.37 1.9-3.21 1.93zm16.11-6.08c.03 1.12-1.91 6.9-2.2 8.87-.22 1.51 1.97 2.63 2.67.24l3.07-11.01c.57-1.36 4.73-2.03 4.78-3.81.02-.81-.57-1.39-1.33-1.48-1-.11-1.24.67-2.11.7l2.75-10.03c.24-.85.7-1.74-.19-2.25-.6-.35-2.3-.13-3.02.03-3.78.83-9.25 4.77-12 7.6-1.08 1.11-2.26 2.07-3.25 3.27l-1.42 1.77a52.11 52.11 0 00-5.97 10.43c-.6 1.41-3.16 6.73-.21 6.59 1.01-.05 5.04-3.19 6.02-3.82 1.33-.87 2.56-1.84 3.94-2.59 1.19-.65 7.88-4.45 8.47-4.51zM46.3 32.83c.69 0 .86.32 1.17.8l3.96 5.75c.45.67.4.62.2 1.48-1.19 4.93-1.75 9.06-3.35 14.24-.13.44-.67 3.37-1.45 1.65-.69-1.52-1.73-8.19-1.89-9.87-.3-3.25-.4-12.04 1.36-14.05zm-.74-4.46c-.58 1.42-1.69 1.84-2.73 6.18-1.07 4.44-.72 12.06.02 16.47.68 4.07 1.65 6.89 2.68 10.66.3 1.1.5 2.73 2.09 2.19.97-.32 1.29-1.74 1.66-2.84.39-1.14.84-2.22 1.16-3.34.68-2.35 1.34-4.69 1.96-7.05.29-1.11 1.37-6.75 1.72-7.23.55.61.92 1.37 1.4 2.04l3.93 6.52c.47.8.74 1.71 1.77 1.68.92-.04 1.53-1.05 1.13-1.97l-2.6-4.37c-1.36-2.09-2.61-4.5-3.91-6.53-.63-.97-.98-1.14-.69-2.46.25-1.15 1.4-4.65.83-5.51-.42-.65-1.87-.94-2.43-.16-.36.49-.64 2.26-.74 2.95l-.14-.18c-.88-1.2-3.47-5.7-4.39-7.25-.3-.5-.51-.63-1.13-.78-1.15-.04-1.04.57-1.59.98z" class="fil4"/><path d="M85.15 153.8c-1.25-.75-1.7-.46-3.43-.54-7.17-.35-13.68-3.47-19.29-7.36l-2.33-1.59c-.76-.52-1.41-1.07-2.2-1.56a51.38 51.38 0 00-16.52-6.19c-.74-.04-.74-.1-1.12.3.11.93 1.65 1.41 2.41 1.82 4.75 2.5 7.25 5.24 11.14 8.45 3.41 2.82 2.69 2.24 6.36 4.66 3.1 2.05 7.92 4.43 12.16 5.39 2.49.57 15.2 1.12 12.82-3.38zM90.69 51.44a9.9 9.9 0 0111.22 8.4 9.9 9.9 0 01-8.46 11.28 9.88 9.88 0 01-11.22-8.43c-.89-5.96 3.46-10.5 8.46-11.25zm9.13.21c-1.21-.63-1.85-1.24-3.43-1.8a12.4 12.4 0 00-9.01.24c-1.54.61-2.23 1.36-3.38 2.04-1.25-.4-5.96-2.84-6.71-2.73l.21.76c.83 1.13 3.58 4.56 3.89 5.25-.75 1.84-1.39 2.88-1.54 5.26-.13 2.08.27 4.18 1.03 5.85 1.34 2.92 1.76 1.43.02 4.5-.45.79-2.32 3.9-2.39 4.55.74-.04 5.55-3.65 6.23-4.14 1.5.75 1.96 1.45 4.41 2.06 2.88.72 5.8.41 8.45-.86 1.29-.62.84-.88 2.24-.26.86.37 4.02 1.91 4.73 1.86.03-.85-2.26-3.53-2.95-4.64.27-.45.7-.96 1.03-1.48a12.32 12.32 0 00.39-12.58c-.32-.58-.84-1.22-1.04-1.71.6-1.04 3.19-4.27 3.23-5.27-.97.08-4.28 2.53-5.41 3.1zM26.05 50.58c-.14 3-.5 7.9-.15 10.96.15 1.25.34 2.44.43 3.69l-6.97-1.19c-2.04-.26-3.99-.81-5.92-1.15-2.76-.5-4.57-1.5-5.33.35-.98 2.38 2.25 2.71 4.08 2.93 2.1.27 4.18.62 6.28.86 1.32.13 2.68.4 4.01.6 1.36.2 2.83.2 4.17.45.36.99 1.18 5.05 2.05 7.66.49 1.47 1.95 6.31 3.28 6.6.73.15 2.3-.33 1.07-2.66-1.41-2.67-2.93-8.47-3.31-11.48l12.34.22c1.36 0 2.82.01 2.55-1.63-.24-1.42-1.74-1.1-3.12-1.15-1.33-.04-2.71-.04-4.08-.03-2.12 0-6.22.09-8.05-.26-.39-1.77-.69-8.45-.71-10.52-.01-1.43.49-9.78.99-10.38-.16-.95-.45-1.94-1.6-1.74-.82.15-1.29.97-1.43 1.94-.26 1.94-.38 3.98-.58 5.93zM74.31 24.78c.75.84 1.69 3.53 1.48 4.99a9.1 9.1 0 01-1.88 4.8c-.55.8-.69 1.34-1.41 1.94-1.18.98-1.23 1.33-2 1.33-.35-.53-3.49-13.72-4.03-16.13-.71-3.1 5.59.54 7.84 3.07zm-17-4.05c1.58.7 2.64-.39 4.22-.46 1.34-.06 1.63 1.89 1.96 3.13l4.64 15.98c.57 1.89-1.29 1.57-1.61 3.05-.18.83.29 1.48.85 1.65.47.14.75.11 1.11-.13.44-.3.15-.35.73-.61.87 1.4.73 5.23 2.48 5.36.93.07 1.67-.7 1.22-2.23l-1.31-4.5c-.45-1.34.08-.89 2.26-3.23a21.13 21.13 0 003.34-4.49c2-3.9 1.52-8.37-1.61-11.77-.64-.69-1.41-1.26-2.08-1.83a16.05 16.05 0 00-6.67-3.06l-1.47-.3c-.03-.01-.07-.04-.1-.04l-.09-.06c-2.64.3-1.84-.25-5.41.64-3.8.95-2.83 1.3-2.46 2.9zM155.84 44.24c-.32-.8-.2-.48-.82-.99-1.48-.19-1.64.7-2.26 1.56a71.23 71.23 0 00-4.45 6.86 36.18 36.18 0 00-4.27 10.95c-.25 1.06-.33 2.28-1.16 2.64-1.81.8-8.13-.87-9.89-1.24-.84-.18-2.4-.76-3.06-.26-.87.66-.66 2.07.29 2.45 1.12.44 4.95 1.15 6.31 1.4 4.22.77 9.77.95 14.04.24 4.8-.81 8.84-3.55 12.02-6.98.64-.69.7-2.11-.41-2.42-1.12-.31-2.35 1.33-3.3 2.35-1.31 1.41-4.03 2.91-5.99 3.58-1.72.59-2.93.77-4.67.99l-1.38.08c-.73-.16-.16.05-.42-.22-.75-.85 1.76-7.18 2.33-8.63 1.3-3.33 3.84-6.79 5.74-9.63.58-.87 1.33-1.53 1.35-2.73zM144.52 31.97c-2.79.21-11.24 2.45-13.69 4.11-4.32 2.92-5.61 5.3-7.14 10.7-.77 2.7-1.1 4.72-1.59 7.4-.18.97-.48 1.79.24 2.37.57.46 1.68.38 2.24-.02 1.06-.75 1.02-4.5 1.85-7.15.94-3.05 1.3-6.11 3.63-8.42a13.77 13.77 0 013.33-2.61c2.33-1.32 11.26-3.56 14.42-3.57.99-.03 3.72.12 4.46-.05 1.19-.27 1.67-1.96.75-2.77-1.14-1.01-6.76-.15-8.5.01zM164.19 74.76c.36.95-.93 3.59-1.39 4.47-1.46 2.8-1.53 2.45-2.39 3.99-.44.78-.01 1.78.71 2.01 1.11.35 1.52-.52 1.92-1.12a29.9 29.9 0 004.02-8.63c.5-1.88 1.04-4.21-1.63-3.94-1.69.17-3.57.84-5.04 1.34-3.11 1.04-6.45 1.92-9.52 3.11-1.18.46-8.68 3.18-9 3.78-.49.9.08 1.95.9 2.09 1.09.19 5.39-1.87 6.99-2.47 1.59-.6 2.97-1.29 4.64-1.76 1.44-.41 9-3 9.79-2.87zM141.69 111.87l1.04-4.67c-4.43-.1-8.77.22-13.32-.02-2.12-.11-4.27-.22-6.38-.4-1.3-.11-5.08-.72-5.95-.46-1.34 4.78.71 3.96 2.76 4.08l3.1.21c5.49.38 14 .66 18.75 1.26zM140.4 116.7c.53-.3.06.09.32-.37.12-.23.01-.22.19-.51l.66-3.36c-1.35.1-15.83-.99-18.54-1.17-1.46-.09-5-.5-6.24-.31a9.45 9.45 0 00-.3 3.51c1.16.58 20.54 1.77 23.91 2.21zM82.87 110.53l.04.47c3.5.02 21.34 2.43 22.82 1.97.32-.56.47-2.56.21-3.15-.56-.53-1.94-.49-2.76-.61l-8.72-1.29c-3.72-.55-7.88-1.35-11.58-1.71l-.01 4.32zM82.88 105.47c1.38.42 4.27.68 5.87.92 2.76.4 16.54 2.6 17.35 2.44.3-.79.46-2.88.25-3.82-.84-.38-4.79-.67-6.12-.83-4.77-.55-12.98-2-17.36-3.03l.01 4.32zM110.52 86.85l-2.49-.16-13.02 12.52c-.34.32-.58.65-.92.97-.52.49-1.69 1.38-1.95 1.95.47.4 5 1.06 5.69 1.1.85.06.87-.23 1.28-.79 3.6-4.89 8.08-10.83 11.41-15.59zM120.67 88.02l-1.66-.17c.16 1.02 5.84 17.7 6.09 18.01.51.62 6.82.74 7.3.57-.13-.95-11.23-17.08-11.73-18.41zM123.93 89.1a11.6 11.6 0 00-2.74-1.03c.33.78 10 15.46 10.98 16.97 1.09 1.71.56 1.61 3.05 1.58 2.41-.02 5.37.46 4.32-.8l-13.82-14.5c-.42-.37-1.68-1.58-1.79-2.22zM114.6 87.32l-1.62-.16c-.45 1.37-1.18 2.93-1.77 4.31-.85 2-5.14 11.98-5.15 12.68 1.22.21 4.89.73 6.04.62l2.5-17.45zM102.91 88.19c-.31.71-1.39 1.27-1.98 1.7l-13.86 10.23c-.63.48-.79.32-.9 1.03 1.02.35 2.65.55 3.85.77 1.89.34 1.23.26 2.92-1.3l13.19-12.64c.45-.42.84-.73 1.22-1.18-1.76.19-3.07.68-4.44 1.39zM112.5 87.07l-.86-.07c-.52.01-.73.51-.99.87l-8.21 11.22c-.95 1.32-2.73 3.22-2.52 4.27.57.24 4.72.76 5.53.62.65-1.16 1.29-2.9 1.84-4.24l1.76-4.2c.55-1.31 3.32-7.63 3.45-8.47zM116.29 87.5l-.85-.08-.44-.05c-.12 2.6-.85 6.17-1.23 8.84-.27 1.86-1.27 7.15-1.16 8.66.71.23 5.18.8 5.6.6.16-.14.14-.46.14-.55l-2.06-17.42zM146.81 106.25c-.01-1.4-1.37-1.99-2.24-2.58-.94-.63-1.83-1.29-2.75-1.9-.45-.3-1.03-.74-1.44-1.03l-15.17-10.66 4.62 4.96c.97.88 1.53 1.57 2.34 2.46.41.45.82.77 1.24 1.22l4.63 4.95c.39.42.78.72 1.17 1.14 2.74 2.95 1.31 1.44 7.6 1.44zM118.3 87.73l-1.55-.13c.23 3.01.71 6.16 1.06 9.17.24 1.98.64 7.38 1.13 8.85.87.19 4.23.7 4.97.28.75-.79-5.57-16.22-5.61-18.17zM79.26 99.02v.17c.89.15 2.65 1.21 5.02 1.64.9.17 1.05.06 1.66-.39 1.78-1.33 3.45-2.54 5.25-3.89.61-.46 9.87-7.11 10.4-7.79-1.91.69-3.95 1.7-5.83 2.5l-14.19 6.12c-1.11.48-1.91.59-2.31 1.64zM18.27 93.96l3.36 1.05c.59.19.66.1.84.6-1.02.32-3.45.51-4.2 1.15l.23 3.62c-.98-.25-2.21-1.73-2.94-1.66-.75.08-2.1 1.55-3.07 1.65 0-.99.78-2.66.98-3.75-3.81-.26-7.27-2.35-4.94-3.66.77-.43 1.7-.45 2.62-.52-.29-1.17-.94-3.62.74-3.63 1.39-.01 2.26 1.53 3.05 2.14.5-.86 1.92-4.72 3.38-2.93.98 1.21.54 4.58-.05 5.94zm-3.11-6.06c-.11.44-.27.56-.65.9-.35-.14-3.44-2.53-4.67.25-.33.74-.22 1.33-.31 2.17-.92.44-1.58.49-2.24 1.23-1.32 1.46-.32 3.31 1.71 4.31 1.39.67 2.74.43 2.85 1.19.09.54-.34 2.03-.33 2.61.04 2.32 3.33-1.24 4.28-.48.69.27 2.54 1.7 3.2 1.33.93-.51.22-3.02.28-4.07 1.13-.89 3.87-.38 4.13-2.03-.52-1.07-2.78-1.39-3.91-2.08.08-.75.63-1.64.76-2.74a4.68 4.68 0 00-.47-2.93c-1.57-2.49-4.23.13-4.63.34zM173.15 96.91l-1.31.2c.28.82.92 2.63 1.01 3.5-.67-.15-1.1-.56-1.56-.89-.21-.15-1.11-.8-1.33-.86-.7-.18-2.02 1.09-2.9 1.36l.2-3.45c-.56-.36-2.34-.82-3.15-1.05l-.92-.41c.32-.4.97-.41 1.97-.66.7-.18 1.36-.37 2.02-.48-.44-1.33-1.18-4.6-.03-5.67 1.32-1.23 2.87 2.02 3.13 3.09.54-.32 1.79-2.2 3.22-1.81 1.39.38.63 2.34.54 3.42 5.49.77 3.1 3.39-.89 3.71zm-3.12 2.99c1.66.58 4.25 3.5 3.56-.17-.53-2.8.08-1.25 2.6-2.33 1.92-.82 2.8-2.53 1.53-3.97-.69-.78-1.39-.73-2.16-1.31-.19-1.45-.21-2.58-1.32-3.18a2.74 2.74 0 00-2.09-.08c-.35.11-.52.24-.78.4-.67.38-.61.21-.7.11l-.55-.53c-.18-.21-.2-.26-.4-.46-.96-.96-2.56-1.86-3.74-.75-1.78 1.68-.07 4.99.02 5.83-.89.19-3.25.87-3.71 1.56-.29 1.11 2.39 1.51 3.97 2.17.09 1.25-.57 3.24.4 3.99.89.25 2.43-1.01 3.37-1.28zM118.75 84.06c-.17-1.58-2.86-1.36-4.11-6.9-1.16-5.17 1.43-7.95 1.62-8.72-1.8-.28-3.49 1.8-4.09 2.95-3.26 6.31 1.87 14.19 6.58 12.67z" class="fil4"/><path d="M115.5 60.75c.13.87.53.25 1.75 2.19a6.44 6.44 0 01-1.21 8.11c-.48.4-.31.04-.46.64 3.83.55 8.24-5.21 3.9-9.68-1.14-1.17-3.51-1.88-3.98-1.26zM34.7 94.33c.43 1.06 1.12 1.53 1.37 3.21a6.96 6.96 0 01-2.58 6.6c-2.15 1.63.87 1.01 1.51.79 5.76-2.02 3.94-11-.3-10.6zM47.33 115.5l-.32-1.46-.19-1.33c-1 .05-8.76 1.75-9.33 2.11-.05.53.09.75.23 1.25l.46 1.03c.64.23 7.73-1.45 9.15-1.6zM23.53 118.04l.58 2.4 8.76-2.27a3.82 3.82 0 00-.52-2.23c-1.26-.03-7.01 1.85-8.82 2.1z" class="fil4"/><path d="M35.13 96.47c-.02-.03-.06-.1-.07-.08-.01.03-.05-.06-.07-.08-.47-.46-.89-.74-1.26-1.36a3.96 3.96 0 01.11-4.39c.79-1.09 1.39-1 1.33-1.55-2.65-.98-6.59 3.63-3.14 6.48.58.49 2.11 1.48 3.1.98zM46.71 112.44l-.3-1.81c-.97.11-8.97 1.97-9.41 2.25-.14.44.09.98.29 1.41 1.54.18 7.28-1.68 9.42-1.85zM23.08 116.09l.34 1.65c.88-.06 8.15-1.9 8.7-2.21.16-.53.01-.92-.26-1.44a91.76 91.76 0 00-8.78 2zM36.68 106.19l-1.33-.02c.41.48 4.13 3.12 4.6 3.45 2.48 1.77 1.76 1.8 4.92.96l.54-.2.1-.06.09-.06c-.85-.81-7.8-3.18-8.92-4.07zM158.88 140.15c-.87-.14-2.48-1.65-2.97-1.72-.76-.11-.37.02-.52.17-.35.49 1.87 1.62 2.71 2.17.42.27 2.43 1.76 2.85 1.82.75.11.37 0 .54-.16.38-.97-1.76-.49-1.58-2.57 1.53-.83 3.98-.41 3.89-1.6-.82-.5-3.03.76-4.2.58l-.81-3.55c-.16-.72-.1-.81-.84-.83-.31 1.04 1 4.21.93 5.69zM154.67 147.3c-.51.48-.97 1.12-1.62 1.43l-.76-3.23 1.85 1.26c.43.33.3.18.53.54zm-2.29 2.13c-.38.51-.66.4-.58 1.12.58.14.37-.07.9-.06.33 1.57.27 2.03 1.07 1.96.21-.89-.38-1.96-.43-2.91l2.01-1.86c.39.23 1.35 1.03 1.59 1.09.26.06 1.23-.05-.15-1.04l-4.51-3.32c-2.18-1.67-.22 2.49.1 5.02zM143.69 152.42c.62.09.47-.08.93-.34l2.71 3.66c.39.54.48 1.01 1.23.93.11-.86-2.45-3.71-3.34-5.06a9.1 9.1 0 012.19-2.1c.42.31.68.7 1.06 1.17.22.27.27.39.53.64l1.55 1.78c.55.68.86 1.17 1.21.83.37-.34-.11-.79-.72-1.46-.52-.57-.64-.74-1.16-1.3-.34-.38-.79-.91-1.14-1.34-1.41-1.77-.27-.37-.66-1.65-.71-.05-2.49 1.95-3.56 2.87-.38.33-1.02.64-.83 1.37zM36.41 148.65c-.26.59-1.16 1.85-1.59 2.27-.76-.36-.88-.98-1.54-1.48l3.13-.79zm-4.73.47a16 16 0 00-1.24.28c-.76.2-.72.11-.74.81.82.15 2.12-.72 2.83-.39.23.11 1.61 1.53 1.81 1.78-.3.7-1.17 1.21-1.02 2.09.86.12 1.19-1 2.33-2.56 2.04-2.8 3.28-4 .76-3.3-.67.19-3.5 1.13-3.97.78-.68-.49-1.34-.93-.76.51zM26.87 142.27a9.28 9.28 0 01-.99-1.91l3.25.13c-.31.38-1.8 1.51-2.26 1.78zm-2.5-2.73l-1.95.1c-.04.02-.77.57.78.63l1.73.06c.4.8.91 1.61 1.27 2.42-.39.54-1.19.88-1.38 1.19-.35.6-.07.37.06.5.37.35 2.29-1.41 2.99-1.96 1.1-.87 2.79-1.8 2.71-2.59-.78-.28-4.15-.26-5.24-.3-.19-.47-.22-.79-.86-.89-.37.66.06.44-.11.84zM48.91 165.22c1.18.01.11-.6 1.34-.8a4.9 4.9 0 012.19.03c.09.99-1.14 1.58-.77 2.5.59.02.44.13 1.11-1.15l1.72-3.08c.38-.67.99-1.4.47-1.72-.59-.12-1.11 1.41-1.43 1.93-.33.55-.31.51-1.15.57-.65.05-1.29.11-1.94.06.1-1.18 2.12-3.6 1.64-4.4-.68 0-.5.08-1.08 1.24-.63 1.26-2.36 4.07-2.1 4.82zM161.57 114.12c-.21-1.52-.69-2.58.37-3.99 1.06-1.41 1.5-1.09 3.17-1.58-.31-.86-2.03-1.05-2.87-.87-3.45.7-2.93 5.59-.67 6.44zM54.09 168.31c1.05 0 .49-.51 1.11-.77.67-.16 1.81-.33 2.46-.05.04.99-1.21 1.73-.67 2.52.6-.08.48-.06 1.07-1.26.26-.52.54-1.08.84-1.63.39-.72 1.51-2.48 1.34-3.2-1.02 0-.54.51-1.6 2.07-.36.55-.67.49-1.35.55l-.81.08c-1.06.06-.93-.25-.52-1.12.54-1.13 1.55-2.73 1.2-3.32-.57 0-.45-.02-.7.48-.12.25-.22.54-.34.81-.56 1.22-2.2 4.04-2.03 4.84zM22.65 133.6c-.95-.12-3.42-.83-4.03-.39.07.76.78.64 1.61.78.72.12 1.39.25 2.11.36-.22.98-1.43 3.28-1.12 4.01.83.05.86-.92 1.14-1.68l.78-2.13c.9-.01 3 .53 3.42.53.59 0-.3.08.26-.02.29-.05.18-.01.34-.13.56-.75-3.03-1.07-3.71-1.15.2-.82 1.19-2.6.78-3.24-.68.02-.48-.03-.97 1.38l-.61 1.68zM127.78 163.77c-.53.26-2.06.86-2.72.89-.66-.71-.35-1.92-1.15-1.62-.39.3.12 1.28.25 1.66l1.14 3.22c.31.88.15 1.21.97 1.24.25-.73-.79-2.63-.92-3.68 3.11-1.28 2.83-1.16 3.71.84.31.71.39 1.61 1.17 1.47.21-.71-1.37-3.74-1.88-4.96-.29-.71-.32-1.37-1.11-1.34-.24.84.56 1.3.54 2.28zM34.03 106.44l4.81 5.32c.55.24 2.27-.2 2.8-.49-.02-.03-.05-.11-.06-.08l-.7-.61c-.87-.6-5.56-3.83-5.73-4.38l-1.12.24zM32.72 106.75l-.66.15.77 6.36c.65.08 2.17-.36 2.84-.55-.01-.88-2.51-4.77-2.95-5.96zM94.42 173.23c.87.44 2.13 2.48 3.08 2.45.22-.72-.43-1.07-.92-1.54-.4-.38-1.18-1.01-1.37-1.5.63-1.39 3.07-2.23 2.62-3.24-.52-.16-.72.23-1.1.59-.45.44-2.67 2.69-3.01 2.8-.03-.99.38-2.79-.14-3.52-.73.09-.53.15-.57 2.21-.02.63-.25 3.73-.03 4.12.28.49.57.09.64-.24.36-1.68-.49-.87.8-2.13zM45.86 159.96c.09.68.26 1.41.39 2.13.15.8.04 1.59.83 1.49.31-.89-.45-2.64-.4-3.76.62-.15 1.49-.28 2.21-.4 1.63-.27 1.7-.05 1.86-.7-.42-.53-.95-.19-2.39.05-.92.15-1.91.34-2.89.46.28-.79 1.95-2.45 1.81-2.96-.27-.96-1.48 1.1-2.09 1.94-.09.12-3.13 3.83-1.49 3.17.72-.28.05-1.21 2.16-1.42zM137.26 156.97c-.37.78.94 1.76.96 2.63 0 .38-.73 1.57-.98 2l-.17.27-.3.33c-.33-.63-.76-1.31-1.15-2l-.87-1.48s-.3-.34-.58-.02c-.22.26 2.45 4.81 2.59 5 .38.5.13.41.81.4.33-1.39-.92.2.51-2.52 1.02-1.93 1.35.87 2 .99 1.06.2-.22-1.67-.38-1.95-.71-1.3-1.68-3.91-2.44-3.65zM29.4 145.14c.1.95-.5 3.22.05 3.83.54-.05.39.1.51-.44.15-.68-.1-2.7.41-3.14.39-.26 1.35-.03 1.95.02l2.13.01c.14-.85-1.43-.68-2.26-.76-.72-.07-2.21-.13-2.83-.31.12-.44.02-.21.51-.59.93-.73 1.94-1.24 1.95-2.08-.64-.08-1.12.47-1.98 1.17l-2.75 2.19c-.23.19-.93.72-.24.89.48.12.76-.38 1.09-.63.51-.38.7-.24 1.46-.16zM29.94 107.45c-.46 2.12-2.39 5.25-2.66 7.17a6.35 6.35 0 002.33-.59c.34-.62 1.12-5.77 1.21-6.83l-.88.25z" class="fil4"/><path d="M28.57 108.41c-.51 1.1-1.5 2.38-2.17 3.43-.4.63-2.01 2.93-2.15 3.47 3.14-.17 2.77-.9 3.56-2.93.51-1.31 1.55-3.52 1.81-4.78-.65.28-.62.38-1.05.81zM70.32 169.27c-.93.12-1.76-.64-2.65-.35-.18.85.34.78 1.1.96.55.14 1.32.29 1.72.59-.15.47-.19.37-.75.68-1.28.7-2.55 1.15-2.41 2.06.67 0 4.04-2.04 4.59-2.47.08-.9-1.35-2.7-1.99-3.75-.13-.21-.21-.41-.39-.64-.28-.37-.15-.34-.62-.37-.54.83 1.23 2.26 1.4 3.29zM33.66 106.56l-.94.19c.16.03.18-.13.54.57l2.85 5.23c.72-.04 1.7-.22 2.24-.55-.15-.51-4.21-4.86-4.69-5.44zM76.32 174.94c.59-.07.38.09.62-1.51.02-.11.29-2.18.47-1.84l.45-.05c.11 0 .48.07.62.09.5.08.96.07 1.27.34.61.8-.68 3.04.19 3.65.53-.3.47-1.99.57-3.12.06-.8.49-3.08.01-3.57-.63.23-.47 1.5-.54 2.15l-2-.25c-.53-.13-.19.01-.54-.22-.03-1.49.46-1.42-.11-1.93-.38.19-.31-.24-.53 1.4-.16 1.17-.84 4.3-.48 4.86zM82.15 171.77a6.48 6.48 0 011.85-1.49c2.72 1.76.21 4.23-.29 4.51-.37-.3-1.4-2.45-1.56-3.02zm1.56 4.16c.46-.34 2.3-2.94 2.62-3.58-.11-.56-1.66-2.61-2.02-3.02-.56.07-1.39.85-1.84 1.19-.56.42-1.43.68-1.01 1.6.32.69 1.69 3.56 2.25 3.81zM31.19 107.09l-1.1 6.87 2.45-.51-.8-6.51zM21.04 115.46l.02.34c.92-.13 2.26.06 2.81-.53.26-.27 1.07-1.6 1.33-2 .48-.74 2.35-3.46 2.52-4.08-.42.22-1.36 1.23-1.78 1.61l-4.9 4.66zM103.45 175.68c.41-.2.37-.3.52-.92l.31-1.14c.23-.78.46-1.65.7-2.33.29.26.12 0 .29.4l.29 1.73c.13.8.11 2.23.78 1.71.39-.29-.19-2.7-.3-3.37-.14-.9-.17-2.65-.68-3.15-.61.12-.43-.05-.89 1.58l-1.08 3.85c-.22.79-.64 1.34.06 1.64zM132.12 165.93l-.72-1.6c.65.07.89.07 1.28.38.08.6-.15.93-.56 1.22zm.05 1.41c.53-.28.76-.97 1.04-1.49.29-.55.74-1.1.71-1.8-.72-.34-2.04-.41-3.01-.59-.21-.51-.4-.9-.64-1.39-.55-1.12-.38-1.15-1-1.16-.36.55.86 2.79 1.16 3.32.3.52.5 1 .76 1.56.5 1.06.47 1.33.98 1.55zM155.48 142.9c1.05-.51 1.41.09 1.37 1.16a4 4 0 01-1.37-1.16zm-2.44-.08c1.11.36.67-.38 1.7.58l2.5 2.15c.55.44.67.93 1.44.79.25-1.19-.77-.59-.97-1.7-.15-.84-.03-1.85-.24-2.65-.74-.16-1.53.01-2.37.03-.92.03-1.99-.27-2.06.8zM109.65 172.06c-.01.54-.35 1.1-.84 1.33a4.65 4.65 0 01-.43-2.01l1.27.68zm-1.27 2.73c.74-.04 2.36-2.26 2.34-3.07-3.06-1.39-2.57-1.27-2.87-2.76-.11-.58-.49-1.3-.77-.51-.2.55.93 5.92 1.3 6.34zM47.87 109.39c-.29-.51-1.36-.65-2.04-.85l-2.38-.67c-1.05-.3-3.9-.98-4.56-1.36l-1.31-.2c.64.55 3.99 1.84 5.1 2.32.86.38 1.66.71 2.53 1.1 1.79.79 1.29.22 2.66-.34zM121.88 166.44c.44.2.74.23.89.66.19.54-.06.89-.32 1.16l-.57-1.82zm-1.66-1.53c-.21.77.42.41.78 1.21l1 3.5c.21.74.15 1.35.84 1.37.54-.83-.51-1.01.18-2.13 1.33-2.19 1.58-1.73-1.62-3.72-.34-.21-.81-.4-1.18-.23zM161.35 116.66c-.47.31-.65.21-1.17.41.16.38-.21.12.43.44.53.26 1.31.24 1.87.23 1.11-.5 1.92-1.09 1.39-2.76a4.07 4.07 0 00-2.17-2.3c.68 1.46 1.37 3.08-.35 3.98zM116.57 77.1c.25-1.05-.54-2.76 1.61-4.19.55-.36.92-.31 1.16-.81-.67-.74-2.79-.24-3.6 1.26-.73 1.35-.27 3.55.83 3.74zM37.4 156.92c.51-.7-.03-3.59.02-4.72 1.09-.03 3.41.08 4.22-.27v-.49c-.68-.29-1.9-.09-2.76-.06-1.67.06-2.21-.21-2.32.49-.03.2.15 2.35.18 2.79.02.44.03.9.06 1.33.04.68-.05.88.6.93zM109.29 168.15c.29.76 1.23.15 2.1.03.21.92.39 1.84.58 2.74.33 1.53.22 2.3.91 2.45.43-.34.29-.46.14-1.13-.11-.46-.22-.99-.31-1.45-.17-.82-.52-2.06-.53-2.79.71-.34 1.83-.2 2.22-.87-.19-.39.2-.31-.47-.36-.05-.01-.58.12-.67.14l-2.81.7c-.63.14-.91.12-1.16.54zM100.98 172.78c-.42-.31-.63-1.16-.87-1.74-.64-1.59-.33-1.56-1.02-1.59-.33.61.64 2.47.91 3.15.2.5.56 1.13.51 1.62-.05.62-.73 1.12-.26 1.69.64-.16 2.02-4.21 2.35-4.98.22-.53.81-1.38.41-1.91-.49.15-.42.23-.64.81-.28.71-.95 2.66-1.39 2.95zM40.69 154.43c-.18.68.03 2.05.08 2.83.04.8-.09 2.16.43 2.56.86-.26.24-2.77.25-4.73l2.51-.08c.96-.03 1.66.22 1.73-.67-.5-.25-4.26-.15-5 .09zM90.45 62.23c.49 1.96 3.38 1.3 2.8-.96-.49-1.91-3.36-1.26-2.8.96zM117.81 169.16c-1-.33-1.43-2.75-2.32-3-.56.59.33 1.4 1.19 2.83.22.37.77 1.12.88 1.44.23.64-.29 1.14-.1 1.94.58-.09.45.09.62-.62.06-.24.12-.67.18-.96l.41-1.93c.22-1.11.92-3.37.45-3.75-.85.35-.57 3.14-1.31 4.05zM162.9 125.93c.32-.35.39-.58.52-1.12-1.48-.43-4.46-1.98-5.74-2.1l-.28 1.09 5.5 2.13zM73.71 168.73c-.05 1.15-1.19 4.48-.68 5.15.63-.17.55-.95.81-2.26.15-.77.33-2.07.59-2.76.77-.04 1.5.36 2.04.01-.03-.58.37-.44-1.33-.7-1.06-.17-3.4-.84-2.98.05.19.4 1.14.32 1.55.51zM163.6 124.65l.37-.94a86.79 86.79 0 00-5.83-2.12l-.26.86c.51.29 5.12 2.13 5.72 2.2zM150.99 120.13c.9.24 1.82.63 2.71.95 1.3.47 1.96 1.18 2.04-.58l-4.48-1.67-.27 1.3z" class="fil4"/><path d="M150.56 121.62l4.38 1.24c.15-.31.28-.62.34-1.03l-4.4-1.57-.32 1.36zM135.61 165.04c.35-.55-.43-1.76-.99-2.97l-1.01-2.18c-.26-.49-.14-.47-.71-.43-.33.59.76 2.35 1.05 2.99.55 1.21.97 2.56 1.66 2.59zM155.12 117.64c-.72.47-2.8.54-3.5 1.03 1.05.87 1.72.68 2.88.13.86-.41 2.29-.85 2.96-1.43-1.09-.11-1.37.22-2.34.27zM34.44 100.32c1.82-.84.82-4.26-2.23-3.57.28.33-.45-.02.83.63 1.76.89 1.15 1.99 1.4 2.94zM161.32 119.95c.1.09.07-.05.3.32.12.2.09.19.15.43l1.15 1.75c.56.99.45 1.1 1.92 1.07-.18-.68-1.52-1.96-2.05-2.53-.68-.75-1.25-1.53-2.03-2.26.11.55.38.67.56 1.22zM158.31 118.07c-.17.36-1.2 1.8-1.62 2.05-.14.37-.08.15-.17.59l1.71.6.66-3.4c-.51-.17-.17-.17-.58.16z" class="fil4"/><path d="M161.77 120.7c-.24-.21-.25-.07-.45-.75-.32-.38-.54-1.2-1.11-1.44.22.96.56 1.92.84 2.91.2.66.23 1.64 2.03 1.7l-1.31-2.42zM150.72 118.18c.55.34.39.33 1.13.17.36-.07.71-.18 1.06-.26.68-.16 1.49-.41 2.21-.45l.27-.14c.02-.01.08-.02.1-.07.02-.06.07-.06.11-.12l-5.34.13c.19.72.09.31.46.74zM158.16 117.64l-.25-.14-4.28 1.87c.21.29-.06.02.23.24 1.59 1.18 2.31-.95 4.3-1.97zM160 118.38l-.46-.17.46 3.85 1.15.31zM159.28 118.05c-.43.25-.29.4-.51 1.55-.12.63-.29 1.2-.29 1.78l1.23.53-.43-3.86z" class="fil4"/><path d="M156.69 120.12l1.62-2.05.15-.2c-.18-.27.25-.2-.3-.23-.14.25.02.07-.27.34-.14.12-.26.18-.41.31l-.73.59c-.42.35-1.13.83-1.4 1.24.76.62.9.26 1.34 0zM163.71 113.53c-.69-1.21-1.27-1.05-.71-2.92-.88.19-1.31.7-.83 1.71.3.64.72.99 1.54 1.21zM58.12 162.98c1.35.22 2.44.35 2.32-.58 0 0-2.51-.82-2.32.58zM134.92 158.14c.71.03.73-.25 1.1-.8.25-.36.6-.7.61-1.19-.55-.22-.79.19-1.15.65-.36.46-.69.78-.56 1.34z" class="fil4"/></g><g><path d="M126.17 137.95c3.74.11 7.68.05 11.19-.74.97-.22 1.61-.52 2.37.17.53.48.74 1.33.45 2.22-.38 1.18-2.32 1.72-3.64 2.16-5.84 1.9-14.6 2.5-21.06 2.28-5.19-.17-15.21-2.05-20.26-3.36-3.81-1-16.3-4.96-18.47-5.28.76.46 2.14.91 2.92 1.24 5.76 2.43 14.85 5.83 20.72 7.43 2.16.59 4.53.94 6.74 1.37 7.72 1.48 13.21-2.2 13.54.98.24 2.33-3.18 3.49-4.31 3.63.63.32 1.1.43 1.17 1.27.07.81-.32 1.41-.78 1.69-.7.43-2.78.98-3.76 1.18-3.02.63-5.46.93-8.67 1.04-6.65.24-10.93-1.56-16.6-2.91-.35.68-1.47 1.34-2.57 1.48 2.38 4.5-10.33 3.95-12.82 3.38-4.24-.96-9.06-3.34-12.16-5.39-3.67-2.42-2.95-1.84-6.36-4.66-3.89-3.21-6.39-5.95-11.14-8.45-.76-.41-2.3-.89-2.41-1.82.38-.4.38-.34 1.12-.3a3.32 3.32 0 01-.19-.18c-.02-.02-.06-.03-.08-.09-.02-.06-.05-.07-.07-.11-.29-.07-1.4-.13-1.68-.28-.75-.38-.27-.86.13-1.13-.03-.03-.13-.22-.19-.29-.49-.02-.79-.11-.8-.58-.02-.4.24-.52.44-.84-.2-.16-.22.25-.27-.44-.03-.52 1.04-1.38 1.25-1.59 1.36-1.38 1.52-1.39 3.31-2.64 3.46-2.42 6.16-3.2 10.01-4.36 4.24-1.28 7.51-2.03 12.2-2.09 4.7-.07 4.12-.1 8.88.46 5.33.63 10.43 2.13 15.65 3.36 7.42 1.75 16.66 3.98 24.06 4.52 6.8.49 15.68.94 22.46-.49 3.07-.64 5.95-2.8 6.2.92a3.3 3.3 0 01-.42 1.98c-1.38 2.33-9.1 4.09-12.11 4.59-1.23.2-2.9.2-3.99.67zm-98.74-12.3c.47 1.39 3.83 6.42 4.81 7.79.51.72.81 1.2 1.28 1.91.87 1.34 3.34 4.01 4.36 5.22.9 1.08 5.27 5.16 6.45 6.17a71.87 71.87 0 007.3 5.46c10.08 6.58 23.77 11.91 38.76 12.17 21.33.38 40.99-7.87 54.58-21.73 1.24-1.26 4.44-4.59 5.29-5.89.24-.37.42-.62.66-.93 1.79-2.39 3.62-4.79 5.16-7.57-1.15-.99-11.54-3.52-13.91-4.06a183.6 183.6 0 00-15.38-2.75c-27.1-3.8-64.86-3.64-91.98 2.44-2.44.55-5.02 1.3-7.38 1.77z" class="fil5"/><path d="M75.48 147.72c-.36-.31-.66-.37-1.11-.56-2.78-1.16-5.75-2.63-8.52-3.6.54.67 3.76 1.97 4.54 2.36.81.41 4.21 1.67 5.09 1.8z" class="fil5"/></g><g><path d="M163.71 113.53c-.82-.22-1.24-.57-1.54-1.21-.48-1.01-.05-1.52.83-1.71-.56 1.87.02 1.71.71 2.92zm-2.14.59c-2.26-.85-2.78-5.74.67-6.44.84-.18 2.56.01 2.87.87-1.67.49-2.11.17-3.17 1.58-1.06 1.41-.58 2.47-.37 3.99zM32.21 96.75c3.05-.69 4.05 2.73 2.23 3.57-.25-.95.36-2.05-1.4-2.94-1.28-.65-.55-.3-.83-.63zm2.49-2.42c4.24-.4 6.06 8.58.3 10.6-.64.22-3.66.84-1.51-.79a6.96 6.96 0 002.58-6.6c-.25-1.68-.94-2.15-1.37-3.21zm.43 2.14c-.99.5-2.52-.49-3.1-.98-3.45-2.85.49-7.46 3.14-6.48.06.55-.54.46-1.33 1.55-.93 1.3-.95 3-.11 4.39.37.62.79.9 1.26 1.36.02.02.06.11.07.08.01-.02.05.05.07.08zm129.06-21.71c-.79-.13-8.35 2.46-9.79 2.87-1.67.47-3.05 1.16-4.64 1.76-1.6.6-5.9 2.66-6.99 2.47-.82-.14-1.39-1.19-.9-2.09.32-.6 7.82-3.32 9-3.78 3.07-1.19 6.41-2.07 9.52-3.11 1.47-.5 3.35-1.17 5.04-1.34 2.67-.27 2.13 2.06 1.63 3.94a29.9 29.9 0 01-4.02 8.63c-.4.6-.81 1.47-1.92 1.12-.72-.23-1.15-1.23-.71-2.01.86-1.54.93-1.19 2.39-3.99.46-.88 1.75-3.52 1.39-4.47zm-47.62 2.34c-1.1-.19-1.56-2.39-.83-3.74.81-1.5 2.93-2 3.6-1.26-.24.5-.61.45-1.16.81-2.15 1.43-1.36 3.14-1.61 4.19zm2.18 6.96c-4.71 1.52-9.84-6.36-6.58-12.67.6-1.15 2.29-3.23 4.09-2.95-.19.77-2.78 3.55-1.62 8.72 1.25 5.54 3.94 5.32 4.11 6.9zm-2.71-13.01a6.44 6.44 0 001.21-8.11c-1.22-1.94-1.62-1.32-1.75-2.19.47-.62 2.84.09 3.98 1.26 4.34 4.47-.07 10.23-3.9 9.68.15-.6-.02-.24.46-.64zm-16.22-19.4c1.13-.57 4.44-3.02 5.41-3.1-.04 1-2.63 4.23-3.23 5.27.2.49.72 1.13 1.04 1.71a12.32 12.32 0 01-.39 12.58c-.33.52-.76 1.03-1.03 1.48.69 1.11 2.98 3.79 2.95 4.64-.71.05-3.87-1.49-4.73-1.86-1.4-.62-.95-.36-2.24.26a12.38 12.38 0 01-8.45.86c-2.45-.61-2.91-1.31-4.41-2.06-.68.49-5.49 4.1-6.23 4.14.07-.65 1.94-3.76 2.39-4.55 1.74-3.07 1.32-1.58-.02-4.5a12.58 12.58 0 01-1.03-5.85c.15-2.38.79-3.42 1.54-5.26-.31-.69-3.06-4.12-3.89-5.25l-.21-.76c.75-.11 5.46 2.33 6.71 2.73 1.15-.68 1.84-1.43 3.38-2.04a12.4 12.4 0 019.01-.24c1.58.56 2.22 1.17 3.43 1.8zm.69-18.39c-.59.06-7.28 3.86-8.47 4.51-1.38.75-2.61 1.72-3.94 2.59-.98.63-5.01 3.77-6.02 3.82-2.95.14-.39-5.18.21-6.59a52.11 52.11 0 015.97-10.43l1.42-1.77c.99-1.2 2.17-2.16 3.25-3.27 2.75-2.83 8.22-6.77 12-7.6.72-.16 2.42-.38 3.02-.03.89.51.43 1.4.19 2.25l-2.75 10.03c.87-.03 1.11-.81 2.11-.7.76.09 1.35.67 1.33 1.48-.05 1.78-4.21 2.45-4.78 3.81l-3.07 11.01c-.7 2.39-2.89 1.27-2.67-.24.29-1.97 2.23-7.75 2.2-8.87zM65.18 17.19l.09.06c.03 0 .07.03.1.04l1.47.3c2.18.38 5.05 1.69 6.67 3.06.67.57 1.44 1.14 2.08 1.83a10.1 10.1 0 011.61 11.77 21.13 21.13 0 01-3.34 4.49c-2.18 2.34-2.71 1.89-2.26 3.23l1.31 4.5c.45 1.53-.29 2.3-1.22 2.23-1.75-.13-1.61-3.96-2.48-5.36-.58.26-.29.31-.73.61-.36.24-.64.27-1.11.13-.56-.17-1.03-.82-.85-1.65.32-1.48 2.18-1.16 1.61-3.05L63.49 23.4c-.33-1.24-.62-3.19-1.96-3.13-1.58.07-2.64 1.16-4.22.46-.12.24-4.58 2.69-5.2 3.08-1.85 1.16-3.33 2.27-5.04 3.37l.08.21c.62.15.83.28 1.13.78.92 1.55 3.51 6.05 4.39 7.25l.14.18c.1-.69.38-2.46.74-2.95.56-.78 2.01-.49 2.43.16.57.86-.58 4.36-.83 5.51-.29 1.32.06 1.49.69 2.46 1.3 2.03 2.55 4.44 3.91 6.53l2.6 4.37c.4.92-.21 1.93-1.13 1.97-1.03.03-1.3-.88-1.77-1.68l-3.93-6.52c-.48-.67-.85-1.43-1.4-2.04-.35.48-1.43 6.12-1.72 7.23-.62 2.36-1.28 4.7-1.96 7.05-.32 1.12-.77 2.2-1.16 3.34-.37 1.1-.69 2.52-1.66 2.84-1.59.54-1.79-1.09-2.09-2.19-1.03-3.77-2-6.59-2.68-10.66-.74-4.41-1.09-12.03-.02-16.47 1.04-4.34 2.15-4.76 2.73-6.18a73.04 73.04 0 00-6.54 5.56c-.73.82-1.25 1.41-2.01 2.06-.77.67-3.03 3.32-3.79 4.18l-3.56 4.28c-.5.6-1 8.95-.99 10.38.02 2.07.32 8.75.71 10.52 1.83.35 5.93.26 8.05.26 1.37-.01 2.75-.01 4.08.03 1.38.05 2.88-.27 3.12 1.15.27 1.64-1.19 1.63-2.55 1.63l-12.34-.22c.38 3.01 1.9 8.81 3.31 11.48 1.23 2.33-.34 2.81-1.07 2.66-1.33-.29-2.79-5.13-3.28-6.6-.87-2.61-1.69-6.67-2.05-7.66-1.34-.25-2.81-.25-4.17-.45-1.33-.2-2.69-.47-4.01-.6.13.73-.89 3.69-1.14 4.7a83.6 83.6 0 00-1.04 5.05c-.65 3.88-.76 7.2-1.13 11.12.4-.21 3.06-2.83 4.63-.34.49.77.59 1.9.47 2.93-.13 1.1-.68 1.99-.76 2.74 1.13.69 3.39 1.01 3.91 2.08-.26 1.65-3 1.14-4.13 2.03-.06 1.05.65 3.56-.28 4.07-.66.37-2.51-1.06-3.2-1.33.48 2.92.89 5.66 1.6 8.45.34 1.35.68 2.7 1.09 3.99.4 1.27.94 2.63 1.25 3.86.5-.29.79-.64 1.3-.92l4.9-4.66c.42-.38 1.36-1.39 1.78-1.61.18-.24.55-.56.85-.78.43-.43.4-.53 1.05-.81l.32-.15.88-.25.37-.11.55-.15.32-.04.66-.15.94-.19.37-.12 1.12-.24.2-.03 1.33.02.9.12 1.31.2c1.84-1.26 16.17-4.61 19.33-5.02.15-3.1.34-6.35.03-9.45-.15-1.44-.4-3.3-.4-4.71.01-1.84.39-1.78.08-4.81-.14-1.32-.33-5.46.34-6.69 1.03-1.91 4.17-1.51 5.35-.17.35.39 1.03 2.05.28 2.73l-.46.28-.09.06c-.3.18-.1.03-.28.19.33 1.64.94 1.9 1 4.05.09 2.75.72 5.65.78 7.13.04.85-.15.53-.21 1.05-.06.42.12.48.25.92.23.76.12 1.7.14 2.52.03 1.03-.23 1.59-.15 2.46 1.03.65 1.43 1.79.95 3.2 2.14-.15 4.4-.51 6.57-.71 2.28-.22 4.55-.4 6.86-.52.4-1.05 1.2-1.16 2.31-1.64l14.19-6.12c1.88-.8 3.92-1.81 5.83-2.5l1.32-.57c1.37-.71 2.68-1.2 4.44-1.39l.68-.11 2.49.16 1.12.15.86.07.48.09 1.62.16.84.1.85.08.46.1 1.55.13.71.12 1.66.17.52.05c.95.22 1.96.61 2.74 1.03.47.4.8.52 1.28.98l15.17 10.66c.41.29.99.73 1.44 1.03.92.61 1.81 1.27 2.75 1.9.87.59 2.23 1.18 2.24 2.58-.11 1.11-1.28.94-2.28.83l-.38.2c3.49.91 12.01 5.41 15.26 7.95.53.41 1.45 1.18 1.94 1.43 1.72-.9 1.03-2.52.35-3.98a4.07 4.07 0 012.17 2.3c.53 1.67-.28 2.26-1.39 2.76.4.37.7.63 1.08 1.03.31.31.69.88 1.06 1.08.84-1.02 2.8-7.6 3.31-9.38a66.36 66.36 0 002.1-10.57c-.94.27-2.48 1.53-3.37 1.28-.97-.75-.31-2.74-.4-3.99-1.58-.66-4.26-1.06-3.97-2.17.46-.69 2.82-1.37 3.71-1.56-.09-.84-1.8-4.15-.02-5.83 1.18-1.11 2.78-.21 3.74.75.2.2.22.25.4.46l.55.53a78.33 78.33 0 00-4.5-25.44 77.94 77.94 0 00-8.76-17.36l-1.57-2.33c-.02 1.2-.77 1.86-1.35 2.73-1.9 2.84-4.44 6.3-5.74 9.63-.57 1.45-3.08 7.78-2.33 8.63.26.27-.31.06.42.22l1.38-.08c1.74-.22 2.95-.4 4.67-.99 1.96-.67 4.68-2.17 5.99-3.58.95-1.02 2.18-2.66 3.3-2.35 1.11.31 1.05 1.73.41 2.42-3.18 3.43-7.22 6.17-12.02 6.98-4.27.71-9.82.53-14.04-.24-1.36-.25-5.19-.96-6.31-1.4-.95-.38-1.16-1.79-.29-2.45.66-.5 2.22.08 3.06.26 1.76.37 8.08 2.04 9.89 1.24.83-.36.91-1.58 1.16-2.64a36.18 36.18 0 014.27-10.95 71.23 71.23 0 014.45-6.86c.62-.86.78-1.75 2.26-1.56l-5.32-6.38c-.51-.57-1.52-1.49-1.89-2.09-3.16.01-12.09 2.25-14.42 3.57-1.5.85-2.23 1.52-3.33 2.61-2.33 2.31-2.69 5.37-3.63 8.42-.83 2.65-.79 6.4-1.85 7.15-.56.4-1.67.48-2.24.02-.72-.58-.42-1.4-.24-2.37.49-2.68.82-4.7 1.59-7.4 1.53-5.4 2.82-7.78 7.14-10.7 2.45-1.66 10.9-3.9 13.69-4.11l-.82-.85c-3.83-3.51-10.02-7.45-14.5-9.88-16.11-8.73-35.85-11.14-53.97-6.96-1.78.42-3.46.88-5.14 1.4-1.66.5-3.3 1.19-4.91 1.51zM38.94 133.06c3.2-2.79 3.63-3.31 8.31-5.15 5.3-2.07 11.94-2.73 17.6-2.76 2.2-.01 4.06.28 6.17.54 7.77.97 14.12 3.39 21.44 5.57 3.41 1.01 6.86 2.29 10.28 3.21 1.65.45 3.81 1.07 5.48 1.36 4.53.78 13.81 2.09 17.95 2.12 1.09-.47 2.76-.47 3.99-.67 3.01-.5 10.73-2.26 12.11-4.59a3.3 3.3 0 00.42-1.98c-.25-3.72-3.13-1.56-6.2-.92-6.78 1.43-15.66.98-22.46.49-7.4-.54-16.64-2.77-24.06-4.52-5.22-1.23-10.32-2.73-15.65-3.36-4.76-.56-4.18-.53-8.88-.46-4.69.06-7.96.81-12.2 2.09-3.85 1.16-6.55 1.94-10.01 4.36-1.79 1.25-1.95 1.26-3.31 2.64-.21.21-1.28 1.07-1.25 1.59.05.69.07.28.27.44z" class="fil6"/><path d="M39.3 134.48c.06.07.16.26.19.29l4.85-1.05c5.16-.88 11.63-.37 16.6.62 3.37.68 6.2 1.68 9.28 2.75 4.47 1.55 10.9 5.34 16.43 7.66 2.91 1.23 5.53 2.46 8.64 3.41 5.48 1.68 9.77 2.65 15.56 2.41l5.51-.52c1.13-.14 4.55-1.3 4.31-3.63-.33-3.18-5.82.5-13.54-.98-2.21-.43-4.58-.78-6.74-1.37-5.87-1.6-14.96-5-20.72-7.43-.78-.33-2.16-.78-2.92-1.24-8.22-2.63-20.11-4.36-28.92-3.13-5.26.73-5.66 1.64-8.53 2.21zM84.4 39.34c.84-.03 2.11-1.21 3.21-1.93 3.93-2.6 5.81-3.54 9.79-5.89 1.12-.65 2.09-1.21 3.23-1.84.84-.47 1.03-.34 1.28-1.35l1.62-6.21c.82-3.12 1.9-5.37-.98-3.73-3.14 1.79-1.56.8-4.78 3.05-.91.64-4.31 3.85-5.45 5-2.52 2.57-4.47 6.19-6.29 9.24-.55.91-1.64 2.41-1.63 3.66zM41.38 136.56a51.38 51.38 0 0116.52 6.19c.79.49 1.44 1.04 2.2 1.56l2.33 1.59c5.61 3.89 12.12 7.01 19.29 7.36 1.73.08 2.18-.21 3.43.54 1.1-.14 2.22-.8 2.57-1.48-.6-.33-2.25-.8-3.06-1.08a69.47 69.47 0 01-3.07-1.13c-1.6-.63-4.66-2.1-6.11-2.39a33.87 33.87 0 01-5.09-1.8c-.78-.39-4-1.69-4.54-2.36-1.99-.6-8.07-3.77-11.25-4.76a61.11 61.11 0 00-13.56-2.62c.02.04.05.05.07.11.02.06.06.07.08.09l.19.18zM46.3 32.83c-1.76 2.01-1.66 10.8-1.36 14.05.16 1.68 1.2 8.35 1.89 9.87.78 1.72 1.32-1.21 1.45-1.65 1.6-5.18 2.16-9.31 3.35-14.24.2-.86.25-.81-.2-1.48l-3.96-5.75c-.31-.48-.48-.8-1.17-.8zM70.5 37.84c.77 0 .82-.35 2-1.33.72-.6.86-1.14 1.41-1.94a9.1 9.1 0 001.88-4.8c.21-1.46-.73-4.15-1.48-4.99-2.25-2.53-8.55-6.17-7.84-3.07.54 2.41 3.68 15.6 4.03 16.13zM19.36 64.04l6.97 1.19c-.09-1.25-.28-2.44-.43-3.69-.35-3.06.01-7.96.15-10.96l-.19.17c-1.18 1.3-4.83 9.51-5.56 11.47-.22.59-.35 1.44-.94 1.82z" class="fil6"/></g></g></g></svg>