<?xml version="1.0" encoding="UTF-8"?>
<!DOCTYPE svg PUBLIC "-//W3C//DTD SVG 1.1//EN" "http://www.w3.org/Graphics/SVG/1.1/DTD/svg11.dtd">
<!-- Creator: CorelDRAW 2020 (64-Bit) -->
<svg xmlns="http://www.w3.org/2000/svg" xml:space="preserve" width="16px" height="42px" version="1.1" style="shape-rendering:geometricPrecision; text-rendering:geometricPrecision; image-rendering:optimizeQuality; fill-rule:evenodd; clip-rule:evenodd"
viewBox="0 0 4.03 10.94"
 xmlns:xlink="http://www.w3.org/1999/xlink"
 xmlns:xodm="http://www.corel.com/coreldraw/odm/2003">
 <defs>
  <style type="text/css">
   <![CDATA[
    .str0 {stroke:#FFB236;stroke-width:0.26;stroke-miterlimit:22.9256}
    .fil1 {fill:none}
    .fil0 {fill:#FFB236;fill-rule:nonzero}
   ]]>
  </style>
 </defs>
 <g id="Слой_x0020_1">
  <metadata id="CorelCorpID_0Corel-Layer"/>
  <g id="_2270245018656">
   <g>
    <path class="fil0" d="M3.07 1.05l-0.26 0 0 0 0 -0.04 -0.01 -0.04 0 -0.04 -0.01 -0.04 -0.01 -0.04 -0.01 -0.03 -0.01 -0.04 -0.01 -0.04 -0.02 -0.03 -0.02 -0.04 -0.02 -0.03 -0.02 -0.03 -0.02 -0.03 -0.02 -0.03 -0.03 -0.03 -0.02 -0.03 -0.03 -0.03 -0.03 -0.02 -0.03 -0.02 -0.03 -0.03 -0.03 -0.02 -0.04 -0.02 -0.03 -0.01 -0.04 -0.02 -0.03 -0.01 -0.04 -0.01 -0.04 -0.02 -0.03 0 -0.04 -0.01 -0.04 -0.01 -0.04 0 -0.04 0 0 -0.26 0.05 0 0.05 0.01 0.06 0 0.05 0.01 0.05 0.01 0.05 0.02 0.05 0.01 0.05 0.02 0.04 0.02 0.05 0.03 0.04 0.02 0.04 0.03 0.04 0.03 0.04 0.03 0.04 0.03 0.04 0.04 0.03 0.03 0.04 0.04 0.03 0.04 0.03 0.04 0.02 0.05 0.03 0.04 0.02 0.05 0.02 0.04 0.02 0.05 0.02 0.05 0.01 0.05 0.02 0.05 0 0.05 0.01 0.05 0.01 0.06 0 0.05 0 0zm-1.05 1.05l0 -0.26 0 0 0.04 0 0.04 0 0.04 -0.01 0.04 0 0.03 -0.01 0.04 -0.01 0.04 -0.02 0.03 -0.01 0.04 -0.02 0.03 -0.01 0.04 -0.02 0.03 -0.02 0.03 -0.03 0.03 -0.02 0.03 -0.02 0.03 -0.03 0.02 -0.03 0.03 -0.03 0.02 -0.03 0.02 -0.03 0.02 -0.03 0.02 -0.03 0.02 -0.04 0.01 -0.03 0.02 -0.04 0.01 -0.03 0.01 -0.04 0.01 -0.04 0.01 -0.04 0 -0.04 0.01 -0.04 0 -0.04 0.26 0 0 0.05 -0.01 0.06 -0.01 0.05 0 0.05 -0.02 0.05 -0.01 0.05 -0.02 0.05 -0.02 0.05 -0.02 0.05 -0.02 0.04 -0.03 0.05 -0.02 0.04 -0.03 0.04 -0.03 0.04 -0.04 0.04 -0.03 0.03 -0.04 0.04 -0.04 0.03 -0.04 0.03 -0.04 0.03 -0.04 0.03 -0.04 0.02 -0.05 0.03 -0.04 0.02 -0.05 0.02 -0.05 0.01 -0.05 0.02 -0.05 0.01 -0.05 0.01 -0.06 0.01 -0.05 0 -0.05 0 0 0zm-1.05 -1.05l0.26 0 0 0 0 0.04 0 0.04 0 0.04 0.01 0.04 0.01 0.04 0.01 0.04 0.01 0.03 0.02 0.04 0.01 0.03 0.02 0.04 0.02 0.03 0.02 0.03 0.02 0.03 0.03 0.03 0.02 0.03 0.03 0.03 0.02 0.03 0.03 0.02 0.03 0.02 0.03 0.03 0.04 0.02 0.03 0.02 0.03 0.01 0.04 0.02 0.03 0.01 0.04 0.02 0.04 0.01 0.04 0.01 0.04 0 0.04 0.01 0.04 0 0.04 0 0 0.26 -0.06 0 -0.05 0 -0.05 -0.01 -0.06 -0.01 -0.05 -0.01 -0.05 -0.02 -0.04 -0.01 -0.05 -0.02 -0.05 -0.02 -0.04 -0.03 -0.05 -0.02 -0.04 -0.03 -0.04 -0.03 -0.04 -0.03 -0.04 -0.03 -0.04 -0.04 -0.03 -0.03 -0.03 -0.04 -0.04 -0.04 -0.02 -0.04 -0.03 -0.04 -0.03 -0.05 -0.02 -0.04 -0.02 -0.05 -0.02 -0.05 -0.02 -0.05 -0.01 -0.05 -0.01 -0.05 -0.01 -0.05 -0.01 -0.05 0 -0.06 0 -0.05 0 0zm1.05 -1.05l0 0.26 0 0 -0.04 0 -0.04 0 -0.04 0.01 -0.04 0.01 -0.04 0 -0.04 0.02 -0.04 0.01 -0.03 0.01 -0.04 0.02 -0.03 0.01 -0.03 0.02 -0.04 0.02 -0.03 0.03 -0.03 0.02 -0.03 0.02 -0.02 0.03 -0.03 0.03 -0.02 0.03 -0.03 0.03 -0.02 0.03 -0.02 0.03 -0.02 0.03 -0.02 0.04 -0.01 0.03 -0.02 0.04 -0.01 0.03 -0.01 0.04 -0.01 0.04 -0.01 0.04 0 0.04 0 0.04 0 0.04 -0.26 0 0 -0.05 0 -0.06 0.01 -0.05 0.01 -0.05 0.01 -0.05 0.01 -0.05 0.02 -0.05 0.02 -0.05 0.02 -0.04 0.02 -0.05 0.03 -0.04 0.03 -0.05 0.02 -0.04 0.04 -0.04 0.03 -0.04 0.03 -0.03 0.04 -0.04 0.04 -0.03 0.04 -0.03 0.04 -0.03 0.04 -0.03 0.05 -0.02 0.04 -0.03 0.05 -0.02 0.05 -0.02 0.04 -0.01 0.05 -0.02 0.05 -0.01 0.06 -0.01 0.05 0 0.05 -0.01 0.06 0 0 0z"/>
   </g>
   <path class="fil1 str0" d="M0.52 2.18l0.19 0 0 0 0 0 0 0 0.01 0 0.24 0 0.17 0 0 0 0.16 0 0.01 0 0.66 0 0.94 0 0 0 0.57 0 0.02 0 0 0 0.06 0 0 0 0 0c0.2,0 0.35,0.16 0.35,0.35l0 3.96c0,0.19 -0.15,0.35 -0.35,0.35l0 0c-0.19,0 -0.34,-0.16 -0.34,-0.35l0 -3.39 -0.01 0 0 -0.01c0,-0.03 -0.03,-0.06 -0.06,-0.06l0 0c-0.04,0 -0.07,0.03 -0.07,0.06l0 0.01 0 2.44 0 0 0 0.38 0 0.02 0 0.82 0 0 0 0.49 0 3.06c0,0.27 -0.22,0.5 -0.5,0.5l0 0c-0.27,0 -0.5,-0.23 -0.5,-0.5l0 -3.77 -0.11 0 0 0.9 0 2.87c0,0.27 -0.23,0.5 -0.5,0.5l0 0c-0.28,0 -0.5,-0.23 -0.5,-0.5l0 -2.19 0 -1.36 0 0 0 -0.82 0 -0.02 0 -0.38 0 0 0 -2.44 0 -0.01c0,-0.03 -0.03,-0.06 -0.07,-0.06l0 0c-0.03,0 -0.06,0.03 -0.06,0.06l0 0.01 0 3.39c0,0.19 -0.16,0.35 -0.35,0.35l0 0c-0.19,0 -0.35,-0.16 -0.35,-0.35l0 -3.96c0,-0.19 0.16,-0.35 0.35,-0.35l0 0c0.01,0 0.03,0 0.04,0l0 0z"/>
  </g>
 </g>
</svg>
